<?xml version="1.0" encoding="UTF-8"?>
<svg width="512" height="512" fill="none" version="1.1" viewBox="0 0 512 512" xmlns="http://www.w3.org/2000/svg">
 <path d="m37.756 20.078a25 25 0 0 0-11.207 6.4707 25 25 0 0 0 0 35.355c141.17 141.17 282.34 282.34 423.51 423.51a25 25 0 0 0 35.355 0 25 25 0 0 0 0-35.355c-141.17-141.17-282.34-282.34-423.51-423.51a25 25 0 0 0-24.148-6.4707zm423.51 0a25 25 0 0 0-11.207 6.4707c-141.17 141.17-282.34 282.34-423.51 423.51a25 25 0 0 0 0 35.355 25 25 0 0 0 35.355 0c141.17-141.17 282.34-282.34 423.51-423.51a25 25 0 0 0 0-35.355 25 25 0 0 0-24.148-6.4707zm-210.32-6.6172c-39.363 0.0044-78.748 0.14766-118.15 0.54102l-0.15625 2e-3 -0.15625 0.0039c-15.656 0.35784-34.755 1.0863-54.025 6.9668-19.27 5.8804-39.83 18.474-50.971 40.762l-0.25586 0.51562-0.23242 0.52539c-18.855 42.668-12.31 85.608-13.484 119.66l-0.01367 0.41797v121.55l0.0078 0.32813c1.0842 40.055-4.8043 85.974 8.8496 133.4l0.05859 0.20507 0.06445 0.20508c6.3231 20.586 21.117 35.649 37.232 44.639 16.096 8.9788 33.701 12.89 50.449 13.525 65.475 3.3064 130.11 1.2339 193.66 1.8066l0.4375 4e-3 0.4375-0.0117c40.055-1.0842 85.976 4.8046 133.4-8.8496l0.20312-0.0586 0.20117-0.0625c21.676-6.6519 37.12-22.651 45.932-39.693 8.8091-17.037 12.217-35.4 12.607-52.465 2e-4 -5e-3 2e-3 -0.0104 2e-3 -0.0156 2.6893-70.971 0.93673-141.28 1.4355-210.77l6e-3 -0.86914-0.0566-0.86719c-0.85215-13.204 4.8129-35.369-5.1328-61.246l-1.6055-4.1758-2.9883-3.3281c-20.925-23.301-43.173-43.819-63.416-64.565l-0.88477-0.90625-0.97266-0.80859c-3.4391-2.8585-8.6422-9.2808-16.182-16.777-7.5395-7.4966-18.963-16.734-34.93-19.039l-1.6719-0.24023-1.6894-0.0078c-39.311-0.16654-78.653-0.30125-118.02-0.29689zm6e-3 48.498c38.32-0.0042 76.663 0.12809 115.02 0.28906 1.3139 0.31478 3.0664 1.1908 7.0859 5.1875 4.2503 4.2261 9.6418 11.192 17.922 18.369 19.957 20.428 40.075 39.3 58 58.809 1.5192 8.5952-0.0622 22.813 1.0078 41.74-0.50446 70.608 1.2185 140.5-1.4121 209.53l-6e-3 0.1875-4e-3 0.18555c-0.24945 10.958-2.8301 22.844-7.207 31.309-4.3481 8.4093-9.2679 13.151-16.938 15.547-35.08 10.021-76.289 5.7011-121.03 6.9121l0.875-8e-3c-64.964-0.58541-129.01 1.434-191.9-1.7559l-0.16016-8e-3 -0.16015-6e-3c-10.095-0.37819-20.93-3.0858-28.699-7.4194-7.7137-4.3028-12.202-9.2362-14.439-16.383-10.019-35.079-5.7012-76.286-6.9121-121.02l0.009766 0.65625v-120.8l-0.01563 0.83594c1.3604-39.44-2.2994-74.532 9.1484-101.1 4.1947-8.0897 10.412-12.273 21.48-15.65 11.242-3.4305 26.345-4.5272 40.848-4.8633 39.137-0.38997 78.302-0.53472 117.49-0.53906zm-116.21 72.814a24.249 24.249 0 0 0-24.248 24.248 24.249 24.249 0 0 0 24.248 24.25h121.25a24.249 24.249 0 0 0 24.25-24.25 24.249 24.249 0 0 0-24.25-24.248zm98.443 169.52c-19.963-0.0726-40.406 0.45217-61.217 2.8184-21.78 1.6061-39.453 15.12-48.895 30.645-9.441 15.525-12.821 32.916-11.973 49.611l-0.0156-2.0879c-1.0728 30.278-0.41865 59.914-0.59179 88.836l48.498 0.29102c0.17852-29.818-0.44482-58.98 0.5625-87.41l0.0371-1.0449-0.0547-1.0449c-0.38736-7.6203 1.7442-16.639 4.9746-21.951 3.2304-5.3121 5.3882-7.061 11.023-7.4766l0.51367-0.0391 0.51172-0.0586c36.442-4.2489 75.399-1.7519 116.14-1.9316l0.31055-2e-3 0.30859-0.01c8.5406-0.25595 18.404 1.4865 24.197 4.3262 5.793 2.8396 7.2248 4.2248 8.0625 9.4375l0.01 0.0625 0.01 0.0645c5.3953 32.473 2.1908 68.631 3.1484 107.53l48.482-1.1934c-0.8613-34.986 2.9689-73.497-3.7734-114.18-3.4655-21.506-18.832-37.539-34.594-45.266-15.768-7.7292-32.221-9.6986-46.994-9.2559l0.61914-0.01c-19.205 0.0847-39.007-0.58446-59.299-0.6582z" color="#000000" fill="#fff" stroke-linecap="round"/>
</svg>
