<svg xmlns="http://www.w3.org/2000/svg" xml:space="preserve" id="svg6496" x="0" y="0" style="enable-background:new 0 0 512 512" version="1.1" viewBox="0 0 512 512">
  <style id="style2" type="text/css">
    .st0{fill:#fff;stroke:#000;stroke-width:2}
  </style>
  <g id="path6490" style="stroke:none;fill:#222;fill-opacity:1">
    <path id="path5" d="M423.8 163.2H93c-14 0-25.3-11.3-25.3-25.3S79 112.5 93 112.5h330.9c14 0 25.3 11.3 25.3 25.3s-11.4 25.4-25.4 25.4z" class="st0" style="stroke:none;fill:#222;fill-opacity:1"/>
  </g>
  <g id="path6490-2" style="stroke:none;fill:#222;fill-opacity:1">
    <path id="path8" d="M421.5 281.2H90.6c-14 0-25.3-11.3-25.3-25.3s11.3-25.3 25.3-25.3h330.9c14 0 25.3 11.3 25.3 25.3s-11.3 25.3-25.3 25.3z" class="st0" style="stroke:none;fill:#222;fill-opacity:1"/>
  </g>
  <g id="path6490-2-9" style="stroke:none;fill:#222;fill-opacity:1">
    <path id="path11" d="M421.5 399.7H90.6c-14 0-25.3-11.3-25.3-25.3S76.6 349 90.6 349h330.9c14 0 25.3 11.3 25.3 25.3s-11.3 25.4-25.3 25.4z" class="st0" style="stroke:none;stroke-opacity:0;fill:#222;fill-opacity:1"/>
  </g>
</svg>
