<?xml version="1.0" encoding="UTF-8"?>
<svg width="600" height="450" version="1.1" viewBox="0 0 600 450" xml:space="preserve" xmlns="http://www.w3.org/2000/svg">


<path d="m582.83-4.608e-7h-565.65c-9.4867 0-17.173 8.3032-17.173 18.535v412.93c0 10.232 7.6867 18.535 17.173 18.535h565.65c9.48 0 17.173-8.296 17.173-18.535v-412.93c0-10.232-7.6867-18.535-17.173-18.535zm-491.95 397.6c0 5.2741-3.96 9.5552-8.8533 9.5552h-39.833c-4.8867 0-8.8533-4.2811-8.8533-9.5552v-42.998c0-5.2741 3.9667-9.5552 8.8533-9.5552h39.84c4.8867 0 8.8533 4.2739 8.8533 9.5552v42.998zm0-100.73c0 5.2741-3.96 9.5552-8.8533 9.5552h-39.833c-4.8867 0-8.8533-4.2811-8.8533-9.5552v-42.998c0-5.2741 3.9667-9.5552 8.8533-9.5552h39.84c4.8867 0 8.8533 4.2739 8.8533 9.5552v42.998zm0-100.73c0 5.274-3.96 9.5552-8.8533 9.5552h-39.833c-4.8867 0-8.8533-4.2811-8.8533-9.5552v-42.998c0-5.274 3.9667-9.5552 8.8533-9.5552h39.84c4.8867 0 8.8533 4.2739 8.8533 9.5552v42.998zm0-100.73c0 5.2741-3.96 9.5552-8.8533 9.5552h-39.833c-4.8867 0-8.8533-4.2811-8.8533-9.5552v-42.998c0-5.2741 3.9667-9.5552 8.8533-9.5552h39.84c4.8867 0 8.8533 4.2739 8.8533 9.5552v42.998zm284.37 139.54-137.89 85.917c-7.0867 4.4178-15.947-1.1009-15.947-9.9365v-171.83c0-8.8357 8.86-14.354 15.947-9.9365l137.89 85.917c7.0867 4.4178 7.0867 15.455 0 19.873zm191.42 162.66c0 5.2741-3.9667 9.5552-8.8533 9.5552h-39.84c-4.8867 0-8.8533-4.2811-8.8533-9.5552v-42.998c0-5.2741 3.96-9.5552 8.8533-9.5552h39.84c4.8867 0 8.8533 4.2739 8.8533 9.5552zm0-100.73c0 5.2741-3.9667 9.5552-8.8533 9.5552h-39.84c-4.8867 0-8.8533-4.2811-8.8533-9.5552v-42.998c0-5.2741 3.96-9.5552 8.8533-9.5552h39.84c4.8867 0 8.8533 4.2739 8.8533 9.5552zm0-100.73c0 5.274-3.9667 9.5552-8.8533 9.5552h-39.84c-4.8867 0-8.8533-4.2811-8.8533-9.5552v-42.998c0-5.274 3.96-9.5552 8.8533-9.5552h39.84c4.8867 0 8.8533 4.2739 8.8533 9.5552zm0-100.73c0 5.2741-3.9667 9.5552-8.8533 9.5552h-39.84c-4.8867 0-8.8533-4.2811-8.8533-9.5552v-42.998c0-5.2741 3.96-9.5552 8.8533-9.5552h39.84c4.8867 0 8.8533 4.2739 8.8533 9.5552z"/>
</svg>
