<?xml version="1.0" encoding="UTF-8" standalone="no"?>
<svg
   version="1.1"
   width="600"
   height="450"
   viewBox="0 0 600 450"
   xml:space="preserve"
   id="svg13708"
   sodipodi:docname="genericvideothumb.svg"
   inkscape:version="1.2.1 (9c6d41e410, 2022-07-14)"
   xmlns:inkscape="http://www.inkscape.org/namespaces/inkscape"
   xmlns:sodipodi="http://sodipodi.sourceforge.net/DTD/sodipodi-0.dtd"
   xmlns="http://www.w3.org/2000/svg"
   xmlns:svg="http://www.w3.org/2000/svg"><sodipodi:namedview
   id="namedview13710"
   pagecolor="#ffffff"
   bordercolor="#666666"
   borderopacity="1.0"
   inkscape:showpageshadow="2"
   inkscape:pageopacity="0.0"
   inkscape:pagecheckerboard="0"
   inkscape:deskcolor="#d1d1d1"
   showgrid="false"
   inkscape:zoom="1.2029102"
   inkscape:cx="460.54977"
   inkscape:cy="280.98524"
   inkscape:window-width="1920"
   inkscape:window-height="1051"
   inkscape:window-x="0"
   inkscape:window-y="0"
   inkscape:window-maximized="1"
   inkscape:current-layer="svg13708" />

<defs
   id="defs13702">
</defs>
<g
   style="opacity:1;fill:none;fill-rule:nonzero;stroke:none;stroke-width:0;stroke-linecap:butt;stroke-linejoin:miter;stroke-miterlimit:10;stroke-dasharray:none"
   transform="matrix(6.6666667,0,0,7.1951648,0,-98.782418)"
   id="g13706">
	<path
   d="M 87.424,13.729 H 45.239 44.761 2.576 C 1.153,13.729 0,14.883 0,16.305 v 57.39 c 0,1.422 1.153,2.576 2.576,2.576 h 42.185 0.478 42.185 c 1.422,0 2.576,-1.153 2.576,-2.576 v -57.39 c 0,-1.422 -1.153,-2.576 -2.576,-2.576 z M 13.631,68.988 c 0,0.733 -0.594,1.328 -1.328,1.328 H 6.328 C 5.595,70.316 5,69.721 5,68.988 v -5.976 c 0,-0.733 0.595,-1.328 1.328,-1.328 h 5.976 c 0.733,0 1.328,0.594 1.328,1.328 v 5.976 z m 0,-14 c 0,0.733 -0.594,1.328 -1.328,1.328 H 6.328 C 5.595,56.316 5,55.721 5,54.988 v -5.976 c 0,-0.733 0.595,-1.328 1.328,-1.328 h 5.976 c 0.733,0 1.328,0.594 1.328,1.328 v 5.976 z m 0,-14 c 0,0.733 -0.594,1.328 -1.328,1.328 H 6.328 C 5.595,42.316 5,41.721 5,40.988 v -5.976 c 0,-0.733 0.595,-1.328 1.328,-1.328 h 5.976 c 0.733,0 1.328,0.594 1.328,1.328 v 5.976 z m 0,-14 c 0,0.733 -0.594,1.328 -1.328,1.328 H 6.328 C 5.595,28.316 5,27.721 5,26.988 v -5.976 c 0,-0.733 0.595,-1.328 1.328,-1.328 h 5.976 c 0.733,0 1.328,0.594 1.328,1.328 v 5.976 z M 56.287,46.381 35.604,58.322 c -1.063,0.614 -2.392,-0.153 -2.392,-1.381 V 33.059 c 0,-1.228 1.329,-1.995 2.392,-1.381 l 20.683,11.941 c 1.063,0.614 1.063,2.148 0,2.762 z M 85,68.988 c 0,0.733 -0.595,1.328 -1.328,1.328 h -5.976 c -0.733,0 -1.328,-0.595 -1.328,-1.328 v -5.976 c 0,-0.733 0.594,-1.328 1.328,-1.328 h 5.976 c 0.733,0 1.328,0.594 1.328,1.328 z m 0,-14 c 0,0.733 -0.595,1.328 -1.328,1.328 h -5.976 c -0.733,0 -1.328,-0.595 -1.328,-1.328 v -5.976 c 0,-0.733 0.594,-1.328 1.328,-1.328 h 5.976 c 0.733,0 1.328,0.594 1.328,1.328 z m 0,-14 c 0,0.733 -0.595,1.328 -1.328,1.328 h -5.976 c -0.733,0 -1.328,-0.595 -1.328,-1.328 v -5.976 c 0,-0.733 0.594,-1.328 1.328,-1.328 h 5.976 c 0.733,0 1.328,0.594 1.328,1.328 z m 0,-14 c 0,0.733 -0.595,1.328 -1.328,1.328 h -5.976 c -0.733,0 -1.328,-0.595 -1.328,-1.328 v -5.976 c 0,-0.733 0.594,-1.328 1.328,-1.328 h 5.976 c 0.733,0 1.328,0.594 1.328,1.328 z"
   style="opacity:1;fill:#000000;fill-rule:nonzero;stroke:none;stroke-width:1;stroke-linecap:butt;stroke-linejoin:miter;stroke-miterlimit:10;stroke-dasharray:none"
   stroke-linecap="round"
   id="path13704" />
</g>
</svg>
