<?xml version="1.0" encoding="UTF-8" standalone="no"?>
<!-- Svg Vector Icons : http://www.onlinewebfonts.com/icon -->

<svg
   version="1.1"
   x="0px"
   y="0px"
   viewBox="0 0 1000 1000"
   enable-background="new 0 0 1000 1000"
   xml:space="preserve"
   id="svg4686"
   sodipodi:docname="viewermode.svg"
   width="512"
   height="512"
   inkscape:version="1.2.1 (9c6d41e410, 2022-07-14)"
   xmlns:inkscape="http://www.inkscape.org/namespaces/inkscape"
   xmlns:sodipodi="http://sodipodi.sourceforge.net/DTD/sodipodi-0.dtd"
   xmlns="http://www.w3.org/2000/svg"
   xmlns:svg="http://www.w3.org/2000/svg"><defs
   id="defs4690" /><sodipodi:namedview
   id="namedview4688"
   pagecolor="#ffffff"
   bordercolor="#666666"
   borderopacity="1.0"
   inkscape:showpageshadow="2"
   inkscape:pageopacity="0.0"
   inkscape:pagecheckerboard="true"
   inkscape:deskcolor="#d1d1d1"
   showgrid="false"
   inkscape:zoom="0.61589"
   inkscape:cx="494.40647"
   inkscape:cy="430.27164"
   inkscape:window-width="1920"
   inkscape:window-height="1051"
   inkscape:window-x="0"
   inkscape:window-y="0"
   inkscape:window-maximized="1"
   inkscape:current-layer="svg4686" />
<metadata
   id="metadata4678"> Svg Vector Icons : http://www.onlinewebfonts.com/icon </metadata>
<g
   id="g4684"
   transform="matrix(-1,0,0,1,1000,0)"
   style="stroke:#ffffff;stroke-opacity:1;fill:#ffffff;fill-opacity:1"><g
     id="g4682"
     style="stroke:#ffffff;stroke-opacity:1;fill:#ffffff;fill-opacity:1"><path
       d="M 537.2785,482.82831 H 233.74443 v 34.41341 H 537.2785 Z m 0,113.77693 H 233.74443 v 36.73343 H 537.2785 Z M 348.77804,26.367187 V 140.82081 H 233.74443 V 255.27442 H 121.70749 V 973.70285 H 651.73211 V 858.66922 H 763.76905 V 747.21228 H 878.22266 V 26.367187 Z M 614.99869,936.87275 H 158.53758 V 289.59117 H 614.99869 Z M 727.03562,824.2558 H 651.73211 V 255.17776 H 270.57452 v -77.62352 h 456.4611 z M 841.39257,710.47886 H 763.76905 V 140.72414 H 385.51147 V 63.100617 h 455.8811 z M 537.2785,823.67581 H 233.74443 v 36.73342 H 537.2785 Z m 0,-114.45361 H 233.74443 v 36.73341 H 537.2785 Z m 0.58,-341.42751 H 234.32443 v 37.89343 H 537.8585 Z"
       id="path4680"
       style="stroke-width:0.966669;stroke:#ffffff;stroke-opacity:1;fill:#ffffff;fill-opacity:1" /></g></g>
</svg>
