<?xml version="1.0" encoding="UTF-8"?>
<!-- Svg Vector Icons : http://www.onlinewebfonts.com/icon -->
<svg width="512" height="512" enable-background="new 0 0 1000 1000" version="1.1" viewBox="0 0 1e3 1e3" xml:space="preserve" xmlns="http://www.w3.org/2000/svg">
<metadata> Svg Vector Icons : http://www.onlinewebfonts.com/icon </metadata>
<g transform="matrix(-1 0 0 1 1e3 0)" fill="#fff" stroke="#fff"><path d="m537.28 482.83h-303.53v34.413h303.53zm0 113.78h-303.53v36.733h303.53zm-188.5-570.24v114.45h-115.03v114.45h-112.04v718.43h530.02v-115.03h112.04v-111.46h114.45v-720.85zm266.22 910.51h-456.46v-647.28h456.46zm112.04-112.62h-75.304v-569.08h-381.16v-77.624h456.46zm114.36-113.78h-77.624v-569.75h-378.26v-77.624h455.88zm-304.11 113.2h-303.53v36.733h303.53zm0-114.45h-303.53v36.733h303.53zm0.58-341.43h-303.53v37.893h303.53z" fill="#fff" stroke="#fff" stroke-width=".96667"/></g>
</svg>
