<?xml version="1.0" encoding="UTF-8" standalone="no"?>
<svg
   width="512"
   height="512"
   viewBox="0 0 512 512"
   fill="none"
   version="1.1"
   id="svg10"
   sodipodi:docname="actualsize.svg"
   inkscape:version="1.2.1 (9c6d41e410, 2022-07-14)"
   xmlns:inkscape="http://www.inkscape.org/namespaces/inkscape"
   xmlns:sodipodi="http://sodipodi.sourceforge.net/DTD/sodipodi-0.dtd"
   xmlns="http://www.w3.org/2000/svg"
   xmlns:svg="http://www.w3.org/2000/svg">
  <defs
     id="defs14" />
  <sodipodi:namedview
     id="namedview12"
     pagecolor="#ffffff"
     bordercolor="#666666"
     borderopacity="1.0"
     inkscape:showpageshadow="2"
     inkscape:pageopacity="0.0"
     inkscape:pagecheckerboard="0"
     inkscape:deskcolor="#d1d1d1"
     showgrid="false"
     inkscape:zoom="0.56705729"
     inkscape:cx="848.2388"
     inkscape:cy="492.01378"
     inkscape:window-width="1920"
     inkscape:window-height="1051"
     inkscape:window-x="0"
     inkscape:window-y="0"
     inkscape:window-maximized="1"
     inkscape:current-layer="svg10" />
  <g
     id="g247"
     transform="matrix(26.944026,0,0,26.944026,-67.332078,-67.332078)">
    <path
       d="m 20,20 v 1 h 1 v -1 z m -4.2929,-5.7071 c -0.3905,-0.3905 -1.0237,-0.3905 -1.4142,0 -0.3905,0.3905 -0.3905,1.0237 0,1.4142 z M 19,14 v 6 h 2 v -6 z m 1,5 h -6 v 2 h 6 z m 0.7071,0.2929 -5,-5 -1.4142,1.4142 5,5 z"
       fill="#ffffff"
       id="path2" />
    <path
       d="M 4,20 H 3 v 1 h 1 z m 5.70711,-4.2929 c 0.39049,-0.3905 0.39049,-1.0237 0,-1.4142 -0.39053,-0.3905 -1.02369,-0.3905 -1.41422,0 z M 3,14 v 6 h 2 v -6 z m 1,7 h 6 V 19 H 4 Z m 0.70711,-0.2929 5,-5 -1.41422,-1.4142 -5,5 z"
       fill="#ffffff"
       id="path4" />
    <path
       d="m 20,4 h 1 V 3 h -1 z m -5.7071,4.29289 c -0.3905,0.39053 -0.3905,1.02369 0,1.41422 0.3905,0.39049 1.0237,0.39049 1.4142,0 z M 21,10 V 4 h -2 v 6 z M 20,3 h -6 v 2 h 6 z m -0.7071,0.29289 -5,5 1.4142,1.41422 5,-5 z"
       fill="#ffffff"
       id="path6" />
    <path
       d="M 4,4 V 3 H 3 v 1 z m 4.29289,5.70711 c 0.39053,0.39049 1.02369,0.39049 1.41422,0 0.39049,-0.39053 0.39049,-1.02369 0,-1.41422 z M 5,10 V 4 H 3 v 6 z M 4,5 h 6 V 3 H 4 Z m -0.70711,-0.29289 5,5 1.41422,-1.41422 -5,-5 z"
       fill="#ffffff"
       id="path8" />
  </g>
</svg>
