<?xml version="1.0" encoding="UTF-8"?>
<svg width="512" height="512" fill="none" version="1.1" viewBox="0 0 512 512" xmlns="http://www.w3.org/2000/svg">
 <g transform="matrix(26.944 0 0 26.944 -67.332 -67.332)" fill="#fff">
  <path d="m20 20v1h1v-1zm-4.2929-5.7071c-0.3905-0.3905-1.0237-0.3905-1.4142 0s-0.3905 1.0237 0 1.4142zm3.2929-0.2929v6h2v-6zm1 5h-6v2h6zm0.7071 0.2929-5-5-1.4142 1.4142 5 5z"/>
  <path d="m4 20h-1v1h1zm5.7071-4.2929c0.39049-0.3905 0.39049-1.0237 0-1.4142-0.39053-0.3905-1.0237-0.3905-1.4142 0zm-6.7071-1.7071v6h2v-6zm1 7h6v-2h-6zm0.70711-0.2929 5-5-1.4142-1.4142-5 5z"/>
  <path d="m20 4h1v-1h-1zm-5.7071 4.2929c-0.3905 0.39053-0.3905 1.0237 0 1.4142 0.3905 0.39049 1.0237 0.39049 1.4142 0zm6.7071 1.7071v-6h-2v6zm-1-7h-6v2h6zm-0.7071 0.29289-5 5 1.4142 1.4142 5-5z"/>
  <path d="m4 4v-1h-1v1zm4.2929 5.7071c0.39053 0.39049 1.0237 0.39049 1.4142 0 0.39049-0.39053 0.39049-1.0237 0-1.4142zm-3.2929 0.29289v-6h-2v6zm-1-5h6v-2h-6zm-0.70711-0.29289 5 5 1.4142-1.4142-5-5z"/>
 </g>
</svg>
