<?xml version="1.0" encoding="UTF-8" standalone="no"?>
<svg
   width="512"
   height="512"
   viewBox="0 0 512 512"
   fill="none"
   version="1.1"
   id="svg10"
   sodipodi:docname="clipboard.svg"
   inkscape:version="1.2.1 (9c6d41e410, 2022-07-14)"
   xmlns:inkscape="http://www.inkscape.org/namespaces/inkscape"
   xmlns:sodipodi="http://sodipodi.sourceforge.net/DTD/sodipodi-0.dtd"
   xmlns="http://www.w3.org/2000/svg"
   xmlns:svg="http://www.w3.org/2000/svg">
  <defs
     id="defs14" />
  <sodipodi:namedview
     id="namedview12"
     pagecolor="#ffffff"
     bordercolor="#666666"
     borderopacity="1.0"
     inkscape:showpageshadow="2"
     inkscape:pageopacity="0.0"
     inkscape:pagecheckerboard="0"
     inkscape:deskcolor="#d1d1d1"
     showgrid="false"
     inkscape:zoom="1.6038802"
     inkscape:cx="216.66206"
     inkscape:cy="251.26564"
     inkscape:window-width="1920"
     inkscape:window-height="1051"
     inkscape:window-x="0"
     inkscape:window-y="0"
     inkscape:window-maximized="1"
     inkscape:current-layer="svg10" />
  <g
     id="g802"
     transform="matrix(23.118812,0,0,23.095529,-21.409858,-32.691058)">
    <path
       d="m 15.5,5 c 1.4045,0 2.1067,0 2.6111,0.33706 0.2184,0.14592 0.4059,0.33342 0.5518,0.5518 C 19,6.39331 19,7.09554 19,8.5 V 18 c 0,1.8856 0,2.8284 -0.5858,3.4142 C 17.8284,22 16.8856,22 15,22 H 9 C 7.11438,22 6.17157,22 5.58579,21.4142 5,20.8284 5,19.8856 5,18 V 8.5 C 5,7.09554 5,6.39331 5.33706,5.88886 5.48298,5.67048 5.67048,5.48298 5.88886,5.33706 6.39331,5 7.09554,5 8.5,5"
       stroke="#ffffff"
       stroke-width="2"
       id="path2"
       style="stroke:#ff00ff;stroke-opacity:1" />
    <path
       d="M 9,5 C 9,3.89543 9.89543,3 11,3 h 2 c 1.1046,0 2,0.89543 2,2 0,1.10457 -0.8954,2 -2,2 H 11 C 9.89543,7 9,6.10457 9,5 Z"
       stroke="#ffffff"
       stroke-width="2"
       id="path4"
       style="stroke:#ff00ff;stroke-opacity:1" />
    <path
       d="m 9,12 h 6"
       stroke="#ffffff"
       stroke-width="2"
       stroke-linecap="round"
       id="path6"
       style="stroke:#ff00ff;stroke-opacity:1" />
    <path
       d="m 9,16 h 4"
       stroke="#ffffff"
       stroke-width="2"
       stroke-linecap="round"
       id="path8"
       style="stroke:#ff00ff;stroke-opacity:1" />
  </g>
</svg>
