<?xml version="1.0" encoding="UTF-8"?>
<svg width="512" height="512" fill="none" version="1.1" viewBox="0 0 512 512" xmlns="http://www.w3.org/2000/svg">
 <g transform="matrix(24.251 0 0 24.251 -35.002 -35.002)">
  <path d="m15 15v-1h-1v1zm5.2929 6.7071c0.3905 0.3905 1.0237 0.3905 1.4142 0s0.3905-1.0237 0-1.4142zm-5.2929-12.707h-1v1h1zm6.7071-5.2929c0.3905-0.39053 0.3905-1.0237 0-1.4142-0.3905-0.39052-1.0237-0.39052-1.4142 0zm-12.707 11.293h1v-1h-1zm-6.7071 5.2929c-0.39052 0.3905-0.39052 1.0237 0 1.4142 0.39053 0.3905 1.0237 0.3905 1.4142 0zm6.7071-11.293v1h1v-1zm-5.2929-6.7071c-0.39053-0.39052-1.0237-0.39052-1.4142 0-0.39052 0.39053-0.39052 1.0237 0 1.4142zm12.293 17.707v-5h-2v5zm-1-4h5v-2h-5zm-0.7071-0.2929 6 6 1.4142-1.4142-6-6zm-0.2929-11.707v5h2v-5zm1 6h5v-2h-5zm0.7071-0.29289 6-6-1.4142-1.4142-6 6zm-5.7071 10.293v-5h-2v5zm-1-6h-5v2h5zm-0.70711 0.2929-6 6 1.4142 1.4142 6-6zm-0.29289-10.293v5h2v-5zm1 4h-5v2h5zm0.70711 0.29289-6-6-1.4142 1.4142 6 6z" fill="#fff"/>
 </g>
</svg>
