<?xml version="1.0" encoding="UTF-8" standalone="no"?>
<svg
   width="512"
   height="512"
   viewBox="0 0 512 512"
   fill="none"
   version="1.1"
   id="svg6"
   sodipodi:docname="Arrow_left_long.svg"
   inkscape:version="1.2.1 (9c6d41e410, 2022-07-14)"
   xmlns:inkscape="http://www.inkscape.org/namespaces/inkscape"
   xmlns:sodipodi="http://sodipodi.sourceforge.net/DTD/sodipodi-0.dtd"
   xmlns="http://www.w3.org/2000/svg"
   xmlns:svg="http://www.w3.org/2000/svg">
  <defs
     id="defs10" />
  <sodipodi:namedview
     id="namedview8"
     pagecolor="#ffffff"
     bordercolor="#666666"
     borderopacity="1.0"
     inkscape:showpageshadow="2"
     inkscape:pageopacity="0.0"
     inkscape:pagecheckerboard="0"
     inkscape:deskcolor="#d1d1d1"
     showgrid="false"
     inkscape:zoom="1.6038802"
     inkscape:cx="142.77874"
     inkscape:cy="218.84427"
     inkscape:window-width="1920"
     inkscape:window-height="1051"
     inkscape:window-x="0"
     inkscape:window-y="0"
     inkscape:window-maximized="1"
     inkscape:current-layer="svg6" />
  <g
     id="g295"
     transform="matrix(24.467446,0,0,24.467446,-39.841907,-37.699458)">
    <path
       d="m 7,11 c -0.55228,0 -1,0.4477 -1,1 0,0.5523 0.44772,1 1,1 z m 14,2 c 0.5523,0 1,-0.4477 1,-1 0,-0.5523 -0.4477,-1 -1,-1 z M 7,13 H 21 V 11 H 7 Z"
       fill="#ffffff"
       id="path2" />
    <path
       d="M 2.28481,11.7966 7.73501,7.90356 C 8.2645,7.52535 9,7.90385 9,8.55455 v 6.89085 c 0,0.6507 -0.7355,1.0292 -1.26499,0.651 l -5.4502,-3.893 c -0.13959,-0.0997 -0.13959,-0.3071 0,-0.4068 z"
       fill="#ffffff"
       id="path4" />
  </g>
</svg>
