<?xml version="1.0" encoding="UTF-8"?>
<svg width="512" height="512" fill="none" version="1.1" viewBox="0 0 512 512" xmlns="http://www.w3.org/2000/svg">
 <path d="m361.17 280.31c-13.339 0-23.845-0.17464-34.299 1.2317-10.453 1.4053-22.426 5.4195-31.173 14.164-8.7449 8.7449-12.759 20.718-14.164 31.173-1.4053 10.453-1.2317 20.959-1.2317 34.299v113.17h48.51v-113.17c0-13.339 0.13826-22.897 0.80527-27.854 0.66653-4.9582 0.83607-3.7731 0.37911-3.3161-0.45697 0.45696-1.6421 0.28766 3.3161-0.37911 4.9582-0.66652 14.516-0.80526 27.854-0.80526h113.17v-48.51zm-226.4-266.8c-22.868 0-40.511-0.15572-56.468 1.9897-15.958 2.1455-31.784 7.6233-43.489 19.328-11.705 11.705-17.183 27.532-19.328 43.489-2.1455 15.958-1.9897 33.6-1.9897 56.468v242.55c0 22.868-0.15572 40.511 1.9897 56.468 2.1455 15.958 7.6236 31.784 19.328 43.489 11.705 11.705 27.532 17.183 43.489 19.328 15.958 2.1456 33.6 1.9896 56.468 1.9896h173.95c9.913 0 18.283 0.58212 28.614-3.695 10.335-4.2812 15.824-10.613 22.834-17.623l117.11-117.11c7.0097-7.0097 13.341-12.499 17.623-22.834 4.2771-10.33 3.695-18.7 3.695-28.614v-173.95c0-22.868 0.15523-40.511-1.9896-56.468-2.1456-15.958-7.6231-31.784-19.328-43.489-11.705-11.705-27.532-17.183-43.489-19.328-15.958-2.1455-33.6-1.9897-56.468-1.9897zm0 48.51h242.55c22.868 0 39.516 0.15669 49.977 1.5633 10.461 1.4066 13.177 3.0389 15.68 5.5428 2.5036 2.5034 4.136 5.2185 5.5428 15.68 1.4066 10.462 1.5632 27.11 1.5632 49.977v173.95c0 9.913-0.58552 11.457 0 10.043 0.58964-1.4233-0.097 0.097-7.106 7.106l-117.11 117.11c-7.0097 7.0097-8.5293 7.6956-7.106 7.106 1.4143-0.58552-0.13098 0-10.043 0h-173.95c-22.868 0-39.516-0.15766-49.977-1.5632-10.462-1.4066-13.177-3.0392-15.68-5.5428-2.5035-2.5039-4.1359-5.2183-5.5427-15.68-1.4066-10.462-1.5633-27.11-1.5633-49.977v-242.55c0-22.868 0.1567-39.516 1.5633-49.977 1.4066-10.462 3.0392-13.177 5.5428-15.68 2.5034-2.5034 5.2182-4.136 15.68-5.5428 10.462-1.4066 27.11-1.5633 49.977-1.5633z" fill="#fff" stroke-width="24.255" style="-inkscape-stroke:none"/>
</svg>
