<?xml version="1.0" encoding="UTF-8"?>
<svg width="512" height="512" fill="none" version="1.1" viewBox="0 0 512 512" xmlns="http://www.w3.org/2000/svg">
 <path d="m99.088 42.029c-46.931 0-85.588 38.657-85.588 85.588v285.29c0 46.932 38.657 85.588 85.588 85.588h285.29c46.931 0 85.588-38.657 85.588-85.588v-114.12a28.529 28.529 0 0 0-28.529-28.529 28.529 28.529 0 0 0-28.529 28.529v114.12c0 16.096-12.433 28.529-28.529 28.529h-285.29c-16.095 0-28.529-12.434-28.529-28.529v-285.29c0-16.094 12.435-28.529 28.529-28.529h114.12a28.529 28.529 0 0 0 28.529-28.529 28.529 28.529 0 0 0-28.529-28.529zm199.71-28.529v57.059h103.24l-180.42 179.48 40.24 40.451 179.59-178.65v101.37h57.059v-199.65h-28.529v-0.058594z" color="#000000" fill="#fff" stroke-linecap="round"/>
</svg>
