<?xml version="1.0" encoding="UTF-8"?>
<svg width="512" height="512" fill="none" version="1.1" viewBox="0 0 512 512" xmlns="http://www.w3.org/2000/svg">
 <path d="m148.31 40.518c-25.42 0-45.025-0.17009-62.764 2.2148-17.739 2.3849-35.346 8.4652-48.357 21.477-13.011 13.011-19.092 30.619-21.477 48.357-2.3849 17.739-2.2148 37.342-2.2148 62.762v161.77c0 25.42-0.17009 45.023 2.2148 62.762s8.4655 35.346 21.477 48.357c13.011 13.012 30.619 19.092 48.357 21.477 17.739 2.385 37.343 2.2148 62.764 2.2148h215.7c25.42 0 45.023 0.17014 62.762-2.2148 17.739-2.385 35.346-8.4654 48.357-21.477 13.011-13.011 19.092-30.619 21.477-48.357s2.2148-37.342 2.2148-62.762v-80.887c0-25.42 0.17013-45.023-2.2148-62.762-2.385-17.739-8.4649-35.348-21.477-48.359-13.011-13.011-30.619-19.09-48.357-21.475-17.739-2.3849-37.342-2.2148-62.762-2.2148h-36.213c-22.042 0-29.277-0.65374-32.654-2.0527l-2e-3 -2e-3c-3.3808-1.4002-8.9557-6.0526-24.541-21.637l-2e-3 -2e-3 -17.707-17.709h-2e-3c-15.586-15.585-25.595-26.519-42.035-33.328-16.439-6.8094-31.247-6.1562-53.289-6.1562zm0 53.924h9.252c22.042 0 29.274 0.65266 32.654 2.0527 3.3801 1.4 8.9536 6.0524 24.541 21.639l17.709 17.709v2e-3c15.586 15.585 25.598 26.519 42.039 33.328 16.439 6.8094 31.249 6.1562 53.289 6.1562h36.213c25.42 0 43.946 0.17077 55.576 1.7344s14.629 3.379 17.412 6.1621c2.7828 2.7827 4.6004 5.7822 6.1641 17.412 1.5636 11.63 1.7344 30.158 1.7344 55.578v80.887c0 25.42-0.17075 43.946-1.7344 55.576-1.5636 11.63-3.3808 14.629-6.1641 17.412-2.7832 2.7832-5.7823 4.6004-17.412 6.1641s-30.156 1.7344-55.576 1.7344h-215.7c-25.42 0-43.948-0.17074-55.578-1.7344-11.63-1.5636-14.629-3.3811-17.412-6.1641-2.7832-2.7832-4.6005-5.7823-6.1641-17.412-1.5636-11.63-1.7324-30.156-1.7324-55.576v-161.77c0-25.42 0.16881-43.948 1.7324-55.578 1.5636-11.63 3.3812-14.629 6.1641-17.412 2.7828-2.7828 5.7822-4.5985 17.412-6.1621 11.63-1.5636 30.158-1.7344 55.578-1.7344z" color="#000000" fill="#fff" style="-inkscape-stroke:none"/>
</svg>
