<?xml version="1.0" encoding="UTF-8" standalone="no"?>
<svg
   width="512"
   height="512"
   viewBox="0 0 512 512"
   fill="none"
   version="1.1"
   id="svg4"
   sodipodi:docname="open.svg"
   inkscape:version="1.2.1 (9c6d41e410, 2022-07-14)"
   xmlns:inkscape="http://www.inkscape.org/namespaces/inkscape"
   xmlns:sodipodi="http://sodipodi.sourceforge.net/DTD/sodipodi-0.dtd"
   xmlns="http://www.w3.org/2000/svg"
   xmlns:svg="http://www.w3.org/2000/svg">
  <defs
     id="defs8" />
  <sodipodi:namedview
     id="namedview6"
     pagecolor="#ffffff"
     bordercolor="#666666"
     borderopacity="1.0"
     inkscape:showpageshadow="2"
     inkscape:pageopacity="0.0"
     inkscape:pagecheckerboard="0"
     inkscape:deskcolor="#d1d1d1"
     showgrid="false"
     inkscape:zoom="1.1341146"
     inkscape:cx="292.73938"
     inkscape:cy="323.60046"
     inkscape:window-width="1920"
     inkscape:window-height="1051"
     inkscape:window-x="0"
     inkscape:window-y="0"
     inkscape:window-maximized="1"
     inkscape:current-layer="svg4" />
  <path
     d="m 40.464857,175.3279 c 0,-50.84048 0,-76.260722 15.794193,-92.054646 C 72.052974,67.479061 97.473216,67.479061 148.3137,67.479061 h 9.25209 c 22.0416,0 33.06241,0 42.9721,4.104727 9.91023,4.104727 17.70231,11.897615 33.28916,27.48339 l 17.70878,17.710402 c 15.58686,15.58577 23.37893,23.37866 33.29024,27.48338 9.90862,4.10473 20.93077,4.10473 42.97237,4.10473 h 36.21295 c 50.83994,0 76.25992,0 92.05438,15.79419 15.79446,15.79393 15.79446,41.21471 15.79446,92.05465 v 80.88664 c 0,50.83994 0,76.25991 -15.79446,92.05438 -15.79446,15.79446 -41.21444,15.79446 -92.05438,15.79446 H 148.3137 c -50.840484,0 -76.260726,0 -92.05465,-15.79446 C 40.464857,413.36108 40.464857,387.94111 40.464857,337.10117 Z"
     stroke="#ffffff"
     stroke-width="53.9244"
     id="path2" />
</svg>
