<?xml version="1.0" encoding="UTF-8"?>
<svg width="512" height="512" fill="none" version="1.1" viewBox="0 0 512 512" xmlns="http://www.w3.org/2000/svg">
 <g fill="#fff">
  <path d="m189.83 79.75v44.084h88.166v264.5h-88.166v44.082h220.42v-44.082h-88.166v-264.5h88.166v-44.084h-110.21z" color="#000000" style="-inkscape-stroke:none"/>
  <path d="m35.542 322.21h-22.042v22.042h22.042zm0 22.042h198.37v-44.083h-198.37zm198.37-176.33h-154.29v44.083h154.29zm-220.42 66.125v88.167h44.083v-88.167zm66.125-66.125c-36.52 0-66.125 29.605-66.125 66.125h44.083c0-12.174 9.8685-22.042 22.042-22.042z" stroke-width="22.042"/>
  <path d="m476.37 189.96h22.042v-22.042h-22.042zm0-22.042h-110.21v44.083h110.21zm-110.21 176.33h66.125v-44.083h-66.125zm132.25-66.125v-88.167h-44.083v88.167zm-66.125 66.125c36.521 0 66.125-29.604 66.125-66.125h-44.083c0 12.174-9.868 22.042-22.042 22.042z" stroke-width="22.042"/>
 </g>
</svg>
