<?xml version="1.0" encoding="UTF-8" standalone="no"?>
<svg
   width="512"
   height="512"
   viewBox="0 0 512 512"
   fill="none"
   version="1.1"
   id="svg8"
   sodipodi:docname="rename.svg"
   inkscape:version="1.2.1 (9c6d41e410, 2022-07-14)"
   xmlns:inkscape="http://www.inkscape.org/namespaces/inkscape"
   xmlns:sodipodi="http://sodipodi.sourceforge.net/DTD/sodipodi-0.dtd"
   xmlns="http://www.w3.org/2000/svg"
   xmlns:svg="http://www.w3.org/2000/svg">
  <defs
     id="defs12" />
  <sodipodi:namedview
     id="namedview10"
     pagecolor="#ffffff"
     bordercolor="#666666"
     borderopacity="1.0"
     inkscape:showpageshadow="2"
     inkscape:pageopacity="0.0"
     inkscape:pagecheckerboard="0"
     inkscape:deskcolor="#d1d1d1"
     showgrid="false"
     inkscape:zoom="1.1341146"
     inkscape:cx="339.47187"
     inkscape:cy="189.5752"
     inkscape:window-width="1920"
     inkscape:window-height="1051"
     inkscape:window-x="0"
     inkscape:window-y="0"
     inkscape:window-maximized="1"
     inkscape:current-layer="svg8" />
  <g
     id="g244"
     transform="matrix(22.041645,0,0,22.041645,-8.541645,-8.41658)">
    <path
       d="m 9,5 h 5 m 0,0 h 5 m -5,0 v 14 m -5,0 h 5 m 0,0 h 5"
       stroke="#ffffff"
       stroke-width="2"
       id="path2" />
    <path
       d="M 2,15 H 1 v 1 h 1 z m 0,1 h 9 V 14 H 2 Z M 11,8 H 4 v 2 h 7 z M 1,11 v 4 H 3 V 11 Z M 4,8 C 2.34315,8 1,9.34315 1,11 h 2 c 0,-0.5523 0.44772,-1 1,-1 z"
       fill="#ffffff"
       id="path4" />
    <path
       d="m 22,9 h 1 V 8 h -1 z m 0,-1 h -5 v 2 h 5 z m -5,8 h 3 v -2 h -3 z m 6,-3 V 9 h -2 v 4 z m -3,3 c 1.6569,0 3,-1.3431 3,-3 h -2 c 0,0.5523 -0.4477,1 -1,1 z"
       fill="#ffffff"
       id="path6" />
  </g>
</svg>
