<?xml version="1.0" encoding="UTF-8" standalone="no"?>
<svg
   width="512"
   height="512"
   viewBox="0 0 512 512"
   fill="none"
   version="1.1"
   id="svg6"
   sodipodi:docname="reset.svg"
   inkscape:version="1.2.1 (9c6d41e410, 2022-07-14)"
   xmlns:inkscape="http://www.inkscape.org/namespaces/inkscape"
   xmlns:sodipodi="http://sodipodi.sourceforge.net/DTD/sodipodi-0.dtd"
   xmlns="http://www.w3.org/2000/svg"
   xmlns:svg="http://www.w3.org/2000/svg">
  <defs
     id="defs10" />
  <sodipodi:namedview
     id="namedview8"
     pagecolor="#ffffff"
     bordercolor="#666666"
     borderopacity="1.0"
     inkscape:showpageshadow="2"
     inkscape:pageopacity="0"
     inkscape:pagecheckerboard="true"
     inkscape:deskcolor="#d1d1d1"
     showgrid="false"
     inkscape:zoom="1.1341146"
     inkscape:cx="300.67508"
     inkscape:cy="179.876"
     inkscape:window-width="1920"
     inkscape:window-height="1051"
     inkscape:window-x="0"
     inkscape:window-y="0"
     inkscape:window-maximized="1"
     inkscape:current-layer="svg6"
     showborder="true" />
  <g
     id="g397"
     transform="matrix(23.162724,8.8185949,-8.789871,23.238416,127.69958,-128.34143)">
    <path
       d="m 6.6337778,17.427242 -0.431471,0.902125 0.9021145,0.431474 0.4314744,-0.902115 z m -5.5346541,-1.538695 5.1031831,2.44082 0.8629453,-1.804239 -5.1031799,-2.44081 z m 6.436772,1.970179 2.4408072,-5.103189 -1.8042292,-0.862948 -2.4408106,5.103179 z"
       fill="#ffffff"
       id="path2" />
    <path
       d="M 5.93782,15.5 C 5.16735,14.1655 4.85875,12.6141 5.05989,11.0863 5.26102,9.55856 5.96064,8.13986 7.05025,7.05025 8.13986,5.96064 9.55856,5.26102 11.0863,5.05989 12.6141,4.85875 14.1655,5.16735 15.5,5.93782 c 1.3345,0.77047 2.3775,1.95975 2.9672,3.3834 0.5896,1.42368 0.6931,3.00208 0.2943,4.49048 -0.3988,1.4885 -1.2777,2.8037 -2.5002,3.7418 C 15.0388,18.4915 13.5409,19 12,19"
       stroke="#ffffff"
       stroke-width="2"
       stroke-linecap="round"
       id="path4"
       inkscape:label="path4"
       style="display:inline" />
  </g>
</svg>
