<?xml version="1.0" encoding="UTF-8" standalone="no"?>
<svg
   width="512"
   height="512"
   viewBox="0 0 512 512"
   fill="none"
   version="1.1"
   id="svg436"
   sodipodi:docname="sort.svg"
   inkscape:version="1.2.1 (9c6d41e410, 2022-07-14)"
   xmlns:inkscape="http://www.inkscape.org/namespaces/inkscape"
   xmlns:sodipodi="http://sodipodi.sourceforge.net/DTD/sodipodi-0.dtd"
   xmlns="http://www.w3.org/2000/svg"
   xmlns:svg="http://www.w3.org/2000/svg">
  <defs
     id="defs440" />
  <sodipodi:namedview
     id="namedview438"
     pagecolor="#ffffff"
     bordercolor="#666666"
     borderopacity="1.0"
     inkscape:showpageshadow="2"
     inkscape:pageopacity="0.0"
     inkscape:pagecheckerboard="0"
     inkscape:deskcolor="#d1d1d1"
     showgrid="false"
     inkscape:zoom="0.80194011"
     inkscape:cx="402.77322"
     inkscape:cy="367.85789"
     inkscape:window-width="1920"
     inkscape:window-height="1051"
     inkscape:window-x="0"
     inkscape:window-y="0"
     inkscape:window-maximized="1"
     inkscape:current-layer="svg436" />
  <g
     id="g577"
     transform="matrix(24.732407,0,0,24.732407,-37.594596,-40.928546)">
    <g
       id="g562"
       transform="translate(13.28357)">
      <path
         d="m 4,8 v 8 H 6 V 8 Z"
         fill="#ffffff"
         id="path424" />
      <path
         d="M 5.20801,2.31202 8.17083,6.75624 C 8.52526,7.28788 8.14414,8 7.50519,8 H 2.49481 C 1.85586,8 1.47474,7.28788 1.82917,6.75624 L 4.79199,2.31202 c 0.09895,-0.14843 0.31707,-0.14843 0.41602,0 z"
         fill="#ffffff"
         id="path426" />
      <path
         d="M 5.20801,21.688 8.17083,17.2438 C 8.52526,16.7121 8.14414,16 7.50519,16 H 2.49481 c -0.63895,0 -1.02007,0.7121 -0.66564,1.2438 l 2.96282,4.4442 c 0.09895,0.1484 0.31707,0.1484 0.41602,0 z"
         fill="#ffffff"
         id="path428" />
    </g>
    <g
       id="g567"
       transform="translate(-7.44891)">
      <path
         d="m 11,7 h 8"
         stroke="#ffffff"
         stroke-width="2"
         stroke-linecap="round"
         id="path430" />
      <path
         d="m 11,12 h 8"
         stroke="#ffffff"
         stroke-width="2"
         stroke-linecap="round"
         id="path432" />
      <path
         d="m 11,17 h 8"
         stroke="#ffffff"
         stroke-width="2"
         stroke-linecap="round"
         id="path434" />
    </g>
  </g>
</svg>
