<?xml version="1.0" encoding="UTF-8"?>
<svg width="512" height="512" version="1.1" viewBox="0 0 512 512" xmlns="http://www.w3.org/2000/svg" xmlns:cc="http://creativecommons.org/ns#" xmlns:dc="http://purl.org/dc/elements/1.1/" xmlns:rdf="http://www.w3.org/1999/02/22-rdf-syntax-ns#">
 <!-- Generator: Sketch 3.2.2 (9983) - http://www.bohemiancoding.com/sketch -->
 <title>ic_cast_black_24dp</title>
 <desc>Created with Sketch.</desc>
 <path d="m21.333 384v64h64c0-35.413-28.587-64-64-64zm0-85.333v42.667c58.88 0 106.67 47.787 106.67 106.67h42.667c0-82.56-66.773-149.33-149.33-149.33zm0-85.333v42.667c106.03 0 192 85.973 192 192h42.667c0-129.71-105.17-234.67-234.67-234.67zm426.67-149.33h-384c-23.467 0-42.667 19.2-42.667 42.667v64h42.667v-64h384v298.67h-149.33v42.667h149.33c23.467 0 42.667-19.2 42.667-42.667v-298.67c0-23.467-19.2-42.667-42.667-42.667z" fill="#fff" fill-rule="evenodd"/>
 <rect width="512" height="512" fill="none"/>
 <metadata>
  <rdf:RDF>
   <cc:Work rdf:about="">
    <dc:title>ic_cast_black_24dp</dc:title>
   </cc:Work>
  </rdf:RDF>
 </metadata>
</svg>
