<?xml version="1.0" encoding="UTF-8" standalone="no"?>
<svg
   width="512"
   height="512"
   viewBox="0 0 512 512"
   fill="none"
   version="1.1"
   id="svg1137"
   sodipodi:docname="wallpaper.svg"
   inkscape:version="1.2.1 (9c6d41e410, 2022-07-14)"
   xmlns:inkscape="http://www.inkscape.org/namespaces/inkscape"
   xmlns:sodipodi="http://sodipodi.sourceforge.net/DTD/sodipodi-0.dtd"
   xmlns="http://www.w3.org/2000/svg"
   xmlns:svg="http://www.w3.org/2000/svg">
  <defs
     id="defs1141" />
  <sodipodi:namedview
     id="namedview1139"
     pagecolor="#ffffff"
     bordercolor="#666666"
     borderopacity="1.0"
     inkscape:showpageshadow="2"
     inkscape:pageopacity="0.0"
     inkscape:pagecheckerboard="0"
     inkscape:deskcolor="#d1d1d1"
     showgrid="false"
     inkscape:zoom="1.6038802"
     inkscape:cx="216.97381"
     inkscape:cy="277.45214"
     inkscape:window-width="1920"
     inkscape:window-height="1051"
     inkscape:window-x="0"
     inkscape:window-y="0"
     inkscape:window-maximized="1"
     inkscape:current-layer="svg1137" />
  <g
     id="g1263"
     transform="matrix(24.256024,0,0,24.256024,-35.011244,-35.011244)">
    <path
       d="M 3,11 C 3,7.22876 3,5.34315 4.17157,4.17157 5.34315,3 7.22876,3 11,3 h 2 c 3.7712,0 5.6569,0 6.8284,1.17157 C 21,5.34315 21,7.22876 21,11 v 2 c 0,3.7712 0,5.6569 -1.1716,6.8284 C 18.6569,21 16.7712,21 13,21 H 11 C 7.22876,21 5.34315,21 4.17157,19.8284 3,18.6569 3,16.7712 3,13 Z"
       stroke="#ffffff"
       stroke-width="2"
       id="path1131" />
    <path
       fill-rule="evenodd"
       clip-rule="evenodd"
       d="m 18.9997,13.5854 -0.0203,-0.0203 c -0.3896,-0.3897 -0.7257,-0.7258 -1.0258,-0.9787 -0.3169,-0.2671 -0.6619,-0.5019 -1.0871,-0.6302 -0.5651,-0.1705 -1.1679,-0.1705 -1.733,0 -0.4252,0.1283 -0.7702,0.3631 -1.0871,0.6302 -0.3001,0.2529 -0.6362,0.589 -1.0258,0.9787 l -0.0285,0.0285 c -0.3069,0.3068 -0.4875,0.4859 -0.6276,0.6018 l -0.0202,0.0164 -0.0126,-0.0227 c -0.087,-0.1596 -0.1882,-0.393 -0.3591,-0.7919 l -0.0535,-0.1246 -0.022,-0.0515 -10e-5,-10e-5 C 11.5411,12.3904 11.2422,11.693 10.9464,11.1673 10.6416,10.6257 10.2618,10.1178 9.66982,9.82106 9.17604,9.57352 8.6235,9.46711 8.07311,9.51356 7.41323,9.56924 6.87197,9.89977 6.38783,10.2894 5.98249,10.6157 5.52754,11.0598 5,11.5859 v 1.414 c 0,0.5167 3e-4,0.9849 0.00308,1.4111 L 6.117,13.2971 c 0.68915,-0.6892 1.14939,-1.1474 1.52486,-1.4496 0.3709,-0.2986 0.53047,-0.3352 0.59942,-0.341 0.18347,-0.0155 0.36765,0.02 0.53224,0.1025 0.06187,0.031 0.19642,0.1243 0.42992,0.5392 0.23637,0.42 0.49349,1.0164 0.87746,1.9123 l 0.0534,0.1246 0.0163,0.0381 c 0.1489,0.3475 0.2872,0.6704 0.4253,0.9236 0.1447,0.2652 0.3549,0.5831 0.7088,0.8021 0.4173,0.2583 0.915,0.3542 1.3984,0.2693 0.4099,-0.0719 0.7231,-0.289 0.956,-0.4815 0.2222,-0.1838 0.4705,-0.4322 0.7378,-0.6996 h 1e-4 l 0.0293,-0.0293 c 0.4262,-0.4262 0.702,-0.7008 0.929,-0.8921 0.2173,-0.1832 0.3199,-0.2279 0.3759,-0.2448 0.1883,-0.0568 0.3893,-0.0568 0.5776,0 0.056,0.0169 0.1586,0.0616 0.3759,0.2448 0.227,0.1913 0.5028,0.4659 0.929,0.8921 l 1.3504,1.3504 c 0.0461,-0.7178 0.0542,-1.6103 0.0556,-2.7728 z"
       fill="#ffffff"
       id="path1133" />
    <circle
       cx="16.5"
       cy="7.5"
       r="1.5"
       fill="#ffffff"
       id="circle1135" />
  </g>
</svg>
