<?xml version="1.0" encoding="UTF-8"?>
<svg width="512" height="512" fill="none" version="1.1" viewBox="0 0 512 512" xmlns="http://www.w3.org/2000/svg">
 <path d="m401.6 146.91a36.384 36.384 0 0 1-36.384 36.384 36.384 36.384 0 0 1-36.384-36.384 36.384 36.384 0 0 1 36.384-36.384 36.384 36.384 0 0 1 36.384 36.384zm24.249 147.61-0.4924-0.49239c-9.4502-9.4526-17.603-17.605-24.882-23.739-7.6867-6.4788-16.055-12.174-26.369-15.286-13.707-4.1356-28.329-4.1356-42.036 0-10.314 3.112-18.682 8.8074-26.369 15.286-7.2792 6.1343-15.432 14.287-24.882 23.739l-0.69129 0.69129c-7.4442 7.4418-11.825 11.786-15.223 14.597l-0.48997 0.3978-0.30562-0.55061c-2.1103-3.8713-4.565-9.5326-8.7103-19.208l-1.2977-3.0223-0.53363-1.2492-2e-3 -2e-3c-8.6327-20.147-15.883-37.063-23.058-49.815-7.3932-13.137-16.606-25.457-30.965-32.654-11.977-6.0043-25.38-8.5854-38.73-7.4587-16.006 1.3506-29.135 9.3679-40.878 18.819-9.8319 7.9147-20.867 18.687-33.663 31.448v34.298c0 12.533 0.0073 23.89 0.07471 34.228l27.019-27.019c16.716-16.717 27.88-27.831 36.987-35.162 8.9966-7.2428 12.867-8.1306 14.54-8.2713 4.4502-0.37597 8.9177 0.48512 12.91 2.4862 1.5007 0.75194 4.7644 3.015 10.428 13.079 5.7334 10.188 11.97 24.654 21.284 46.385l1.2953 3.0223 0.39537 0.92416c3.6117 8.429 6.9663 16.261 10.316 22.403 3.5098 6.4327 8.6085 14.144 17.193 19.456 10.122 6.2653 22.194 8.5915 33.92 6.5321 9.9426-1.744 17.54-7.01 23.189-11.679 5.3897-4.4583 11.412-10.483 17.896-16.97h2e-3l0.7107-0.7107c10.338-10.338 17.028-16.999 22.534-21.639 5.2708-4.4437 7.7595-5.5279 9.1178-5.9379 4.5674-1.3777 9.4429-1.3777 14.01 0 1.3583 0.40993 3.847 1.4942 9.1178 5.9379 5.5061 4.6402 12.196 11.301 22.534 21.639l32.755 32.755c1.1182-17.411 1.3147-39.059 1.3486-67.257zm-194.04-281.02c-45.738 0-80.525-0.1521-109.69 3.7695-29.169 3.9216-54.278 12.944-73.088 31.754-18.81 18.81-27.832 43.919-31.754 73.088-3.9216 29.169-3.7695 63.956-3.7695 109.69v48.512c0 45.737-0.1521 80.526 3.7695 109.7 3.9216 29.168 12.944 54.277 31.754 73.086 18.81 18.81 43.919 27.834 73.088 31.756 29.169 3.9217 63.956 3.7676 109.69 3.7676h48.512c45.737 0 80.526 0.15417 109.7-3.7676 29.168-3.9216 54.277-12.945 73.086-31.754v-2e-3c18.81-18.809 27.834-43.917 31.756-73.086 3.9217-29.169 3.7676-63.958 3.7676-109.7v-48.512c0-45.738 0.15417-80.524-3.7676-109.69-3.9218-29.169-12.946-54.278-31.756-73.088-18.809-18.81-43.918-27.832-73.086-31.754-29.169-3.9216-63.958-3.7695-109.7-3.7695zm0 48.514h48.512c45.737 0 79.557 0.15317 103.23 3.3359 23.673 3.1828 35.641 8.3692 45.248 17.977 9.6083 9.6082 14.796 21.577 17.979 45.25 3.1828 23.673 3.3359 57.491 3.3359 103.23v48.512c0 45.737-0.15309 79.557-3.3359 103.23-3.1828 23.673-8.3689 35.641-17.977 45.248h-2e-3v2e-3c-9.6068 9.6076-21.575 14.794-45.248 17.977-23.673 3.1828-57.493 3.3359-103.23 3.3359h-48.512c-45.738 0-79.555-0.1531-103.23-3.3359-23.673-3.1829-35.642-8.3702-45.25-17.979-9.6073-9.6068-14.794-21.575-17.977-45.248-3.1828-23.673-3.3359-57.493-3.3359-103.23v-48.512c0-45.738 0.15317-79.555 3.3359-103.23 3.1828-23.673 8.3685-35.642 17.977-45.25 9.6081-9.608 21.577-14.794 45.25-17.977 23.673-3.1828 57.491-3.3359 103.23-3.3359z" fill="#fff" stroke-width="24.256"/>
</svg>
