<?xml version="1.0" encoding="UTF-8"?>
<svg width="512" height="512" version="1.1" viewBox="0 0 512 512" xmlns="http://www.w3.org/2000/svg" xmlns:cc="http://creativecommons.org/ns#" xmlns:dc="http://purl.org/dc/elements/1.1/" xmlns:rdf="http://www.w3.org/1999/02/22-rdf-syntax-ns#">
 <!-- Generator: Sketch 3.2.2 (9983) - http://www.bohemiancoding.com/sketch -->
 <title>ic_cast_black_24dp</title>
 <desc>Created with Sketch.</desc>
 <rect x="21.585" y="80.71" width="450.12" height="366.99" rx="22.051" stroke-miterlimit="0" stroke-opacity="0" style="paint-order:fill markers stroke"/>
 <g transform="scale(21.333)">
  <g fill="none" fill-rule="evenodd">
   <g id="ic_cast_black_24dp">
    <g id="ic_remove_circle_white_24dp">
     <path id="cast" d="m1 18v3h3c0-1.66-1.34-3-3-3zm0-4v2c2.76 0 5 2.24 5 5h2c0-3.87-3.13-7-7-7zm0-4v2c4.97 0 9 4.03 9 9h2c0-6.08-4.93-11-11-11zm20-7h-18c-1.1 0-2 0.9-2 2v3h2v-3h18v14h-7v2h7c1.1 0 2-0.9 2-2v-14c0-1.1-0.9-2-2-2z" fill="#005aff"/>
     <rect id="bounds" width="24" height="24"/>
    </g>
   </g>
   <g id="assets" transform="translate(-208,-106)"></g>
  </g>
 </g>
 <metadata>
  <rdf:RDF>
   <cc:Work rdf:about="">
    <dc:title>ic_cast_black_24dp</dc:title>
   </cc:Work>
  </rdf:RDF>
 </metadata>
</svg>
