<?xml version="1.0" encoding="UTF-8" standalone="no"?>
<svg
   width="512"
   height="512"
   viewBox="0 0 512 512"
   fill="none"
   version="1.1"
   id="svg13836"
   sodipodi:docname="close.svg"
   inkscape:version="1.2.1 (9c6d41e410, 2022-07-14)"
   xmlns:inkscape="http://www.inkscape.org/namespaces/inkscape"
   xmlns:sodipodi="http://sodipodi.sourceforge.net/DTD/sodipodi-0.dtd"
   xmlns="http://www.w3.org/2000/svg"
   xmlns:svg="http://www.w3.org/2000/svg">
  <defs
     id="defs13840" />
  <sodipodi:namedview
     id="namedview13838"
     pagecolor="#ffffff"
     bordercolor="#666666"
     borderopacity="1.0"
     inkscape:showpageshadow="2"
     inkscape:pageopacity="0.0"
     inkscape:pagecheckerboard="true"
     inkscape:deskcolor="#d1d1d1"
     showgrid="false"
     inkscape:zoom="1.1341146"
     inkscape:cx="322.71871"
     inkscape:cy="365.92422"
     inkscape:window-width="1920"
     inkscape:window-height="1051"
     inkscape:window-x="0"
     inkscape:window-y="0"
     inkscape:window-maximized="1"
     inkscape:current-layer="svg13836" />
  <path
     fill-rule="evenodd"
     clip-rule="evenodd"
     d="m 473.17506,256.01446 c 0,119.93539 -97.22521,217.1606 -217.1606,217.1606 -119.9344,0 -217.160582,-97.22521 -217.160582,-217.1606 0,-119.9344 97.226182,-217.160582 217.160582,-217.160582 119.93539,0 217.1606,97.226182 217.1606,217.160582 z M 148.02517,363.60435 c -9.42285,-9.42235 -9.42285,-24.70082 0,-34.12316 l 73.86613,-73.46673 -75.06363,-75.06314 c -9.42284,-9.42309 -9.42284,-24.70058 0,-34.12365 9.42307,-9.42284 24.70056,-9.42284 34.12365,0 l 75.06314,75.06363 73.06756,-74.66446 c 9.42234,-9.42285 24.70082,-9.42285 34.12315,0 9.42238,9.42308 9.42238,24.70057 0,34.12364 l -73.06753,74.66398 74.0914,75.50269 c 9.42236,9.42233 9.42236,24.70081 0,34.12315 -9.42236,9.42237 -24.70083,9.42237 -34.12317,0 l -74.09141,-75.50266 -73.86564,73.46671 c -9.42307,9.42236 -24.70056,9.42236 -34.12365,0 z"
     fill="#ffffff"
     id="path13834"
     style="fill:#ffffff;fill-opacity:1;stroke:#000000;stroke-width:4.52701;stroke-dasharray:none;stroke-opacity:1"
     inkscape:label="path13834"
     sodipodi:nodetypes="sssssccccccccccccscccc" />
</svg>
