<svg width="128" height="128" viewBox="0 0 128 128" fill="none" xmlns="http://www.w3.org/2000/svg">
<rect y="97" width="127" height="17" rx="4" fill="#E1A52C"/>
<path fill-rule="evenodd" clip-rule="evenodd" d="M9 14C4.02944 14 0 18.0294 0 23V42H39C45.8233 42 51.649 38.2627 53.9494 33H114.174C114.06 33.4815 114 33.9837 114 34.5C114 38.0899 116.91 41 120.5 41C124.09 41 127 38.0899 127 34.5C127 30.9101 124.09 28 120.5 28C120.332 28 120.165 28.0064 120 28.0189V28H55C55 20.268 47.8366 14 39 14H9Z" fill="#FBBC1A"/>
<path fill-rule="evenodd" clip-rule="evenodd" d="M40 37H4C1.79086 37 0 38.7909 0 41V107C0 109.209 1.79086 111 4 111H123C125.209 111 127 109.209 127 107V74V37V35C127 32.7909 125.209 31 123 31H53.4166C50.1207 34.6825 45.331 37 40 37Z" fill="url(#paint0_linear_130_233)"/>
<defs>
<linearGradient id="paint0_linear_130_233" x1="63.5" y1="31" x2="63.5" y2="111" gradientUnits="userSpaceOnUse">
<stop stop-color="#FFDC7A"/>
<stop offset="1" stop-color="#FFCC41"/>
</linearGradient>
</defs>
</svg>
