<?xml version="1.0" encoding="UTF-8" standalone="no"?>
<svg
   width="700"
   height="700"
   viewBox="0 0 700 700"
   fill="none"
   version="1.1"
   id="svg23"
   sodipodi:docname="logo_full.svg"
   inkscape:version="1.3.2 (091e20ef0f, 2023-11-25, custom)"
   xmlns:inkscape="http://www.inkscape.org/namespaces/inkscape"
   xmlns:sodipodi="http://sodipodi.sourceforge.net/DTD/sodipodi-0.dtd"
   xmlns="http://www.w3.org/2000/svg"
   xmlns:svg="http://www.w3.org/2000/svg">
  <sodipodi:namedview
     id="namedview23"
     pagecolor="#ffffff"
     bordercolor="#000000"
     borderopacity="0.25"
     inkscape:showpageshadow="2"
     inkscape:pageopacity="0.0"
     inkscape:pagecheckerboard="true"
     inkscape:deskcolor="#d1d1d1"
     inkscape:zoom="0.29733728"
     inkscape:cx="338"
     inkscape:cy="534.74627"
     inkscape:window-width="1920"
     inkscape:window-height="1052"
     inkscape:window-x="0"
     inkscape:window-y="0"
     inkscape:window-maximized="1"
     inkscape:current-layer="svg23" />
  <path
     d="m 134.8391,520.59859 v -71.5225 h 33.7141 c 5.31759,0 9.86336,0.99079 13.63865,2.96292 3.78476,1.97348 6.65848,4.79719 8.63061,8.48192 1.97213,3.67392 2.96428,8.03991 2.96428,13.07635 0,5.10672 -1.04216,9.55246 -3.11432,13.33722 -2.08297,3.78611 -5.02697,6.68956 -8.84147,8.73198 -3.81585,2.04242 -8.3116,3.06431 -13.48726,3.06431 h -17.77351 l 0.10003,21.8678 z m 15.84057,-35.55647 h 14.82004 c 3.88479,0 6.85853,-0.90023 8.9415,-2.7034 2.07215,-1.80182 3.11431,-4.68499 3.11431,-8.6306 0,-4.01591 -1.04216,-6.85853 -3.11431,-8.53194 -2.08297,-1.67205 -5.05671,-2.50334 -8.9415,-2.50334 h -14.82004 z"
     fill="#1988ff"
     id="path1"
     style="stroke-width:1.3517" />
  <path
     d="m 203.80959,520.59859 v -75.39783 l 15.42966,-3.27382 v 30.23889 l 1.43145,-0.82049 c 2.31411,-1.22193 4.68634,-2.19381 7.10048,-2.91426 2.41278,-0.711 4.81611,-1.0719 7.19915,-1.0719 4.22542,0 7.67901,0.80156 10.37295,2.40332 2.69394,1.60177 4.69581,3.74556 6.02858,6.43815 1.33143,2.69394 1.99241,5.73797 1.99241,9.1429 v 35.24558 h -15.43101 v -31.37026 c 0,-2.58445 -0.65017,-4.57685 -1.94239,-5.97857 -1.29088,-1.39225 -3.54416,-2.09243 -6.73823,-2.09243 -1.22193,0 -2.4236,0.17032 -3.57524,0.51095 -1.16111,0.34062 -2.35196,0.75019 -3.5739,1.22058 l -2.86425,1.22194 v 36.47833 h -15.42966 z"
     fill="#1988ff"
     id="path2"
     style="stroke-width:1.3517" />
  <path
     d="m 290.45222,521.52045 c -5.58658,0 -10.40404,-1.14219 -14.45914,-3.42521 -4.0551,-2.28302 -7.18834,-5.46627 -9.40243,-9.55246 -2.21273,-4.08484 -3.32383,-8.79146 -3.32383,-14.09823 0,-5.44735 1.14219,-10.20264 3.42521,-14.24827 2.28167,-4.0551 5.47709,-7.19916 9.60248,-9.45244 4.11457,-2.25329 8.90094,-3.37385 14.35776,-3.37385 5.58793,0 10.40403,1.14084 14.45913,3.42386 4.0551,2.28302 7.16942,5.44735 9.35242,9.50245 2.18299,4.0551 3.27381,8.77118 3.27381,14.14825 0,5.31758 -1.14083,10.01339 -3.42385,14.09823 -2.28302,4.08619 -5.46763,7.26944 -9.55247,9.55246 -4.09565,2.28302 -8.86174,3.42521 -14.30909,3.42521 z m 0.10002,-12.97767 c 2.38305,0 4.42547,-0.52987 6.12861,-1.58149 1.70179,-1.05162 3.03321,-2.64393 3.98481,-4.75663 0.9516,-2.11271 1.43145,-4.69581 1.43145,-7.76011 0,-3.13324 -0.45958,-5.75689 -1.38144,-7.8696 -0.9205,-2.11271 -2.233,-3.67527 -3.93479,-4.69581 -1.7018,-1.02188 -3.78477,-1.53283 -6.22864,-1.53283 -2.38305,0 -4.46602,0.51095 -6.22728,1.53283 -1.77343,1.02054 -3.13459,2.59256 -4.08619,4.69581 -0.9516,2.11271 -1.43145,4.73636 -1.43145,7.8696 0,3.0643 0.47985,5.65821 1.43145,7.76011 0.9516,2.1127 2.31276,3.69554 4.08619,4.75663 1.76126,1.05162 3.84423,1.58149 6.22728,1.58149 z"
     fill="#1988ff"
     id="path3"
     style="stroke-width:1.3517" />
  <path
     d="m 350.32036,521.42042 c -5.31623,0 -9.41188,-1.17192 -12.31534,-3.52523 -2.89399,-2.35331 -4.34571,-6.17727 -4.34571,-11.49486 v -25.33221 h -11.02447 v -10.21344 l 11.03393,-2.65339 v -11.85576 l 15.42966,-4.08619 v 15.94195 h 15.73108 v 12.87629 h -15.84057 v 20.53638 c 0,2.31276 0.42038,4.0551 1.28141,5.20675 0.85157,1.16246 2.77369,1.74234 5.77717,1.74234 0.8813,0 1.77207,-0.0297 2.65338,-0.10002 0.88131,-0.0703 1.80317,-0.17032 2.75342,-0.30954 l 2.86425,-0.31089 1.53147,10.9339 -2.35195,0.61097 c -2.183,0.55014 -4.42682,1.02188 -6.73958,1.43145 -2.31276,0.39064 -4.46602,0.6015 -6.43815,0.6015 z"
     fill="#1988ff"
     id="path4"
     style="stroke-width:1.3517" />
  <path
     d="m 397.52173,521.52045 c -5.58658,0 -10.40268,-1.14219 -14.45914,-3.42521 -4.0551,-2.28302 -7.18834,-5.46627 -9.40107,-9.55246 -2.21409,-4.08484 -3.32518,-8.79146 -3.32518,-14.09823 0,-5.44735 1.14218,-10.20264 3.42521,-14.24827 2.28302,-4.0551 5.47708,-7.19916 9.60247,-9.45244 4.12539,-2.25329 8.90095,-3.37385 14.35776,-3.37385 5.58793,0 10.40404,1.14084 14.45914,3.42386 4.0551,2.28302 7.16941,5.44735 9.35241,9.50245 2.18299,4.0551 3.27382,8.77118 3.27382,14.14825 0,5.31758 -1.14084,10.01339 -3.42386,14.09823 -2.28302,4.08619 -5.46763,7.26944 -9.55246,9.55246 -4.08619,2.28302 -8.86175,3.42521 -14.3091,3.42521 z m 0.10002,-12.97767 c 2.38305,0 4.42547,-0.52987 6.12861,-1.58149 1.70179,-1.05162 3.03322,-2.64393 3.98481,-4.75663 0.9516,-2.11271 1.43146,-4.69581 1.43146,-7.76011 0,-3.13324 -0.45958,-5.75689 -1.38144,-7.8696 -0.92051,-2.11271 -2.23301,-3.67527 -3.9348,-4.69581 -1.70179,-1.02188 -3.78476,-1.53283 -6.22864,-1.53283 -2.38304,0 -4.46601,0.51095 -6.22728,1.53283 -1.77343,1.02054 -3.13459,2.59256 -4.08619,4.69581 -0.95024,2.11271 -1.43145,4.73636 -1.43145,7.8696 0,3.0643 0.48121,5.65821 1.43145,7.76011 0.9516,2.1127 2.31276,3.69554 4.08619,4.75663 1.77208,1.05162 3.84424,1.58149 6.22728,1.58149 z"
     fill="#1988ff"
     id="path5"
     style="stroke-width:1.3517" />
  <path
     d="m 510.72931,504.14705 c 3.06431,-5.51629 4.59578,-11.95444 4.59578,-19.31444 0,-7.36001 -1.50174,-13.77788 -4.49575,-19.25497 -2.99402,-5.47709 -7.23971,-9.77279 -12.7168,-12.87765 -5.48655,-3.09404 -12.00444,-4.64579 -19.5645,-4.64579 -7.28972,0 -13.68867,1.53283 -19.20496,4.59578 -5.51764,3.0643 -9.8228,7.33973 -12.92766,12.82763 -3.1035,5.48655 -4.64579,11.90443 -4.64579,19.25497 0,7.34919 1.50174,13.79816 4.49576,19.31444 2.99401,5.51764 7.24916,9.82281 12.7668,12.92766 5.51764,3.10351 12.01526,4.6458 19.51585,4.6458 7.28972,0 13.70759,-1.53283 19.25497,-4.59578 0.98133,-0.54068 1.91265,-1.13138 2.81288,-1.75316 l 6.53953,6.14888 7.96962,-8.071 -6.38813,-6.0475 c 0.70153,-1.01107 1.38143,-2.05323 1.9924,-3.15487 z m -32.18127,2.76423 c -4.22542,0 -7.87095,-0.80156 -10.93526,-2.40333 -3.06295,-1.60176 -5.42707,-4.03482 -7.09912,-7.29918 -1.67206,-3.27517 -2.50335,-7.38974 -2.50335,-12.3667 0,-4.96615 0.85157,-9.09154 2.55336,-12.36535 1.70314,-3.27517 4.10646,-5.70823 7.2005,-7.31 3.09405,-1.60176 6.68822,-2.40332 10.78387,-2.40332 4.22541,0 7.8696,0.80156 10.9339,2.40332 3.0643,1.60177 5.42708,4.0159 7.09913,7.25998 1.67205,3.23327 2.50335,7.33838 2.50335,12.30588 0,4.49576 -0.70154,8.31025 -2.10325,11.43403 l -12.4059,-11.74492 -8.17103,8.071 12.8371,12.06528 c -3.04403,1.57202 -6.599,2.35331 -10.6933,2.35331 z"
     fill="#40dba4"
     id="path6"
     style="stroke-width:1.3517" />
  <path
     d="m 548.83914,521.42042 c -5.31623,0 -9.4227,-1.17192 -12.30587,-3.52523 -2.89399,-2.35331 -4.34572,-6.17727 -4.34572,-11.49486 v -25.33221 h -11.03393 v -10.21344 l 11.03393,-2.65339 v -11.85576 l 15.42966,-4.08619 v 15.94195 h 15.73108 v 12.87629 h -15.84057 v 20.53638 c 0,2.31276 0.42038,4.0551 1.28141,5.20675 0.85157,1.16246 2.77369,1.74234 5.76771,1.74234 0.8813,0 1.77207,-0.0297 2.65338,-0.10002 0.88131,-0.0703 1.80182,-0.17032 2.75342,-0.30954 l 2.86425,-0.31089 1.53147,10.9339 -2.35331,0.61097 c -2.18299,0.55014 -4.42546,1.02188 -6.73822,1.43145 -2.31276,0.39064 -4.45655,0.6015 -6.42869,0.6015 z"
     fill="#40dba4"
     id="path7"
     style="stroke-width:1.3517" />
  <path
     d="m 133.728,556.32538 c 0,-1.34089 0.34063,-2.31276 1.02188,-2.91292 0.67991,-0.6015 1.52202,-0.90158 2.53309,-0.90158 0.94078,0 1.76262,0.30008 2.4628,0.90158 0.70153,0.60016 1.06108,1.57203 1.06108,2.91292 0,1.32196 -0.35009,2.29383 -1.06108,2.91426 -0.70018,0.63124 -1.52202,0.94078 -2.4628,0.94078 -1.00161,0 -1.85318,-0.30954 -2.53309,-0.94078 -0.68125,-0.62043 -1.02188,-1.5923 -1.02188,-2.91426 z m 6.50844,46.78098 h -6.03805 v -36.82707 h 6.03805 z"
     fill="white"
     id="path8"
     style="fill:#1988ff;fill-opacity:1;stroke-width:1.3517" />
  <path
     d="m 199.10297,603.10636 v -23.71017 c 0,-5.81771 -2.49253,-8.72117 -7.47895,-8.72117 -3.42521,0 -5.93802,0.9908 -7.5506,2.98321 -1.61123,1.9924 -2.41278,5.02697 -2.41278,9.12262 v 20.32551 h -6.00831 v -23.71017 c 0,-2.90345 -0.61097,-5.08645 -1.83155,-6.53817 -1.22194,-1.45308 -3.12514,-2.183 -5.7177,-2.183 -3.39411,0 -5.888,1.04081 -7.46003,3.11297 -1.57203,2.08297 -2.36277,5.4879 -2.36277,10.23372 v 19.08465 h -6.03804 v -36.82707 h 4.87693 l 0.90023,5.02563 h 0.33117 c 1.05027,-1.79236 2.53308,-3.18326 4.44574,-4.19433 1.91266,-1.01242 4.0551,-1.51255 6.41787,-1.51255 5.76771,0 9.52273,2.05323 11.26507,6.16781 h 0.32981 c 1.18139,-1.96267 2.80343,-3.48469 4.8472,-4.56605 2.04242,-1.07054 4.36464,-1.61122 6.95855,-1.61122 4.15513,0 7.26945,1.07054 9.3416,3.21299 2.0627,2.14379 3.10486,5.57846 3.10486,10.29454 v 23.98052 h -5.9583 z"
     fill="white"
     id="path9"
     style="fill:#1988ff;fill-opacity:1;stroke-width:1.3517" />
  <path
     d="m 239.5553,603.10636 -1.17057,-5.22702 h -0.27034 c -1.83291,2.3033 -3.66446,3.86586 -5.4879,4.67688 -1.8221,0.81102 -4.11458,1.22194 -6.88827,1.22194 -3.62526,0 -6.45842,-0.9516 -8.52111,-2.85479 -2.05324,-1.90184 -3.08458,-4.58497 -3.08458,-8.04938 0,-7.47084 5.888,-11.38537 17.67347,-11.73546 l 6.2381,-0.23114 v -2.18299 c 0,-2.79262 -0.60151,-4.85531 -1.81263,-6.18809 -1.21112,-1.33142 -3.14405,-1.9924 -5.79744,-1.9924 -1.94239,0 -3.78476,0.29061 -5.51764,0.87184 -1.73153,0.57988 -3.36438,1.2314 -4.87558,1.9424 l -1.84237,-4.52549 c 1.85183,-0.98134 3.87532,-1.75316 6.06778,-2.31411 2.19246,-0.55961 4.35518,-0.84076 6.50844,-0.84076 4.44574,0 7.76011,0.98133 9.92283,2.95346 2.17218,1.96267 3.25489,5.09726 3.25489,9.39297 v 25.08214 z m -12.43564,-4.19432 c 3.37384,0 6.02858,-0.9124 7.96016,-2.73449 1.93293,-1.82209 2.90345,-4.40519 2.90345,-7.76011 v -3.32383 l -5.43653,0.22979 c -4.22542,0.16085 -7.31,0.83129 -9.24158,2.01268 -1.93293,1.18138 -2.9048,3.05349 -2.9048,5.59739 0,1.92212 0.59204,3.39412 1.76262,4.42546 1.18138,1.04217 2.8237,1.55311 4.95668,1.55311 z"
     fill="white"
     id="path10"
     style="fill:#1988ff;fill-opacity:1;stroke-width:1.3517" />
  <path
     d="m 280.27932,602.77655 0.20005,-4.52685 h -0.27034 c -2.48307,3.68609 -6.28811,5.53792 -11.40429,5.53792 -4.76745,0 -8.48192,-1.66259 -11.15558,-4.97696 -2.67366,-3.32383 -4.00509,-7.99936 -4.00509,-14.0374 0,-5.92856 1.3517,-10.59463 4.04564,-14.01849 2.69394,-3.4252 6.37867,-5.12699 11.0542,-5.12699 4.98642,0 8.83201,1.85318 11.53541,5.56765 h 0.37037 l 0.80155,-4.89721 h 4.79584 v 37.42993 c 0,5.27568 -1.33143,9.24157 -4.00509,11.90442 -2.67366,2.6642 -6.82879,3.99562 -12.45727,3.99562 -5.36625,0 -9.78225,-0.78128 -13.24666,-2.34249 v -5.56766 c 3.57525,1.92212 8.10074,2.88318 13.57783,2.88318 3.13459,0 5.60685,-0.92051 7.43029,-2.75341 1.82209,-1.83156 2.73314,-4.37546 2.73314,-7.61007 z m -10.56354,-3.92534 c 3.71448,0 6.40841,-1.00161 8.10074,-3.00348 1.69098,-2.00322 2.53309,-5.21756 2.53309,-9.64302 v -1.44227 c 0,-4.91613 -0.85157,-8.50084 -2.55336,-10.73385 -1.70314,-2.23301 -4.43628,-3.35357 -8.22104,-3.35357 -3.08458,0 -5.47709,1.22059 -7.15996,3.67392 -1.69233,2.45334 -2.53308,5.93802 -2.53308,10.48379 0,4.55658 0.82183,8.04126 2.46415,10.43377 1.65177,2.38305 4.10511,3.58471 7.36946,3.58471 z"
     fill="white"
     id="path11"
     style="fill:#1988ff;fill-opacity:1;stroke-width:1.3517" />
  <path
     d="m 313.96369,603.77816 c -5.52846,0 -9.8539,-1.67206 -12.99795,-5.01751 -3.14406,-3.34411 -4.71608,-7.93989 -4.71608,-13.79681 0,-5.90828 1.46254,-10.60408 4.39573,-14.09958 2.93454,-3.49414 6.88961,-5.24595 11.87603,-5.24595 4.62552,0 8.32107,1.49093 11.06367,4.47548 2.75341,2.9832 4.12539,7.02884 4.12539,12.1261 v 3.655 h -25.22273 c 0.11084,4.18486 1.17193,7.35866 3.18461,9.52138 2.01268,2.17353 4.86612,3.25489 8.55085,3.25489 1.96267,0 3.83478,-0.17031 5.59739,-0.5204 1.76262,-0.35145 3.83478,-1.02189 6.20836,-2.03296 v 5.29731 c -2.03296,0.8705 -3.94561,1.49093 -5.73797,1.84237 -1.78154,0.35955 -3.89424,0.54068 -6.3273,0.54068 z m -1.51256,-33.23425 c -2.88317,0 -5.16619,0.93132 -6.8396,2.7845 -1.67205,1.85183 -2.67231,4.43493 -2.9832,7.7493 h 18.74402 c -0.0392,-3.44413 -0.84075,-6.05697 -2.38304,-7.84933 -1.54229,-1.79235 -3.72394,-2.68447 -6.53818,-2.68447 z"
     fill="white"
     id="path12"
     style="fill:#1988ff;fill-opacity:1;stroke-width:1.3517" />
  <path
     d="m 363.67786,603.10636 -13.94819,-36.82707 h 6.46788 l 7.81013,21.69749 c 1.54229,4.35653 2.52362,7.61008 2.95481,9.76333 h 0.27034 c 0.0703,-0.29061 0.15004,-0.62178 0.25007,-0.99214 0.10002,-0.37037 0.22033,-0.77047 0.35009,-1.21113 0.13111,-0.44065 0.96106,-2.95346 2.48307,-7.56006 l 7.85068,-21.69749 h 6.43814 l -13.98739,36.82707 z"
     fill="white"
     id="path13"
     style="fill:#1988ff;fill-opacity:1;stroke-width:1.3517" />
  <path
     d="m 393.06653,556.32538 c 0,-1.34089 0.34062,-2.31276 1.02053,-2.91292 0.68126,-0.6015 1.52201,-0.90158 2.53309,-0.90158 0.94213,0 1.76261,0.30008 2.46414,0.90158 0.70019,0.60016 1.06109,1.57203 1.06109,2.91292 0,1.32196 -0.35009,2.29383 -1.06109,2.91426 -0.70153,0.63124 -1.52201,0.94078 -2.46414,0.94078 -1.00026,0 -1.85183,-0.30954 -2.53309,-0.94078 -0.67991,-0.62043 -1.02053,-1.5923 -1.02053,-2.91426 z m 6.50843,46.78098 h -6.03804 v -36.82707 h 6.03804 z"
     fill="white"
     id="path14"
     style="fill:#1988ff;fill-opacity:1;stroke-width:1.3517" />
  <path
     d="m 427.25102,603.77816 c -5.5271,0 -9.85254,-1.67206 -12.9966,-5.01751 -3.1454,-3.34411 -4.71608,-7.93989 -4.71608,-13.79681 0,-5.90828 1.46119,-10.60408 4.39438,-14.09958 2.92508,-3.49414 6.88961,-5.24595 11.87604,-5.24595 4.62551,0 8.32106,1.49093 11.06501,4.47548 2.75342,2.9832 4.12539,7.02884 4.12539,12.1261 v 3.655 h -25.22272 c 0.10949,4.18486 1.17057,7.35866 3.18325,9.52138 2.01268,2.17353 4.86612,3.25489 8.55086,3.25489 1.96267,0 3.83612,-0.17031 5.59739,-0.5204 1.76261,-0.35145 3.83612,-1.02189 6.20836,-2.03296 v 5.29731 c -2.03296,0.8705 -3.94562,1.49093 -5.73797,1.84237 -1.78154,0.35955 -3.89425,0.54068 -6.32731,0.54068 z m -1.51255,-33.23425 c -2.88318,0 -5.1662,0.93132 -6.83825,2.7845 -1.67206,1.85183 -2.67367,4.43493 -2.98456,7.7493 h 18.74538 c -0.0405,-3.44413 -0.84211,-6.05697 -2.3844,-7.84933 -1.54094,-1.79235 -3.72393,-2.68447 -6.53817,-2.68447 z"
     fill="white"
     id="path15"
     style="fill:#1988ff;fill-opacity:1;stroke-width:1.3517" />
  <path
     d="m 481.44203,603.10636 -6.30839,-20.72697 c -0.58123,-1.72206 -1.4328,-4.9756 -2.5439,-9.76197 h -0.27034 c -0.94078,4.35517 -1.76261,7.63981 -2.48307,9.8228 l -6.60846,20.65668 h -6.8396 l -10.09315,-36.82842 h 6.2381 c 2.32357,9.05234 4.09565,15.9406 5.31759,20.65668 1.22193,4.71608 1.94239,8.05073 2.16272,9.99312 h 0.27034 l 0.47039,-2.08162 c 0.69072,-3.19542 1.36251,-5.79879 2.01268,-7.81012 l 6.53817,-20.75806 h 6.57873 l 6.33812,20.75806 c 0.22033,0.77993 0.46093,1.61123 0.72181,2.502 0.25952,0.8813 0.50013,1.75315 0.72045,2.61418 0.22033,0.86104 0.42038,1.70179 0.60151,2.51281 0.17978,0.82184 0.30954,1.55176 0.4001,2.19381 h 0.30008 c 0.20005,-1.70314 1.02189,-5.34732 2.44387,-10.93525 l 5.1662,-19.65507 h 6.16781 l -10.23372,36.82842 h -7.06804 z"
     fill="white"
     id="path16"
     style="fill:#1988ff;fill-opacity:1;stroke-width:1.3517" />
  <path
     d="m 521.35368,603.77816 c -5.52711,0 -9.85255,-1.67206 -12.9966,-5.01751 -3.14405,-3.34411 -4.71608,-7.93989 -4.71608,-13.79681 0,-5.90828 1.46119,-10.60408 4.39573,-14.09958 2.92372,-3.49414 6.88826,-5.24595 11.87468,-5.24595 4.62552,0 8.32107,1.49093 11.06502,4.47548 2.75341,2.9832 4.12539,7.02884 4.12539,12.1261 v 3.655 h -25.22273 c 0.10949,4.18486 1.17058,7.35866 3.18326,9.52138 2.01268,2.17353 4.86612,3.25489 8.55085,3.25489 1.96267,0 3.83613,-0.17031 5.59739,-0.5204 1.76262,-0.35145 3.83613,-1.02189 6.20836,-2.03296 v 5.29731 c -2.03296,0.8705 -3.94426,1.49093 -5.73661,1.84237 -1.77344,0.35955 -3.88614,0.54068 -6.32866,0.54068 z m -1.51256,-33.23425 c -2.88317,0 -5.16619,0.93132 -6.83825,2.7845 -1.67205,1.85183 -2.67366,4.43493 -2.98455,7.7493 h 18.74538 c -0.0406,-3.44413 -0.84211,-6.05697 -2.38305,-7.84933 -1.53283,-1.79235 -3.71583,-2.68447 -6.53953,-2.68447 z"
     fill="white"
     id="path17"
     style="fill:#1988ff;fill-opacity:1;stroke-width:1.3517" />
  <path
     d="m 561.94658,565.6075 c 1.6315,0 3.07377,0.13111 4.32544,0.40145 l -0.74073,5.56631 c -1.36251,-0.30954 -2.69394,-0.4704 -3.99563,-0.4704 -1.94239,0 -3.75502,0.54068 -5.41626,1.61258 -1.66259,1.0719 -2.96428,2.55336 -3.90506,4.44574 -0.94214,1.89238 -1.41253,3.98482 -1.41253,6.28811 v 19.65507 h -6.03804 v -36.82707 h 4.96615 l 0.67179,6.73823 h 0.27034 c 1.41117,-2.43306 3.07377,-4.28489 4.99588,-5.53656 1.92347,-1.24222 4.0159,-1.87346 6.27865,-1.87346 z"
     fill="white"
     id="path18"
     style="fill:#1988ff;fill-opacity:1;stroke-width:1.3517" />
  <rect
     x="214.83"
     y="80.371498"
     width="258.17471"
     height="258.17471"
     rx="43.254402"
     fill="url(#paint0_linear_947_194)"
     id="rect18"
     style="fill:url(#paint0_linear_947_194);stroke-width:1.3517" />
  <path
     d="m 263.92645,174.67151 c 7.31135,-5.44194 16.43938,-8.73063 26.23109,-8.73063 4.08079,0 8.03451,0.56231 11.78413,1.60582 l 42.95838,-34.40347 v -23.21004 z"
     fill="#40dba4"
     id="path19"
     style="stroke-width:1.3517" />
  <path
     d="m 425.87364,174.67151 c -7.31135,-5.44194 -16.43938,-8.73063 -26.23109,-8.73063 -4.08079,0 -8.03451,0.56231 -11.78412,1.60582 l -42.95838,-34.40347 v -23.21004 z"
     fill="#ffffff"
     id="path20"
     style="stroke-width:1.3517" />
  <path
     d="m 443.44304,209.73461 c 0,-24.19002 -19.61047,-43.79373 -43.79509,-43.79373 -24.18867,0 -43.79373,19.60911 -43.79373,43.79373 0,20.10248 13.54674,37.04604 32.00961,42.19332 l -42.96378,34.39941 v 23.20869 l 83.27148,-66.51581 -0.027,-0.0324 c 9.36323,-8.02909 15.29855,-19.94703 15.29855,-33.25317 z m -69.34492,0 c 0,-14.08742 11.46242,-25.54983 25.54983,-25.54983 14.08742,0 25.55119,11.46241 25.55119,25.54983 0,14.08742 -11.46377,25.54983 -25.55119,25.54983 -14.08741,0 -25.54983,-11.46241 -25.54983,-25.54983 z"
     fill="#40dba4"
     id="path21"
     style="stroke-width:1.3517" />
  <path
     d="m 301.94167,251.92793 c 18.46287,-5.14728 32.00961,-22.08543 32.00961,-42.19332 0,-24.19002 -19.60912,-43.79373 -43.79374,-43.79373 -24.19002,0 -43.79508,19.60911 -43.79508,43.79373 0,13.30614 5.93532,25.22408 15.29854,33.25317 l -0.027,0.0324 83.26608,66.52122 v -23.20865 z m -11.78953,-67.73775 c 14.08742,0 25.54983,11.46242 25.54983,25.54984 0,14.08741 -11.46241,25.54983 -25.54983,25.54983 -14.08742,0 -25.55119,-11.46242 -25.55119,-25.54983 0,-14.08742 11.46377,-25.54984 25.55119,-25.54984 z"
     fill="#ffffff"
     id="path22"
     style="stroke-width:1.3517" />
  <defs
     id="defs23">
    <linearGradient
       id="paint0_linear_947_194"
       x1="355.5"
       y1="166"
       x2="355.5"
       y2="357"
       gradientUnits="userSpaceOnUse"
       gradientTransform="matrix(1.3517001,0,0,1.3517001,-136.61201,-144.0107)">
      <stop
         stop-color="#1988FF"
         id="stop22" />
      <stop
         offset="1"
         stop-color="#003B7A"
         id="stop23" />
    </linearGradient>
  </defs>
</svg>
