<?xml version="1.0" encoding="UTF-8"?>
<svg width="320" height="320" version="1.1" viewBox="0 0 320 320" xmlns="http://www.w3.org/2000/svg">
 <path d="m46.069 111.53c10.112-7.5263 22.734-12.075 36.276-12.075 5.6447 0 11.112 0.7779 16.297 2.2224l59.41-47.58v-32.098z" fill="#40dba4"/>
 <path d="m270.04 111.53c-10.112-7.5263-22.735-12.075-36.276-12.075-5.645 0-11.112 0.7779-16.297 2.2224l-59.41-47.58v-32.098z" fill="#003b7a"/>
 <path d="m294.33 160.02c0-33.453-27.12-60.566-60.566-60.566-33.453 0-60.565 27.12-60.565 60.566 0 27.801 18.734 51.232 44.268 58.351l-59.417 47.573v32.097l115.16-91.989-0.037-0.044c12.948-11.105 21.156-27.587 21.156-45.988zm-95.901 0c0-19.482 15.853-35.335 35.335-35.335 19.483 0 35.335 15.853 35.335 35.335 0 19.483-15.852 35.335-35.335 35.335-19.482 0-35.335-15.852-35.335-35.335z" fill="#40dba4"/>
 <path d="m98.642 218.37c25.534-7.119 44.268-30.542 44.268-58.351 0-33.453-27.119-60.566-60.565-60.566-33.453 0-60.566 27.12-60.566 60.566 0 18.401 8.2078 34.883 21.156 45.988l-0.037 0.044 115.15 91.997v-32.098zm-16.304-93.678c19.483 0 35.335 15.852 35.335 35.335 0 19.482-15.852 35.335-35.335 35.335-19.482 0-35.335-15.853-35.335-35.335 0-19.483 15.853-35.335 35.335-35.335z" fill="#003b7a"/>
</svg>
