<?xml version="1.0" encoding="UTF-8"?>
<svg width="100" height="104" fill="none" version="1.1" viewBox="0 0 100 104" xmlns="http://www.w3.org/2000/svg">
 <path d="m100 51.997c0-6.929-3.0084-13.143-7.758-17.322 0.0685-0.0234-42.249-34.657-42.238-34.674l-34.412 28.226-7.838 6.4307s0.01142 0.0118 0.01142 0.0176c-0.02854 0.041-0.09134 0.0762-0.12559 0.1173-4.213 3.7693-7.0273 9.1448-7.5468 15.194-0.68503 7.4624 2.4433 14.813 7.6724 19.345-0.05138 0.0235 42.906 35.225 42.244 34.662 6.6505-5.4397 36.998-30.365 42.238-34.65 4.6982-4.1621 7.8033-10.599 7.7466-17.34l0.0057-0.0058zm-23.068 13.283c-6.7076-0.422-12.085-6.2607-12.114-13.16 0.4624-17.17 24.159-18.114 25.894-0.9907 0.5252 7.9314-5.9541 14.69-13.781 14.151zm-53.855-26.567c6.7077 0.4221 12.085 6.2607 12.114 13.16-0.4624 17.17-24.159 18.114-25.894 0.9907-0.52519-7.9314 5.954-14.69 13.781-14.151zm5.1321 35.266c21.681-6.6066 21.47-37.506 0-43.96 2.9285-2.421 19.244-15.816 21.796-17.926l21.796 17.926c-8.0834 2.3155-14.306 9.2094-15.859 17.786-2.2492 11.584 5.1435 23.278 15.859 26.18-2.9286 2.4211-19.244 15.816-21.796 17.926l-21.796-17.926v-0.0058z" fill="#fff"/>
</svg>
