<?xml version="1.0" encoding="UTF-8"?>
<svg width="700" height="700" fill="none" version="1.1" viewBox="0 0 700 700" xmlns="http://www.w3.org/2000/svg">
 <g fill="#fff" stroke-width="3.1414">
  <path d="m164.1 269.15c16.992-12.647 38.205-20.29 60.961-20.29 9.4838 0 18.672 1.3068 27.386 3.7319l99.836-79.954v-53.94z"/>
  <path d="m540.47 269.15c-16.992-12.647-38.205-20.29-60.961-20.29-9.4838 0-18.672 1.3068-27.386 3.7319l-99.836-79.954v-53.94z"/>
  <path d="m581.3 350.64c0-56.218-45.575-101.78-101.78-101.78-56.215 0-101.78 45.572-101.78 101.78 0 46.718 31.483 86.095 74.391 98.058l-99.848 79.945v53.937l193.52-154.58-0.0628-0.0753c21.76-18.66 35.554-46.357 35.554-77.281zm-161.16 0c0-32.739 26.639-59.378 59.378-59.378 32.739 0 59.381 26.639 59.381 59.378 0 32.739-26.642 59.378-59.381 59.378-32.739 0-59.378-26.639-59.378-59.378z"/>
  <path d="m252.45 448.7c42.908-11.962 74.391-51.327 74.391-98.058 0-56.218-45.572-101.78-101.78-101.78-56.218 0-101.78 45.572-101.78 101.78 0 30.924 13.794 58.621 35.554 77.281l-0.0628 0.0753 193.51 154.6v-53.937zm-27.399-157.42c32.739 0 59.378 26.639 59.378 59.378 0 32.739-26.639 59.378-59.378 59.378-32.739 0-59.381-26.639-59.381-59.378 0-32.739 26.642-59.378 59.381-59.378z"/>
 </g>
</svg>
