<?xml version="1.0" encoding="UTF-8"?>
<svg width="700" height="700" fill="none" version="1.1" viewBox="0 0 700 700" xmlns="http://www.w3.org/2000/svg">
 <g fill="#1988ff" stroke-width="1.3517">
  <path d="m134.84 520.6v-71.522h33.714c5.3176 0 9.8634 0.99079 13.639 2.9629 3.7848 1.9735 6.6585 4.7972 8.6306 8.4819 1.9721 3.6739 2.9643 8.0399 2.9643 13.076 0 5.1067-1.0422 9.5525-3.1143 13.337-2.083 3.7861-5.027 6.6896-8.8415 8.732-3.8158 2.0424-8.3116 3.0643-13.487 3.0643h-17.774l0.10003 21.868zm15.841-35.556h14.82c3.8848 0 6.8585-0.90023 8.9415-2.7034 2.0722-1.8018 3.1143-4.685 3.1143-8.6306 0-4.0159-1.0422-6.8585-3.1143-8.5319-2.083-1.672-5.0567-2.5033-8.9415-2.5033h-14.82z"/>
  <path d="m203.81 520.6v-75.398l15.43-3.2738v30.239l1.4314-0.82049c2.3141-1.2219 4.6863-2.1938 7.1005-2.9143 2.4128-0.711 4.8161-1.0719 7.1992-1.0719 4.2254 0 7.679 0.80156 10.373 2.4033 2.6939 1.6018 4.6958 3.7456 6.0286 6.4382 1.3314 2.6939 1.9924 5.738 1.9924 9.1429v35.246h-15.431v-31.37c0-2.5844-0.65017-4.5768-1.9424-5.9786-1.2909-1.3922-3.5442-2.0924-6.7382-2.0924-1.2219 0-2.4236 0.17032-3.5752 0.51095-1.1611 0.34062-2.352 0.75019-3.5739 1.2206l-2.8642 1.2219v36.478h-15.43z"/>
  <path d="m290.45 521.52c-5.5866 0-10.404-1.1422-14.459-3.4252s-7.1883-5.4663-9.4024-9.5525c-2.2127-4.0848-3.3238-8.7915-3.3238-14.098 0-5.4474 1.1422-10.203 3.4252-14.248 2.2817-4.0551 5.4771-7.1992 9.6025-9.4524 4.1146-2.2533 8.9009-3.3738 14.358-3.3738 5.5879 0 10.404 1.1408 14.459 3.4239s7.1694 5.4474 9.3524 9.5024c2.183 4.0551 3.2738 8.7712 3.2738 14.148 0 5.3176-1.1408 10.013-3.4238 14.098-2.283 4.0862-5.4676 7.2694-9.5525 9.5525-4.0956 2.283-8.8617 3.4252-14.309 3.4252zm0.10002-12.978c2.383 0 4.4255-0.52987 6.1286-1.5815 1.7018-1.0516 3.0332-2.6439 3.9848-4.7566 0.9516-2.1127 1.4314-4.6958 1.4314-7.7601 0-3.1332-0.45958-5.7569-1.3814-7.8696-0.9205-2.1127-2.233-3.6753-3.9348-4.6958-1.7018-1.0219-3.7848-1.5328-6.2286-1.5328-2.383 0-4.466 0.51095-6.2273 1.5328-1.7734 1.0205-3.1346 2.5926-4.0862 4.6958-0.9516 2.1127-1.4314 4.7364-1.4314 7.8696 0 3.0643 0.47985 5.6582 1.4314 7.7601 0.9516 2.1127 2.3128 3.6955 4.0862 4.7566 1.7613 1.0516 3.8442 1.5815 6.2273 1.5815z"/>
  <path d="m350.32 521.42c-5.3162 0-9.4119-1.1719-12.315-3.5252-2.894-2.3533-4.3457-6.1773-4.3457-11.495v-25.332h-11.024v-10.213l11.034-2.6534v-11.856l15.43-4.0862v15.942h15.731v12.876h-15.841v20.536c0 2.3128 0.42038 4.0551 1.2814 5.2068 0.85157 1.1625 2.7737 1.7423 5.7772 1.7423 0.8813 0 1.7721-0.0297 2.6534-0.10002 0.88131-0.0703 1.8032-0.17032 2.7534-0.30954l2.8642-0.31089 1.5315 10.934-2.352 0.61097c-2.183 0.55014-4.4268 1.0219-6.7396 1.4314-2.3128 0.39064-4.466 0.6015-6.4382 0.6015z"/>
  <path d="m397.52 521.52c-5.5866 0-10.403-1.1422-14.459-3.4252-4.0551-2.283-7.1883-5.4663-9.4011-9.5525-2.2141-4.0848-3.3252-8.7915-3.3252-14.098 0-5.4474 1.1422-10.203 3.4252-14.248 2.283-4.0551 5.4771-7.1992 9.6025-9.4524 4.1254-2.2533 8.901-3.3738 14.358-3.3738 5.5879 0 10.404 1.1408 14.459 3.4239s7.1694 5.4474 9.3524 9.5024c2.183 4.0551 3.2738 8.7712 3.2738 14.148 0 5.3176-1.1408 10.013-3.4239 14.098-2.283 4.0862-5.4676 7.2694-9.5525 9.5525-4.0862 2.283-8.8618 3.4252-14.309 3.4252zm0.10002-12.978c2.383 0 4.4255-0.52987 6.1286-1.5815 1.7018-1.0516 3.0332-2.6439 3.9848-4.7566 0.9516-2.1127 1.4315-4.6958 1.4315-7.7601 0-3.1332-0.45958-5.7569-1.3814-7.8696-0.92051-2.1127-2.233-3.6753-3.9348-4.6958-1.7018-1.0219-3.7848-1.5328-6.2286-1.5328-2.383 0-4.466 0.51095-6.2273 1.5328-1.7734 1.0205-3.1346 2.5926-4.0862 4.6958-0.95024 2.1127-1.4314 4.7364-1.4314 7.8696 0 3.0643 0.48121 5.6582 1.4314 7.7601 0.9516 2.1127 2.3128 3.6955 4.0862 4.7566 1.7721 1.0516 3.8442 1.5815 6.2273 1.5815z"/>
 </g>
 <path d="m510.73 504.15c3.0643-5.5163 4.5958-11.954 4.5958-19.314 0-7.36-1.5017-13.778-4.4958-19.255-2.994-5.4771-7.2397-9.7728-12.717-12.878-5.4866-3.094-12.004-4.6458-19.564-4.6458-7.2897 0-13.689 1.5328-19.205 4.5958-5.5176 3.0643-9.8228 7.3397-12.928 12.828-3.1035 5.4866-4.6458 11.904-4.6458 19.255 0 7.3492 1.5017 13.798 4.4958 19.314 2.994 5.5176 7.2492 9.8228 12.767 12.928 5.5176 3.1035 12.015 4.6458 19.516 4.6458 7.2897 0 13.708-1.5328 19.255-4.5958 0.98133-0.54068 1.9126-1.1314 2.8129-1.7532l6.5395 6.1489 7.9696-8.071-6.3881-6.0475c0.70153-1.0111 1.3814-2.0532 1.9924-3.1549zm-32.181 2.7642c-4.2254 0-7.871-0.80156-10.935-2.4033-3.063-1.6018-5.4271-4.0348-7.0991-7.2992-1.6721-3.2752-2.5034-7.3897-2.5034-12.367 0-4.9662 0.85157-9.0915 2.5534-12.365 1.7031-3.2752 4.1065-5.7082 7.2005-7.31 3.094-1.6018 6.6882-2.4033 10.784-2.4033 4.2254 0 7.8696 0.80156 10.934 2.4033 3.0643 1.6018 5.4271 4.0159 7.0991 7.26 1.672 3.2333 2.5034 7.3384 2.5034 12.306 0 4.4958-0.70154 8.3102-2.1032 11.434l-12.406-11.745-8.171 8.071 12.837 12.065c-3.044 1.572-6.599 2.3533-10.693 2.3533z" fill="#40dba4" stroke-width="1.3517"/>
 <path d="m548.84 521.42c-5.3162 0-9.4227-1.1719-12.306-3.5252-2.894-2.3533-4.3457-6.1773-4.3457-11.495v-25.332h-11.034v-10.213l11.034-2.6534v-11.856l15.43-4.0862v15.942h15.731v12.876h-15.841v20.536c0 2.3128 0.42038 4.0551 1.2814 5.2068 0.85157 1.1625 2.7737 1.7423 5.7677 1.7423 0.8813 0 1.7721-0.0297 2.6534-0.10002 0.88131-0.0703 1.8018-0.17032 2.7534-0.30954l2.8642-0.31089 1.5315 10.934-2.3533 0.61097c-2.183 0.55014-4.4255 1.0219-6.7382 1.4314-2.3128 0.39064-4.4566 0.6015-6.4287 0.6015z" fill="#40dba4" stroke-width="1.3517"/>
 <g fill="#1988ff" stroke-width="1.3517">
  <path d="m133.73 556.33c0-1.3409 0.34063-2.3128 1.0219-2.9129 0.67991-0.6015 1.522-0.90158 2.5331-0.90158 0.94078 0 1.7626 0.30008 2.4628 0.90158 0.70153 0.60016 1.0611 1.572 1.0611 2.9129 0 1.322-0.35009 2.2938-1.0611 2.9143-0.70018 0.63124-1.522 0.94078-2.4628 0.94078-1.0016 0-1.8532-0.30954-2.5331-0.94078-0.68125-0.62043-1.0219-1.5923-1.0219-2.9143zm6.5084 46.781h-6.038v-36.827h6.038z"/>
  <path d="m199.1 603.11v-23.71c0-5.8177-2.4925-8.7212-7.479-8.7212-3.4252 0-5.938 0.9908-7.5506 2.9832-1.6112 1.9924-2.4128 5.027-2.4128 9.1226v20.326h-6.0083v-23.71c0-2.9034-0.61097-5.0864-1.8316-6.5382-1.2219-1.4531-3.1251-2.183-5.7177-2.183-3.3941 0-5.888 1.0408-7.46 3.113-1.572 2.083-2.3628 5.4879-2.3628 10.234v19.085h-6.038v-36.827h4.8769l0.90023 5.0256h0.33117c1.0503-1.7924 2.5331-3.1833 4.4457-4.1943 1.9127-1.0124 4.0551-1.5126 6.4179-1.5126 5.7677 0 9.5227 2.0532 11.265 6.1678h0.32981c1.1814-1.9627 2.8034-3.4847 4.8472-4.566 2.0424-1.0705 4.3646-1.6112 6.9586-1.6112 4.1551 0 7.2694 1.0705 9.3416 3.213 2.0627 2.1438 3.1049 5.5785 3.1049 10.295v23.981h-5.9583z"/>
  <path d="m239.56 603.11-1.1706-5.227h-0.27034c-1.8329 2.3033-3.6645 3.8659-5.4879 4.6769-1.8221 0.81102-4.1146 1.2219-6.8883 1.2219-3.6253 0-6.4584-0.9516-8.5211-2.8548-2.0532-1.9018-3.0846-4.585-3.0846-8.0494 0-7.4708 5.888-11.385 17.673-11.735l6.2381-0.23114v-2.183c0-2.7926-0.60151-4.8553-1.8126-6.1881-1.2111-1.3314-3.144-1.9924-5.7974-1.9924-1.9424 0-3.7848 0.29061-5.5176 0.87184-1.7315 0.57988-3.3644 1.2314-4.8756 1.9424l-1.8424-4.5255c1.8518-0.98134 3.8753-1.7532 6.0678-2.3141 2.1925-0.55961 4.3552-0.84076 6.5084-0.84076 4.4457 0 7.7601 0.98133 9.9228 2.9535 2.1722 1.9627 3.2549 5.0973 3.2549 9.393v25.082zm-12.436-4.1943c3.3738 0 6.0286-0.9124 7.9602-2.7345 1.9329-1.8221 2.9034-4.4052 2.9034-7.7601v-3.3238l-5.4365 0.22979c-4.2254 0.16085-7.31 0.83129-9.2416 2.0127-1.9329 1.1814-2.9048 3.0535-2.9048 5.5974 0 1.9221 0.59204 3.3941 1.7626 4.4255 1.1814 1.0422 2.8237 1.5531 4.9567 1.5531z"/>
  <path d="m280.28 602.78 0.20005-4.5268h-0.27034c-2.4831 3.6861-6.2881 5.5379-11.404 5.5379-4.7674 0-8.4819-1.6626-11.156-4.977-2.6737-3.3238-4.0051-7.9994-4.0051-14.037 0-5.9286 1.3517-10.595 4.0456-14.018 2.6939-3.4252 6.3787-5.127 11.054-5.127 4.9864 0 8.832 1.8532 11.535 5.5676h0.37037l0.80155-4.8972h4.7958v37.43c0 5.2757-1.3314 9.2416-4.0051 11.904-2.6737 2.6642-6.8288 3.9956-12.457 3.9956-5.3662 0-9.7822-0.78128-13.247-2.3425v-5.5677c3.5752 1.9221 8.1007 2.8832 13.578 2.8832 3.1346 0 5.6068-0.92051 7.4303-2.7534 1.8221-1.8316 2.7331-4.3755 2.7331-7.6101zm-10.564-3.9253c3.7145 0 6.4084-1.0016 8.1007-3.0035 1.691-2.0032 2.5331-5.2176 2.5331-9.643v-1.4423c0-4.9161-0.85157-8.5008-2.5534-10.734-1.7031-2.233-4.4363-3.3536-8.221-3.3536-3.0846 0-5.4771 1.2206-7.16 3.6739-1.6923 2.4533-2.5331 5.938-2.5331 10.484 0 4.5566 0.82183 8.0413 2.4642 10.434 1.6518 2.383 4.1051 3.5847 7.3695 3.5847z"/>
  <path d="m313.96 603.78c-5.5285 0-9.8539-1.6721-12.998-5.0175-3.1441-3.3441-4.7161-7.9399-4.7161-13.797 0-5.9083 1.4625-10.604 4.3957-14.1 2.9345-3.4941 6.8896-5.246 11.876-5.246 4.6255 0 8.3211 1.4909 11.064 4.4755 2.7534 2.9832 4.1254 7.0288 4.1254 12.126v3.655h-25.223c0.11084 4.1849 1.1719 7.3587 3.1846 9.5214 2.0127 2.1735 4.8661 3.2549 8.5508 3.2549 1.9627 0 3.8348-0.17031 5.5974-0.5204 1.7626-0.35145 3.8348-1.0219 6.2084-2.033v5.2973c-2.033 0.8705-3.9456 1.4909-5.738 1.8424-1.7815 0.35955-3.8942 0.54068-6.3273 0.54068zm-1.5126-33.234c-2.8832 0-5.1662 0.93132-6.8396 2.7845-1.672 1.8518-2.6723 4.4349-2.9832 7.7493h18.744c-0.0392-3.4441-0.84075-6.057-2.383-7.8493-1.5423-1.7924-3.7239-2.6845-6.5382-2.6845z"/>
  <path d="m363.68 603.11-13.948-36.827h6.4679l7.8101 21.697c1.5423 4.3565 2.5236 7.6101 2.9548 9.7633h0.27034c0.0703-0.29061 0.15004-0.62178 0.25007-0.99214 0.10002-0.37037 0.22033-0.77047 0.35009-1.2111 0.13111-0.44065 0.96106-2.9535 2.4831-7.5601l7.8507-21.697h6.4381l-13.987 36.827z"/>
  <path d="m393.07 556.33c0-1.3409 0.34062-2.3128 1.0205-2.9129 0.68126-0.6015 1.522-0.90158 2.5331-0.90158 0.94213 0 1.7626 0.30008 2.4641 0.90158 0.70019 0.60016 1.0611 1.572 1.0611 2.9129 0 1.322-0.35009 2.2938-1.0611 2.9143-0.70153 0.63124-1.522 0.94078-2.4641 0.94078-1.0003 0-1.8518-0.30954-2.5331-0.94078-0.67991-0.62043-1.0205-1.5923-1.0205-2.9143zm6.5084 46.781h-6.038v-36.827h6.038z"/>
  <path d="m427.25 603.78c-5.5271 0-9.8525-1.6721-12.997-5.0175-3.1454-3.3441-4.7161-7.9399-4.7161-13.797 0-5.9083 1.4612-10.604 4.3944-14.1 2.9251-3.4941 6.8896-5.246 11.876-5.246 4.6255 0 8.3211 1.4909 11.065 4.4755 2.7534 2.9832 4.1254 7.0288 4.1254 12.126v3.655h-25.223c0.10949 4.1849 1.1706 7.3587 3.1832 9.5214 2.0127 2.1735 4.8661 3.2549 8.5509 3.2549 1.9627 0 3.8361-0.17031 5.5974-0.5204 1.7626-0.35145 3.8361-1.0219 6.2084-2.033v5.2973c-2.033 0.8705-3.9456 1.4909-5.738 1.8424-1.7815 0.35955-3.8942 0.54068-6.3273 0.54068zm-1.5126-33.234c-2.8832 0-5.1662 0.93132-6.8382 2.7845-1.6721 1.8518-2.6737 4.4349-2.9846 7.7493h18.745c-0.0405-3.4441-0.84211-6.057-2.3844-7.8493-1.5409-1.7924-3.7239-2.6845-6.5382-2.6845z"/>
  <path d="m481.44 603.11-6.3084-20.727c-0.58123-1.7221-1.4328-4.9756-2.5439-9.762h-0.27034c-0.94078 4.3552-1.7626 7.6398-2.4831 9.8228l-6.6085 20.657h-6.8396l-10.093-36.828h6.2381c2.3236 9.0523 4.0956 15.941 5.3176 20.657 1.2219 4.7161 1.9424 8.0507 2.1627 9.9931h0.27034l0.47039-2.0816c0.69072-3.1954 1.3625-5.7988 2.0127-7.8101l6.5382-20.758h6.5787l6.3381 20.758c0.22033 0.77993 0.46093 1.6112 0.72181 2.502 0.25952 0.8813 0.50013 1.7532 0.72045 2.6142 0.22033 0.86104 0.42038 1.7018 0.60151 2.5128 0.17978 0.82184 0.30954 1.5518 0.4001 2.1938h0.30008c0.20005-1.7031 1.0219-5.3473 2.4439-10.935l5.1662-19.655h6.1678l-10.234 36.828h-7.068z"/>
  <path d="m521.35 603.78c-5.5271 0-9.8526-1.6721-12.997-5.0175-3.144-3.3441-4.7161-7.9399-4.7161-13.797 0-5.9083 1.4612-10.604 4.3957-14.1 2.9237-3.4941 6.8883-5.246 11.875-5.246 4.6255 0 8.3211 1.4909 11.065 4.4755 2.7534 2.9832 4.1254 7.0288 4.1254 12.126v3.655h-25.223c0.10949 4.1849 1.1706 7.3587 3.1833 9.5214 2.0127 2.1735 4.8661 3.2549 8.5508 3.2549 1.9627 0 3.8361-0.17031 5.5974-0.5204 1.7626-0.35145 3.8361-1.0219 6.2084-2.033v5.2973c-2.033 0.8705-3.9443 1.4909-5.7366 1.8424-1.7734 0.35955-3.8861 0.54068-6.3287 0.54068zm-1.5126-33.234c-2.8832 0-5.1662 0.93132-6.8382 2.7845-1.672 1.8518-2.6737 4.4349-2.9846 7.7493h18.745c-0.0406-3.4441-0.84211-6.057-2.383-7.8493-1.5328-1.7924-3.7158-2.6845-6.5395-2.6845z"/>
  <path d="m561.95 565.61c1.6315 0 3.0738 0.13111 4.3254 0.40145l-0.74073 5.5663c-1.3625-0.30954-2.6939-0.4704-3.9956-0.4704-1.9424 0-3.755 0.54068-5.4163 1.6126-1.6626 1.0719-2.9643 2.5534-3.9051 4.4457-0.94214 1.8924-1.4125 3.9848-1.4125 6.2881v19.655h-6.038v-36.827h4.9662l0.67179 6.7382h0.27034c1.4112-2.4331 3.0738-4.2849 4.9959-5.5366 1.9235-1.2422 4.0159-1.8735 6.2786-1.8735z"/>
 </g>
 <g stroke-width="1.3517">
  <rect x="214.83" y="80.371" width="258.17" height="258.17" rx="43.254" fill="url(#paint0_linear_947_194)"/>
  <path d="m263.93 174.67c7.3114-5.4419 16.439-8.7306 26.231-8.7306 4.0808 0 8.0345 0.56231 11.784 1.6058l42.958-34.403v-23.21z" fill="#40dba4"/>
  <path d="m425.87 174.67c-7.3114-5.4419-16.439-8.7306-26.231-8.7306-4.0808 0-8.0345 0.56231-11.784 1.6058l-42.958-34.403v-23.21z" fill="#fff"/>
  <path d="m443.44 209.73c0-24.19-19.61-43.794-43.795-43.794-24.189 0-43.794 19.609-43.794 43.794 0 20.102 13.547 37.046 32.01 42.193l-42.964 34.399v23.209l83.271-66.516-0.027-0.0324c9.3632-8.0291 15.299-19.947 15.299-33.253zm-69.345 0c0-14.087 11.462-25.55 25.55-25.55 14.087 0 25.551 11.462 25.551 25.55s-11.464 25.55-25.551 25.55c-14.087 0-25.55-11.462-25.55-25.55z" fill="#40dba4"/>
  <path d="m301.94 251.93c18.463-5.1473 32.01-22.085 32.01-42.193 0-24.19-19.609-43.794-43.794-43.794-24.19 0-43.795 19.609-43.795 43.794 0 13.306 5.9353 25.224 15.299 33.253l-0.027 0.0324 83.266 66.521v-23.209zm-11.79-67.738c14.087 0 25.55 11.462 25.55 25.55 0 14.087-11.462 25.55-25.55 25.55s-25.551-11.462-25.551-25.55c0-14.087 11.464-25.55 25.551-25.55z" fill="#fff"/>
 </g>
 <defs>
  <linearGradient id="paint0_linear_947_194" x1="355.5" x2="355.5" y1="166" y2="357" gradientTransform="matrix(1.3517 0 0 1.3517 -136.61 -144.01)" gradientUnits="userSpaceOnUse">
   <stop stop-color="#1988FF" offset="0"/>
   <stop stop-color="#003B7A" offset="1"/>
  </linearGradient>
 </defs>
</svg>
