<?xml version="1.0" encoding="UTF-8" standalone="no"?>
<svg
   width="700"
   height="700"
   viewBox="0 0 700 700"
   fill="none"
   version="1.1"
   id="svg23"
   sodipodi:docname="logo.svg"
   inkscape:version="1.3.2 (091e20ef0f, 2023-11-25, custom)"
   xmlns:inkscape="http://www.inkscape.org/namespaces/inkscape"
   xmlns:sodipodi="http://sodipodi.sourceforge.net/DTD/sodipodi-0.dtd"
   xmlns="http://www.w3.org/2000/svg"
   xmlns:svg="http://www.w3.org/2000/svg">
  <sodipodi:namedview
     id="namedview23"
     pagecolor="#ffffff"
     bordercolor="#000000"
     borderopacity="0.25"
     inkscape:showpageshadow="2"
     inkscape:pageopacity="0.0"
     inkscape:pagecheckerboard="true"
     inkscape:deskcolor="#d1d1d1"
     inkscape:zoom="0.42049841"
     inkscape:cx="-265.16153"
     inkscape:cy="142.68782"
     inkscape:window-width="1920"
     inkscape:window-height="1052"
     inkscape:window-x="0"
     inkscape:window-y="0"
     inkscape:window-maximized="1"
     inkscape:current-layer="svg23" />
  <rect
     x="50"
     y="50"
     width="600"
     height="600"
     rx="100.52356"
     fill="url(#paint0_linear_947_194)"
     id="rect18"
     style="fill:url(#paint0_linear_947_194);stroke-width:3.14136" />
  <path
     d="m 164.10052,269.15393 c 16.99162,-12.64713 38.20524,-20.29005 60.96126,-20.29005 9.48375,0 18.67224,1.30681 27.38638,3.73194 l 99.8356,-79.95394 v -53.94031 z"
     fill="#40dba4"
     id="path19"
     style="stroke-width:3.14136" />
  <path
     d="m 540.46703,269.15393 c -16.99163,-12.64713 -38.20524,-20.29005 -60.96127,-20.29005 -9.48378,0 -18.67224,1.30681 -27.38639,3.73194 l -99.83561,-79.95394 v -53.94031 z"
     fill="#ffffff"
     id="path20"
     style="stroke-width:3.14136" />
  <path
     d="m 581.29844,350.64086 c 0,-56.21783 -45.57487,-101.77698 -101.78012,-101.77698 -56.21465,0 -101.77695,45.57171 -101.77695,101.77698 0,46.7183 31.4827,86.09528 74.39057,98.05758 l -99.84818,79.94451 v 53.93717 l 193.52358,-154.58326 -0.0628,-0.0753 c 21.7602,-18.6597 35.55391,-46.35707 35.55391,-77.28062 z m -161.15812,0 c 0,-32.73929 26.63875,-59.37803 59.378,-59.37803 32.73927,0 59.38117,26.63874 59.38117,59.37803 0,32.73924 -26.6419,59.378 -59.38117,59.378 -32.73925,0 -59.378,-26.63876 -59.378,-59.378 z"
     fill="#40dba4"
     id="path21"
     style="stroke-width:3.14136" />
  <path
     d="m 252.44816,448.69844 c 42.90786,-11.9623 74.39057,-51.32671 74.39057,-98.05758 0,-56.21783 -45.57171,-101.77698 -101.77695,-101.77698 -56.21781,0 -101.78011,45.57171 -101.78011,101.77698 0,30.92354 13.79372,58.62091 35.55391,77.28062 l -0.0628,0.0753 193.511,154.59581 V 528.65545 Z M 225.0492,291.27538 c 32.73928,0 59.37802,26.63876 59.37802,59.37803 0,32.73926 -26.63874,59.37801 -59.37802,59.37801 -32.73926,0 -59.38115,-26.63875 -59.38115,-59.37801 0,-32.73927 26.64189,-59.37803 59.38115,-59.37803 z"
     fill="#ffffff"
     id="path22"
     style="stroke-width:3.14136" />
  <defs
     id="defs23">
    <linearGradient
       id="paint0_linear_947_194"
       x1="355.5"
       y1="166"
       x2="355.5"
       y2="357"
       gradientUnits="userSpaceOnUse"
       gradientTransform="matrix(3.1413612,0,0,3.1413612,-766.75392,-471.46596)">
      <stop
         stop-color="#1988FF"
         id="stop22" />
      <stop
         offset="1"
         stop-color="#003B7A"
         id="stop23" />
    </linearGradient>
  </defs>
</svg>
