<?xml version="1.0" encoding="UTF-8"?>
<svg width="320" height="455" version="1.1" viewBox="0 0 320 455" xmlns="http://www.w3.org/2000/svg">
 <path d="m46.069 89.53c10.112-7.5263 22.734-12.075 36.276-12.075 5.6447 0 11.112 0.7779 16.297 2.2224l59.41-47.58v-32.098l-111.98 89.53z" fill="#40DBA4"/>
 <path d="m270.04 89.53c-10.112-7.5263-22.735-12.075-36.276-12.075-5.645 0-11.112 0.7779-16.297 2.2224l-59.41-47.58v-32.098l111.98 89.53z" fill="#003B7A"/>
 <path d="m294.33 138.02c0-33.453-27.12-60.566-60.566-60.566-33.453 0-60.565 27.12-60.565 60.566 0 27.801 18.734 51.232 44.268 58.351l-59.417 47.573v32.097l115.16-91.989-0.037-0.044c12.948-11.105 21.156-27.587 21.156-45.988zm-95.901 0c0-19.482 15.853-35.335 35.335-35.335 19.483 0 35.335 15.853 35.335 35.335 0 19.483-15.852 35.335-35.335 35.335-19.482 0-35.335-15.852-35.335-35.335z" fill="#40DBA4"/>
 <g fill="#003B7A">
  <path d="m98.642 196.37c25.534-7.119 44.268-30.542 44.268-58.351 0-33.453-27.119-60.566-60.565-60.566-33.453 0-60.566 27.12-60.566 60.566 0 18.401 8.2078 34.883 21.156 45.988l-0.037 0.044 115.15 91.997v-32.098l-59.41-47.58zm-16.304-93.678c19.483 0 35.335 15.852 35.335 35.335 0 19.482-15.852 35.335-35.335 35.335-19.482 0-35.335-15.853-35.335-35.335 0-19.483 15.853-35.335 35.335-35.335z"/>
  <path d="m0.82225 381.68v-52.913h24.942c3.9335 0 7.2966 0.733 10.089 2.192 2.8001 1.46 4.9262 3.549 6.3855 6.275 1.4593 2.718 2.1927 5.948 2.1927 9.674 0 3.778-0.7704 7.067-2.3038 9.867-1.5408 2.801-3.7187 4.949-6.5411 6.46-2.8223 1.511-6.1484 2.267-9.9782 2.267h-13.149l0.0741 16.178h-11.712zm11.719-26.305h10.964c2.8742 0 5.0743-0.666 6.6151-2 1.5334-1.333 2.3038-3.466 2.3038-6.385 0-2.971-0.7704-5.074-2.3038-6.312-1.5408-1.237-3.7409-1.852-6.6151-1.852h-10.964v16.549z"/>
  <path d="m51.847 381.68v-55.78l11.415-2.422v22.371l1.0593-0.607c1.7112-0.904 3.4668-1.623 5.2521-2.156 1.7852-0.526 3.5631-0.793 5.3261-0.793 3.1261 0 5.6818 0.593 7.6745 1.778s3.4742 2.771 4.4594 4.763c0.9853 1.993 1.4742 4.245 1.4742 6.764v26.075h-11.415v-23.209c0-1.911-0.4815-3.385-1.4371-4.422-0.9556-1.03-2.6223-1.548-4.9854-1.548-0.9037 0-1.7927 0.126-2.6445 0.378-0.8593 0.251-1.7409 0.555-2.6446 0.903l-2.1186 0.904v26.987h-11.415v0.014z"/>
  <path d="m115.95 382.37c-4.133 0-7.697-0.845-10.697-2.534s-5.3185-4.044-6.9556-7.067c-1.6371-3.022-2.4593-6.504-2.4593-10.43 0-4.03 0.8444-7.548 2.5334-10.541 1.6885-3 4.0525-5.326 7.1045-6.993 3.044-1.667 6.585-2.496 10.622-2.496 4.134 0 7.697 0.844 10.697 2.533s5.304 4.03 6.919 7.03 2.422 6.489 2.422 10.467c0 3.934-0.844 7.408-2.533 10.43-1.689 3.023-4.045 5.378-7.067 7.067-3.03 1.689-6.556 2.534-10.586 2.534zm0.074-9.601c1.763 0 3.274-0.392 4.534-1.17 1.259-0.778 2.244-1.956 2.948-3.519s1.059-3.474 1.059-5.741c0-2.318-0.34-4.259-1.022-5.822-0.681-1.563-1.652-2.719-2.911-3.474-1.259-0.756-2.8-1.134-4.608-1.134-1.763 0-3.304 0.378-4.607 1.134-1.312 0.755-2.319 1.918-3.023 3.474-0.704 1.563-1.059 3.504-1.059 5.822 0 2.267 0.355 4.186 1.059 5.741 0.704 1.563 1.711 2.734 3.023 3.519 1.303 0.778 2.844 1.17 4.607 1.17z"/>
  <path d="m160.24 382.29c-3.933 0-6.963-0.867-9.111-2.608-2.141-1.741-3.215-4.57-3.215-8.504v-18.741h-8.156v-7.556l8.163-1.963v-8.771l11.415-3.023v11.794h11.638v9.526h-11.719v15.193c0 1.711 0.311 3 0.948 3.852 0.63 0.86 2.052 1.289 4.274 1.289 0.652 0 1.311-0.022 1.963-0.074s1.334-0.126 2.037-0.229l2.119-0.23 1.133 8.089-1.74 0.452c-1.615 0.407-3.275 0.756-4.986 1.059-1.711 0.289-3.304 0.445-4.763 0.445z"/>
  <path d="m195.16 382.37c-4.133 0-7.696-0.845-10.697-2.534-3-1.689-5.318-4.044-6.955-7.067-1.638-3.022-2.46-6.504-2.46-10.43 0-4.03 0.845-7.548 2.534-10.541 1.689-3 4.052-5.326 7.104-6.993s6.585-2.496 10.622-2.496c4.134 0 7.697 0.844 10.697 2.533s5.304 4.03 6.919 7.03 2.422 6.489 2.422 10.467c0 3.934-0.844 7.408-2.533 10.43-1.689 3.023-4.045 5.378-7.067 7.067-3.023 1.689-6.556 2.534-10.586 2.534zm0.074-9.601c1.763 0 3.274-0.392 4.534-1.17 1.259-0.778 2.244-1.956 2.948-3.519s1.059-3.474 1.059-5.741c0-2.318-0.34-4.259-1.022-5.822-0.681-1.563-1.652-2.719-2.911-3.474-1.259-0.756-2.8-1.134-4.608-1.134-1.763 0-3.304 0.378-4.607 1.134-1.312 0.755-2.319 1.918-3.023 3.474-0.703 1.563-1.059 3.504-1.059 5.822 0 2.267 0.356 4.186 1.059 5.741 0.704 1.563 1.711 2.734 3.023 3.519 1.311 0.778 2.844 1.17 4.607 1.17z"/>
 </g>
 <path d="m278.91 369.51c2.267-4.081 3.4-8.844 3.4-14.289s-1.111-10.193-3.326-14.245-5.356-7.23-9.408-9.527c-4.059-2.289-8.881-3.437-14.474-3.437-5.393 0-10.127 1.134-14.208 3.4-4.082 2.267-7.267 5.43-9.564 9.49-2.296 4.059-3.437 8.807-3.437 14.245 0 5.437 1.111 10.208 3.326 14.289 2.215 4.082 5.363 7.267 9.445 9.564 4.082 2.296 8.889 3.437 14.438 3.437 5.393 0 10.141-1.134 14.245-3.4 0.726-0.4 1.415-0.837 2.081-1.297l4.838 4.549 5.896-5.971-4.726-4.474c0.519-0.748 1.022-1.519 1.474-2.334zm-23.808 2.045c-3.126 0-5.823-0.593-8.09-1.778-2.266-1.185-4.015-2.985-5.252-5.4-1.237-2.423-1.852-5.467-1.852-9.149 0-3.674 0.63-6.726 1.889-9.148 1.26-2.423 3.038-4.223 5.327-5.408s4.948-1.778 7.978-1.778c3.126 0 5.822 0.593 8.089 1.778s4.015 2.971 5.252 5.371c1.237 2.392 1.852 5.429 1.852 9.104 0 3.326-0.519 6.148-1.556 8.459l-9.178-8.689-6.045 5.971 9.497 8.926c-2.252 1.163-4.882 1.741-7.911 1.741z" fill="#4DDEAB"/>
 <path d="m307.1 382.29c-3.933 0-6.971-0.867-9.104-2.608-2.141-1.741-3.215-4.57-3.215-8.504v-18.741h-8.163v-7.556l8.163-1.963v-8.771l11.415-3.023v11.794h11.638v9.526h-11.719v15.193c0 1.711 0.311 3 0.948 3.852 0.63 0.86 2.052 1.289 4.267 1.289 0.652 0 1.311-0.022 1.963-0.074s1.333-0.126 2.037-0.229l2.119-0.23 1.133 8.089-1.741 0.452c-1.615 0.407-3.274 0.756-4.985 1.059-1.711 0.289-3.297 0.445-4.756 0.445z" fill="#4DDEAB"/>
 <g fill="#003B7A">
  <path d="m0 408.12c0-0.992 0.25186-1.711 0.75558-2.155 0.50373-0.445 1.126-0.667 1.8742-0.667 0.69633 0 1.3038 0.222 1.8223 0.667 0.51855 0.444 0.78522 1.163 0.78522 2.155 0 0.978-0.25927 1.697-0.78522 2.156-0.51854 0.467-1.126 0.696-1.8223 0.696-0.74077 0-1.3704-0.229-1.8742-0.696-0.50373-0.459-0.75558-1.178-0.75558-2.156zm4.815 34.609h-4.4669v-27.245h4.4669v27.245z"/>
  <path d="m48.365 442.72v-17.541c0-4.304-1.8445-6.453-5.5336-6.453-2.5334 0-4.3928 0.734-5.5854 2.208-1.1927 1.474-1.7853 3.719-1.7853 6.748v15.038h-4.4446v-17.541c0-2.149-0.4519-3.763-1.3557-4.838-0.9037-1.074-2.3112-1.615-4.2298-1.615-2.5112 0-4.3558 0.771-5.5188 2.304-1.163 1.541-1.7482 4.06-1.7482 7.571v14.119h-4.4669v-27.246h3.6076l0.6667 3.719h0.2445c0.7778-1.326 1.8741-2.355 3.289-3.104 1.4149-0.748 3.0001-1.118 4.7484-1.118 4.2668 0 7.0447 1.518 8.3337 4.563h0.2444c0.8742-1.452 2.0742-2.578 3.5854-3.378 1.5112-0.793 3.2298-1.193 5.1484-1.193 3.0742 0 5.378 0.793 6.9114 2.378 1.526 1.586 2.2964 4.126 2.2964 7.615v17.742h-4.4076v0.022z"/>
  <path d="m78.292 442.72-0.8667-3.867h-0.2c-1.3556 1.704-2.7113 2.86-4.0595 3.46s-3.0446 0.904-5.0965 0.904c-2.6816 0-4.778-0.704-6.304-2.112-1.5186-1.407-2.2816-3.392-2.2816-5.956 0-5.526 4.3558-8.422 13.075-8.681l4.615-0.171v-1.615c0-2.066-0.4444-3.592-1.3408-4.578-0.8963-0.985-2.326-1.474-4.2891-1.474-1.4371 0-2.8001 0.215-4.0816 0.645-1.2816 0.429-2.489 0.911-3.6076 1.437l-1.363-3.348c1.3704-0.726 2.8668-1.297 4.4891-1.712s3.2223-0.622 4.815-0.622c3.289 0 5.741 0.726 7.3411 2.185 1.6075 1.452 2.4075 3.771 2.4075 6.949v18.556h-3.252zm-9.2004-3.104c2.4964 0 4.4594-0.674 5.8891-2.022s2.1483-3.259 2.1483-5.741v-2.459l-4.0224 0.17c-3.1261 0.119-5.4077 0.615-6.8374 1.489s-2.1482 2.259-2.1482 4.141c0 1.422 0.437 2.511 1.3037 3.274 0.8741 0.771 2.089 1.148 3.6669 1.148z"/>
  <path d="m108.42 442.48 0.148-3.349h-0.2c-1.837 2.726-4.652 4.097-8.4374 4.097-3.5261 0-6.2744-1.23-8.2523-3.682-1.9779-2.459-2.9631-5.919-2.9631-10.385 0-4.386 1.0001-7.838 2.9927-10.371 1.9927-2.534 4.7188-3.793 8.1782-3.793 3.6889 0 6.5339 1.37 8.5339 4.119h0.274l0.593-3.623h3.548v27.69c0 3.904-0.985 6.838-2.963 8.808-1.978 1.971-5.052 2.956-9.216 2.956-3.9701 0-7.2369-0.578-9.7999-1.733v-4.119c2.6445 1.422 5.9928 2.133 10.045 2.133 2.319 0 4.148-0.681 5.497-2.037 1.348-1.355 2.022-3.237 2.022-5.63v-1.081zm-7.815-2.904c2.748 0 4.741-0.741 5.993-2.222 1.251-1.482 1.874-3.86 1.874-7.134v-1.067c0-3.637-0.63-6.289-1.889-7.941-1.26-1.652-3.282-2.482-6.082-2.482-2.2816 0-4.0521 0.904-5.2966 2.719-1.2519 1.815-1.8742 4.393-1.8742 7.756 0 3.371 0.6075 5.948 1.8223 7.719 1.2223 1.763 3.0372 2.652 5.4525 2.652z"/>
  <path d="m133.34 443.22c-4.09 0-7.29-1.238-9.616-3.712s-3.489-5.874-3.489-10.208c0-4.37 1.082-7.844 3.252-10.43 2.171-2.585 5.097-3.881 8.786-3.881 3.422 0 6.156 1.103 8.185 3.311 2.037 2.207 3.052 5.2 3.052 8.971v2.703h-18.66c0.082 3.097 0.867 5.445 2.356 7.045 1.489 1.608 3.6 2.408 6.326 2.408 1.452 0 2.837-0.126 4.141-0.385 1.304-0.26 2.837-0.756 4.593-1.504v3.919c-1.504 0.644-2.919 1.103-4.245 1.363-1.318 0.266-2.881 0.4-4.681 0.4zm-1.119-24.587c-2.133 0-3.822 0.689-5.06 2.06-1.237 1.37-1.977 3.281-2.207 5.733h13.867c-0.029-2.548-0.622-4.482-1.763-5.808-1.141-1.325-2.755-1.985-4.837-1.985z"/>
  <path d="m170.12 442.72-10.319-27.245h4.785l5.778 16.052c1.141 3.223 1.867 5.63 2.186 7.223h0.2c0.052-0.215 0.111-0.46 0.185-0.734s0.163-0.57 0.259-0.896c0.097-0.326 0.711-2.185 1.837-5.593l5.808-16.052h4.763l-10.348 27.245h-5.134z"/>
  <path d="m191.86 408.12c0-0.992 0.252-1.711 0.755-2.155 0.504-0.445 1.126-0.667 1.874-0.667 0.697 0 1.304 0.222 1.823 0.667 0.518 0.444 0.785 1.163 0.785 2.155 0 0.978-0.259 1.697-0.785 2.156-0.519 0.467-1.126 0.696-1.823 0.696-0.74 0-1.37-0.229-1.874-0.696-0.503-0.459-0.755-1.178-0.755-2.156zm4.815 34.609h-4.467v-27.245h4.467v27.245z"/>
  <path d="m217.15 443.22c-4.089 0-7.289-1.238-9.615-3.712-2.327-2.474-3.489-5.874-3.489-10.208 0-4.37 1.081-7.844 3.251-10.43 2.164-2.585 5.097-3.881 8.786-3.881 3.422 0 6.156 1.103 8.186 3.311 2.037 2.207 3.052 5.2 3.052 8.971v2.703h-18.66c0.081 3.097 0.866 5.445 2.355 7.045 1.489 1.608 3.6 2.408 6.326 2.408 1.452 0 2.838-0.126 4.141-0.385 1.304-0.26 2.838-0.756 4.593-1.504v3.919c-1.504 0.644-2.919 1.103-4.245 1.363-1.318 0.266-2.881 0.4-4.681 0.4zm-1.119-24.587c-2.133 0-3.822 0.689-5.059 2.06-1.237 1.37-1.978 3.281-2.208 5.733h13.868c-0.03-2.548-0.623-4.482-1.764-5.808-1.14-1.325-2.755-1.985-4.837-1.985z"/>
  <path d="m257.24 442.72-4.667-15.334c-0.43-1.274-1.06-3.681-1.882-7.222h-0.2c-0.696 3.222-1.304 5.652-1.837 7.267l-4.889 15.282h-5.06l-7.467-27.246h4.615c1.719 6.697 3.03 11.793 3.934 15.282s1.437 5.956 1.6 7.393h0.2l0.348-1.541c0.511-2.363 1.008-4.289 1.489-5.778l4.837-15.356h4.867l4.689 15.356c0.163 0.578 0.341 1.193 0.534 1.852 0.192 0.652 0.37 1.297 0.533 1.934s0.311 1.259 0.445 1.859c0.133 0.608 0.229 1.148 0.296 1.622h0.222c0.148-1.259 0.756-3.955 1.808-8.089l3.822-14.541h4.563l-7.571 27.245h-5.229v0.015z"/>
  <path d="m286.77 443.22c-4.089 0-7.289-1.238-9.615-3.712s-3.489-5.874-3.489-10.208c0-4.37 1.081-7.844 3.252-10.43 2.163-2.585 5.096-3.881 8.785-3.881 3.422 0 6.156 1.103 8.186 3.311 2.037 2.207 3.052 5.2 3.052 8.971v2.703h-18.66c0.081 3.097 0.866 5.445 2.355 7.045 1.489 1.608 3.6 2.408 6.326 2.408 1.452 0 2.838-0.126 4.141-0.385 1.304-0.26 2.838-0.756 4.593-1.504v3.919c-1.504 0.644-2.918 1.103-4.244 1.363-1.312 0.266-2.875 0.4-4.682 0.4zm-1.119-24.587c-2.133 0-3.822 0.689-5.059 2.06-1.237 1.37-1.978 3.281-2.208 5.733h13.868c-0.03-2.548-0.623-4.482-1.763-5.808-1.134-1.325-2.749-1.985-4.838-1.985z"/>
  <path d="m316.8 414.98c1.207 0 2.274 0.096 3.2 0.297l-0.548 4.118c-1.008-0.229-1.993-0.348-2.956-0.348-1.437 0-2.778 0.4-4.007 1.193-1.23 0.792-2.193 1.889-2.889 3.289-0.697 1.4-1.045 2.948-1.045 4.652v14.541h-4.467v-27.246h3.674l0.497 4.986h0.2c1.044-1.8 2.274-3.171 3.696-4.097 1.423-0.918 2.971-1.385 4.645-1.385z"/>
 </g>
</svg>
