<?xml version="1.0" encoding="UTF-8"?>
<!-- Svg Vector Icons : http://www.onlinewebfonts.com/icon -->
<svg enable-background="new 0 0 1000 1000" version="1.1" viewBox="0 0 1e3 1e3" xml:space="preserve" xmlns="http://www.w3.org/2000/svg">
<metadata> Svg Vector Icons : http://www.onlinewebfonts.com/icon </metadata>
<path d="m509 989.4c-108.1 1.3-197.5-25.8-279.4-78.9-29.3-19-55.9-41.3-80.7-65.8-7.2-7.1-7.1-10.4 0-17.5l113.4-113.4c7-7 10.1-7 17.4 0.6 44.9 46.1 99.5 74.2 162.4 86.6 69.3 13.7 135 2.9 197.5-29.4 44.6-23.1 82.7-54 111.6-95.6 26.4-38.1 42.5-80.3 50.1-125.8 13.8-82.4-3.3-158.2-50.6-226.9-40.7-59.2-97.3-96.2-165.2-117.2-26.9-8.3-54.4-13.3-82.5-13.9-59.9-1.3-114.5 16-165.2 47.2-12.5 7.7-24.5 16.2-36.2 25.2-7.9 6.1-7.9 7.7-1 14.7l82.2 82.2c2.4 2.4 6 4.6 4.4 8.7-1.4 3.8-5.3 3.2-8.4 3.7-33.9 4.9-67.8 9.9-101.7 14.9-48.9 7.2-97.8 14.5-146.7 21.8-36 5.3-71.9 10.7-107.9 16.1-11.2 1.7-13.8-0.5-12.1-11.7 8.1-54 16.4-108 24.5-161.9 7.8-51.9 15.4-103.8 23-155.7 2-13.4 3.8-26.8 5.8-40.1 0.4-2.8 1.1-5.7 4.4-6.6 3-0.8 4.7 1.2 6.6 3.1 25.9 26 51.7 51.9 77.6 77.9 9.2 9.2 10.9 9.4 20.7 0.7 58.1-52 125.1-87.6 200.4-107.4 34.8-9.2 70.2-15.2 106.4-14.6 10 0.2 20.1 0.3 30.1 0 55.2-1.5 108.1 10 159.4 28.9 123.6 45.7 212.9 129.6 272 246.3 24.2 47.7 37.8 98.7 44.7 151.7 4.7 35.6 5.1 71.6 1.9 106.9-9.1 101.7-46.5 192.6-112.5 271.1-59.6 70.7-133.3 121.1-221.1 150.4-50.4 16.8-102.1 26-145.3 23.7z" fill="#fff"/>
</svg>
