<?xml version="1.0" encoding="UTF-8"?>
<!-- Created with Inkscape (http://www.inkscape.org/) -->
<svg width="26.912mm" height="24.96mm" version="1.1" viewBox="0 0 26.912 24.96" xmlns="http://www.w3.org/2000/svg">
 <g transform="translate(-91.81 -136)">
  <g transform="matrix(.090919 0 0 .084326 91.81 136)" fill="#fff">
   <path d="m148 0c-81.606 0-148 66.392-148 148s66.392 148 148 148 148-66.392 148-148-66.392-148-148-148zm0 280c-36.257 0-69.143-14.696-93.023-38.44-9.536-9.482-17.631-20.41-23.934-32.42-9.599-18.289-15.041-39.089-15.041-61.138 0-72.784 59.214-132 132-132 34.523 0 65.987 13.328 89.533 35.102 12.208 11.288 22.289 24.844 29.558 39.996 8.27 17.239 12.907 36.538 12.907 56.9 0 72.784-59.214 132-132 132z"/>
   <path d="m163.64 187.61c17.554 3.671 33.322 13.54 44.4 27.789l12.631-9.82c-13.402-17.24-32.494-29.184-53.756-33.631-34.195-7.146-70.146 6.052-91.587 33.631l12.633 9.82c17.716-22.789 47.423-33.699 75.679-27.789z"/>
   <circle cx="98.666" cy="115" r="16"/>
   <circle cx="197.67" cy="115" r="16"/>
  </g>
 </g>
</svg>
