<?xml version="1.0" encoding="UTF-8"?>
<svg width="512" height="512" fill="none" version="1.1" viewBox="0 0 512 512" xmlns="http://www.w3.org/2000/svg">
 <path d="m322.55 159.86a24.256 24.256 0 0 0-10.873 6.2773l-145.54 145.54a24.256 24.256 0 0 0 0 34.303 24.256 24.256 0 0 0 34.305 0l145.54-145.54a24.256 24.256 0 0 0 0-34.305 24.256 24.256 0 0 0-23.43-6.2773zm-145.54 0a24.256 24.256 0 0 0-10.875 6.2773 24.256 24.256 0 0 0 0 34.305l145.54 145.54a24.256 24.256 0 0 0 34.303 0 24.256 24.256 0 0 0 0-34.303l-145.54-145.54a24.256 24.256 0 0 0-23.43-6.2773zm79.045-146.36c-31.853 0-63.396 6.2733-92.824 18.463-29.428 12.19-56.168 30.058-78.691 52.582-22.524 22.524-40.392 49.263-52.582 78.691-12.19 29.429-18.463 60.971-18.463 92.824s6.2736 63.395 18.463 92.824v2e-3h2e-3c12.19 29.428 30.055 56.167 52.578 78.691h2e-3c22.524 22.523 49.263 40.39 78.691 52.58 29.429 12.19 60.971 18.463 92.824 18.463s63.395-6.2734 92.822-18.463c29.43-12.19 56.171-30.056 78.695-52.578v-2e-3h2e-3c22.522-22.525 40.388-49.264 52.578-78.691 12.19-29.43 18.463-60.973 18.463-92.826s-6.273-63.396-18.463-92.824-30.057-56.168-52.58-78.691v-2e-3c-22.525-22.523-49.264-40.388-78.691-52.578v-2e-3h-2e-3c-29.43-12.189-60.971-18.463-92.824-18.463zm0 48.512c25.483 0 50.716 5.0192 74.262 14.771 23.542 9.7521 44.932 24.045 62.953 42.064 18.019 18.019 32.31 39.411 42.062 62.955 9.7522 23.543 14.771 48.775 14.771 74.258 0 25.482-5.0195 50.715-14.771 74.26-9.7519 23.542-24.044 44.932-42.062 62.953-18.022 18.02-39.41 32.312-62.955 42.064h-2e-3c-23.543 9.7521-48.775 14.771-74.258 14.771s-50.714-5.0193-74.258-14.771c-23.544-9.7523-44.936-24.044-62.955-42.062-18.02-18.021-32.312-39.411-42.064-62.953v-2e-3c-9.7517-23.545-14.771-48.777-14.771-74.26s5.02-50.715 14.771-74.258v-2e-3c9.7522-23.543 24.046-44.934 42.064-62.953s39.41-32.312 62.953-42.064c23.543-9.7519 48.777-14.771 74.26-14.771z" color="#000000" fill="#f00" stroke-linecap="round"/>
</svg>
