<?xml version="1.0" encoding="UTF-8"?>
<!-- Created with Inkscape (http://www.inkscape.org/) -->
<svg width="3e3" height="4e3" version="1.1" viewBox="0 0 793.75 1058.3" xmlns="http://www.w3.org/2000/svg">
 <g>
  <rect x="46.411" y="46.411" width="700.93" height="965.51" rx="91.824" ry="101.98" fill="#402000" stroke="#402000" stroke-linecap="round" stroke-linejoin="round" stroke-miterlimit="0" stroke-width="92.823" style="paint-order:stroke fill markers"/>
  <text x="246.16951" y="827.80219" fill="#000000" font-family="sans-serif" font-size="167.57px" stroke-width=".26458" style="line-height:1.25" xml:space="preserve"><tspan x="246.16951" y="827.80219" fill="#ffffff" font-family="'DejaVu Sans Mono'" font-size="167.57px" font-weight="bold" stroke-width=".26458">SVG</tspan></text>
  <path class="cls-1" d="m364.31 255.81h64.875c4.8022 0 8.6954 3.8932 8.6954 8.6954v21.549h102.53c1.7261-4.988 4.5707-9.5144 8.3173-13.232 13.717-13.792 36.036-13.792 49.753 0 13.793 13.717 13.793 36.036 0 49.753-13.717 13.793-36.036 13.793-49.753 0-3.8171-3.898-6.6658-8.6374-8.3173-13.837h-52.928c17.095 9.8794 32.553 22.353 45.821 36.975 26.473 29.243 43.957 65.497 50.358 104.42h14.215c5.8393-0.11433 10.63 4.5942 10.586 10.435v47.56c0.0286 5.7504-4.6082 10.435-10.359 10.434h-47.258c-5.7627 0-10.434-4.6716-10.434-10.434v-47.56c0-5.763 4.6716-10.435 10.434-10.435h10.888c-6.2334-33.409-21.626-64.429-44.46-89.6-21.286-23.511-48.822-40.478-79.393-48.921v18.525c0.0858 4.8614-3.8334 8.8474-8.6954 8.8468h-64.875c-4.8196 0.0286-8.7377-3.8757-8.6954-8.6954v-18.676c-31.375 8.7037-59.505 26.423-80.905 50.963-21.776 24.866-36.523 55.092-42.721 87.559h10.661c5.7627 0 10.434 4.6716 10.434 10.435v47.56c0 5.7627-4.6716 10.434-10.434 10.434h-47.031c-5.8219 0.0858-10.586-4.6122-10.586-10.434v-47.56c-5.8e-4 -5.8224 4.7639-10.519 10.586-10.435h14.442c6.4548-37.784 23.258-73.04 48.543-101.85 13.542-15.678 29.556-29.036 47.409-39.545h-61.17c-1.7261 4.9657-4.5722 9.4675-8.3173 13.157-6.578 6.6338-15.534 10.363-24.876 10.359-9.3569-0.0286-18.323-3.7557-24.952-10.359-13.792-13.717-13.792-36.036 0-49.753 13.717-13.793 36.036-13.793 49.753 0 3.8637 3.9046 6.7409 8.6739 8.393 13.913h110.77v-21.549c-0.0286-4.8199 3.8757-8.738 8.6954-8.6954z" fill="#fff" fill-rule="evenodd" stroke-width="7.5612"/>
 </g>
</svg>
