<?xml version="1.0" encoding="UTF-8"?>
<!-- Created with Inkscape (http://www.inkscape.org/) -->
<svg width="4e3" height="4e3" version="1.1" viewBox="0 0 1058.3 1058.3" xmlns="http://www.w3.org/2000/svg">
 <g transform="matrix(1.1128 0 0 1.1128 -59.706 -59.706)">
  <rect x="53.654" y="53.654" width="951.03" height="951.03" rx="0" ry="0" fill="#802000" stroke="#802000" stroke-linecap="round" stroke-linejoin="round" stroke-miterlimit="0" stroke-width="107.31" style="paint-order:stroke fill markers"/>
  <text x="378.4613" y="827.80219" fill="#000000" font-family="sans-serif" font-size="167.57px" stroke-width=".26458" style="line-height:1.25" xml:space="preserve"><tspan x="378.4613" y="827.80219" fill="#ffffff" font-family="'DejaVu Sans Mono'" font-size="167.57px" font-weight="bold" stroke-width=".26458">MRW</tspan></text>
  <g transform="matrix(.96012 0 0 .96012 185.08 -320.77)" fill="#fff" stroke-width="21.341">
   <ellipse cx="498.8" cy="628.35" rx="42.509" ry="42.857"/>
   <path d="m369.15 874.78h-174.59c-20.131 0-32.326-22.402-21.521-39.521l102.32-162.1c10.025-15.879 33.016-15.879 43.034 0l68.732 108.88 38.134-51.259c10.202-13.715 30.606-13.715 40.809 0l76.516 102.86c12.604 16.952 0.80331 41.143-20.404 41.143h-122.98z" clip-rule="evenodd" fill-rule="evenodd"/>
   <path d="m173.04 835.26 8.965 5.7502zm102.32-162.1 8.965 5.7503zm43.034 0 8.9731-5.7502zm68.732 108.88-8.965 5.7503c1.8476 2.9642 5.0609 4.8189 8.5554 4.9566 3.4543 0.16187 6.8282-1.4659 8.9088-4.2762zm38.134-51.259-8.5072-6.4306zm40.809 0 8.4991-6.4306zm76.516 102.86 8.4991-6.4306zm-348.02 51.857h174.59v-21.428h-174.59zm-30.486-55.987c-15.303 24.251 2.0083 55.987 30.486 55.987v-21.428c-11.745 0-18.854-13.068-12.556-23.053zm102.32-162.1-102.32 162.1 17.93 11.505 102.32-162.1zm60.972 0c-14.203-22.495-46.769-22.495-60.972 0l17.93 11.504c5.8642-9.262 19.264-9.262 25.104 0zm68.724 108.88-68.724-108.88-17.938 11.504 68.732 108.88zm20.661-51.935-38.134 51.259 17.006 12.857 38.134-51.259zm57.815 0c-14.452-19.429-43.363-19.429-57.815 0l17.006 12.857c5.9446-8.0018 17.85-8.0018 23.802 0zm76.516 102.86-76.516-102.86-17.006 12.857 76.516 102.86zm-28.903 58.286c29.771 0 46.769-34.271 28.903-58.286l-17.006 12.857c7.3905 9.8897 0 24-11.897 24zm-122.98 0h122.98v-21.428h-122.98zm-30.052 0h30.052v-21.428h-30.052z"/>
  </g>
 </g>
</svg>
