<?xml version="1.0" encoding="UTF-8"?>
<svg width="512" height="512" fill="none" version="1.1" viewBox="0 0 512 512" xmlns="http://www.w3.org/2000/svg">
 <path d="m297.4 57.561c-26.943 0.37862-53.702 6.2638-78.578 17.49-39.802 17.962-72.578 48.598-93.24 87.129-20.663 38.532-28.073 82.822-21.088 126a24.815 24.815 0 0 0 28.459 20.533 24.815 24.815 0 0 0 20.533-28.459c-5.2471-32.434 0.32095-65.691 15.834-94.619 15.512-28.926 40.087-51.886 69.916-65.348 29.829-13.462 63.23-16.67 95.057-9.1328 31.829 7.5373 60.288 25.397 80.984 50.838 20.696 25.441 32.453 57.028 33.436 89.873 0.98003 32.846-8.8658 65.087-28.004 91.729h-2e-3c-19.139 26.644-46.484 46.183-77.807 55.623-31.321 9.4378-64.851 8.2449-95.428-3.3965a24.815 24.815 0 0 0-32.021 14.361 24.815 24.815 0 0 0 14.361 32.021c40.806 15.536 85.607 17.129 127.41 4.5332v-2e-3c41.802-12.598 78.292-38.682 103.79-74.186 25.502-35.5 38.61-78.446 37.305-122.17v-2e-3c-1.308-43.722-16.962-85.802-44.543-119.71-27.581-33.905-65.566-57.752-108.05-67.813-15.931-3.7726-32.162-5.528-48.328-5.3008zm-169.23 277.58-17.924 17.159 17.103 17.982 17.924-17.159zm-114.67-84.565 96.749 101.72 35.847-34.318-96.749-101.72zm131.78 102.55 101.39-97.066-34.206-35.964-101.39 97.065z" color="#000000" fill="#fff" stroke-linecap="round"/>
</svg>
