<?xml version="1.0" encoding="UTF-8"?>
<svg width="800px" height="800px" version="1.1" viewBox="0 0 16 16" xmlns="http://www.w3.org/2000/svg">
 <path d="m5.2333 0.49364c1.6468-0.60698 3.4475-0.65556 5.1246-0.13827 1.044 0.32202 2.0041 0.85219 2.8259 1.5513l0.26876 0.23925 0.8403-0.84033c0.60261-0.60257 1.6143-0.22056 1.7011 0.59348l0.005983 0.11363v3.9873h-3.9873c-0.85217 0-1.2974-0.98551-0.78321-1.6225l0.076111-0.084581 0.7316-0.73154c-0.6482-0.58953-1.4216-1.0336-2.2688-1.2948-1.2578-0.38797-2.6084-0.35153-3.8435 0.1037-1.2351 0.45524-2.2862 1.304-2.9914 2.4155-0.70517 1.1115-1.0252 2.424-0.91093 3.7354 0.11433 1.3113 0.65672 2.5487 1.5436 3.5214 0.88688 0.9727 2.069 1.6268 3.3642 1.8614s2.6317 0.0368 3.8034-0.563c1.1718-0.5997 2.1137-1.5682 2.6808-2.7561 0.2379-0.4984 0.8348-0.7096 1.3333-0.4717 0.4984 0.2379 0.7095 0.8349 0.4716 1.3333-0.7561 1.5838-2.012 2.8751-3.5743 3.6749-1.5624 0.7997-3.3443 1.0634-5.0713 0.7506-1.727-0.3129-3.3032-1.1849-4.4857-2.4819-1.1825-1.2969-1.9057-2.9467-2.0581-4.6952-0.15243-1.7485 0.27434-3.4985 1.2146-4.9805 0.94023-1.482 2.3417-2.6137 3.9885-3.2207zm0.76669 4.9671c0-0.36604 0.37499-0.59841 0.6951-0.4607l0.072701 0.038457 4.0036 2.5392c0.28145 0.17851 0.30704 0.56809 0.07676 0.78498l-0.07676 0.059501-4.0036 2.5393c-0.30912 0.19602-0.70619 0.003774-0.76134-0.34031l-0.006461-0.081991v-5.0784z" fill="#fff" fill-rule="evenodd"/>
 <rect transform="matrix(-.70153 -.71264 .71194 -.70224 0 0)" x="-21.619" y="-1.6734" width="20.44" height="3.5801" rx="1.6638" fill="#fff" stroke-width=".50703"/>
</svg>
