<?xml version="1.0" encoding="UTF-8"?>
<svg width="512" height="512" fill="none" version="1.1" viewBox="0 0 512 512" xmlns="http://www.w3.org/2000/svg">
 <g transform="matrix(23.119 0 0 23.096 -21.41 -32.691)" fill="#fff">
  <path d="m9 15a1 1 0 0 0-1 1 1 1 0 0 0 1 1h4a1 1 0 0 0 1-1 1 1 0 0 0-1-1zm0-4a1 1 0 0 0-1 1 1 1 0 0 0 1 1h6a1 1 0 0 0 1-1 1 1 0 0 0-1-1zm2-9c-1.645 0-3 1.355-3 3s1.355 3 3 3h2c1.645 0 3-1.355 3-3s-1.355-3-3-3zm0 2h2c0.56418 0 1 0.43585 1 1s-0.43582 1-1 1h-2c-0.56413 0-1-0.43587-1-1s0.43587-1 1-1zm-2.5 0c-1.4045 0-2.3051-0.069372-3.166 0.50586-0.32755 0.21887-0.60926 0.50057-0.82812 0.82812-0.57523 0.8609-0.50586 1.7616-0.50586 3.166v9.5c0 0.9428-0.00642 1.6702 0.082031 2.3281 0.088455 0.65791 0.31431 1.3104 0.79688 1.793 0.48257 0.48258 1.1351 0.70842 1.793 0.79688 0.65792 0.088456 1.3853 0.082031 2.3281 0.082031h6c0.9428 0 1.6702 0.0064 2.3281-0.08203 0.65791-0.08846 1.3104-0.3143 1.793-0.79688s0.70842-1.1351 0.79688-1.793c0.088456-0.65791 0.082031-1.3853 0.082031-2.3281v-9.5c0-1.4045 0.069442-2.3051-0.50586-3.166-0.21887-0.3276-0.50053-0.60925-0.82812-0.82812-0.86088-0.57527-1.7615-0.50586-3.166-0.50586v2c1.4045 0 1.9068 0.06912 2.0547 0.16797 0.10921 0.072965 0.20441 0.16818 0.27734 0.27734 0.098898 0.14799 0.16797 0.65023 0.16797 2.0547v9.5c0 0.9428-0.0065 1.6292-0.06445 2.0605-0.05799 0.43134-0.12529 0.54326-0.22852 0.64648-0.10323 0.10323-0.21515 0.17052-0.64648 0.22852-0.43134 0.057993-1.1178 0.064453-2.0606 0.064453h-6c-0.94281 0-1.6292-0.00646-2.0605-0.064453-0.43134-0.057994-0.54327-0.1253-0.64648-0.22852-0.10322-0.10323-0.17052-0.21514-0.22852-0.64648-0.057993-0.43134-0.064453-1.1177-0.064453-2.0605v-9.5c0-1.4045 0.069081-1.9067 0.16797-2.0547 0.072972-0.10921 0.16814-0.20437 0.27734-0.27734 0.148-0.098888 0.65023-0.16797 2.0547-0.16797z" color="#000000" fill="#fff" stroke-linecap="round" style="-inkscape-stroke:none"/>
 </g>
</svg>
