<?xml version="1.0" encoding="UTF-8"?>
<svg width="512" height="512" fill="none" version="1.1" viewBox="0 0 512 512" xmlns="http://www.w3.org/2000/svg">
 <path d="m473.18 256.01c0 119.94-97.225 217.16-217.16 217.16-119.93 0-217.16-97.225-217.16-217.16 0-119.93 97.226-217.16 217.16-217.16 119.94 0 217.16 97.226 217.16 217.16zm-325.15 107.59c-9.4228-9.4224-9.4228-24.701 0-34.123l73.866-73.467-75.064-75.063c-9.4228-9.4231-9.4228-24.701 0-34.124 9.4231-9.4228 24.701-9.4228 34.124 0l75.063 75.064 73.068-74.664c9.4223-9.4228 24.701-9.4228 34.123 0 9.4224 9.4231 9.4224 24.701 0 34.124l-73.068 74.664 74.091 75.503c9.4224 9.4223 9.4224 24.701 0 34.123-9.4224 9.4224-24.701 9.4224-34.123 0l-74.091-75.503-73.866 73.467c-9.4231 9.4224-24.701 9.4224-34.124 0z" clip-rule="evenodd" fill="#fff" fill-rule="evenodd" stroke="#000" stroke-width="4.527"/>
</svg>
