<?xml version="1.0" encoding="UTF-8"?>
<svg width="512" height="512" fill="none" version="1.1" viewBox="0 0 512 512" xmlns="http://www.w3.org/2000/svg">
 <path d="m171.12 104.22a19.569 19.569 0 0 0-19.566 19.566v356.14a19.569 19.569 0 0 0 19.566 19.566h263.64a19.569 19.569 0 0 0 19.566-19.566v-356.14a19.569 19.569 0 0 0-19.566-19.566zm19.566 39.133h224.51v317.01h-224.51zm-113.52-129.85a19.569 19.569 0 0 0-19.568 19.566v356.14a19.569 19.569 0 0 0 19.568 19.566h263.64a19.569 19.569 0 0 0 19.566-19.566v-356.14a19.569 19.569 0 0 0-19.566-19.566zm19.566 39.135h224.51v317.01h-224.51z" color="#000000" fill="#fff" stroke-linecap="square" stroke-linejoin="round"/>
</svg>
