<?xml version="1.0" encoding="UTF-8"?>
<svg id="DESIGNS" width="32px" height="32px" enable-background="new 0 0 32 32" version="1.1" viewBox="0 0 32 32" xml:space="preserve" xmlns="http://www.w3.org/2000/svg">
<path class="sharpcorners_een" d="m13.019 14.876m0.379 4.672c1 1.21 1.602 2.762 1.602 4.452 0 3.86-3.14 7-7 7s-7-3.14-7-7 3.14-7 7-7h2.099l1.25-0.909-1.25-0.909h-2.099c-3.86 0-7-3.14-7-7s3.14-7 7-7 7 3.14 7 7c0 1.69-0.602 3.242-1.602 4.452l1.352 0.984 9.615-6.993c4.459-3.243 6.811-7e-3 6.811-7e-3l-17.778 12.93zm0.602-3.548c0 0.552 0.448 1 1 1s1-0.448 1-1-0.448-1-1-1-1 0.448-1 1zm-2 8c0-2.209-1.791-4-4-4s-4 1.791-4 4 1.791 4 4 4 4-1.791 4-4zm0-15.818c0-2.209-1.791-4-4-4s-4 1.791-4 4 1.791 4 4 4 4-1.791 4-4zm3.6 11 8.765 6.375c4.459 3.243 6.811 7e-3 6.811 7e-3l-12.176-8.855-3.4 2.473z" fill="#fff"/>
</svg>
