<?xml version="1.0" encoding="UTF-8"?>
<svg width="24" height="24" version="1.1" viewBox="0 0 24 24" xmlns="http://www.w3.org/2000/svg">
 <path d="m12 12.586 2.2929-2.2929 1.4142 1.4142-2.2929 2.2929 2.2929 2.2929-1.4142 1.4142-2.2929-2.2929-2.2929 2.2929-1.4142-1.4142 2.2929-2.2929-2.2929-2.2929 1.4142-1.4142 2.2929 2.2929zm3-9.1716v3.5858h3.5858l-3.5858-3.5858zm4 5.5858h-4c-1.1046 0-2-0.89543-2-2v-4h-8v18h14v-12zm-14-8h10.414l5.5858 5.5858v14.414c0 1.1046-0.89543 2-2 2h-14c-1.1046 0-2-0.89543-2-2v-18c0-1.1046 0.89543-2 2-2z" fill="#fff" fill-rule="evenodd"/>
</svg>
