<?xml version="1.0" encoding="UTF-8"?>
<svg width="512" height="512" fill="none" version="1.1" viewBox="0 0 512 512" xmlns="http://www.w3.org/2000/svg">
 <g transform="matrix(23.597 0 0 23.588 -30.712 -28.676)" fill="#fff">
  <g transform="matrix(1.2581 0 0 1.1144 -2.947 -1.3432)" fill="#fff" stroke-linecap="round">
   <path d="m12 3c-2.0488 0-3.9077 0.34355-5.3438 0.95898-0.71801 0.30772-1.3362 0.68137-1.8184 1.1699-0.48216 0.48855-0.83789 1.1416-0.83789 1.8711s0.35573 1.3825 0.83789 1.8711c0.48216 0.48855 1.1003 0.8622 1.8184 1.1699 1.436 0.61544 3.2949 0.95898 5.3438 0.95898 2.0488 0 3.9077-0.34354 5.3438-0.95898 0.71801-0.30772 1.3362-0.68137 1.8184-1.1699 0.48216-0.48855 0.83789-1.1416 0.83789-1.8711s-0.35573-1.3825-0.83789-1.8711c-0.48216-0.48855-1.1003-0.8622-1.8184-1.1699-1.436-0.61544-3.2949-0.95898-5.3438-0.95898zm0 2c1.8172 0 3.4592 0.32653 4.5566 0.79688 0.54874 0.23517 0.95536 0.509 1.1816 0.73828 0.22628 0.22928 0.26172 0.36589 0.26172 0.46484s-0.035441 0.23557-0.26172 0.46484c-0.22628 0.22928-0.6329 0.50311-1.1816 0.73828-1.0975 0.47035-2.7395 0.79688-4.5566 0.79688s-3.4592-0.32653-4.5566-0.79688c-0.54874-0.23517-0.95536-0.509-1.1816-0.73828-0.22628-0.22928-0.26172-0.36589-0.26172-0.46484s0.035441-0.23557 0.26172-0.46484c0.22628-0.22928 0.6329-0.50311 1.1816-0.73828 1.0975-0.47035 2.7395-0.79688 4.5566-0.79688z" color="#000000" style="-inkscape-stroke:none"/>
   <path d="m4.8203 6.0156a1 1 0 0 0-0.80469 1.1641l1.9961 10.979c0.039045 0.2134 0.143 0.4098 0.29492 0.5625l0.00195 2e-3c3.1353 3.1352 8.2476 3.1353 11.383 0 0.15411-0.15411 0.25604-0.35056 0.29492-0.56055l2e-3 -2e-3 1.9961-10.98a1 1 0 0 0-0.80473-1.1641 1 1 0 0 0-1.1641 0.80469l-1.9297 10.615c-2.3218 2.15-5.85 2.15-8.1719 0l-1.9297-10.615a1 1 0 0 0-1.1641-0.80469z" color="#000000" style="-inkscape-stroke:none"/>
  </g>
 </g>
</svg>
