<?xml version="1.0" encoding="UTF-8"?>
<svg enable-background="new 0 0 512 512" version="1.1" viewBox="0 0 512 512" xml:space="preserve" xmlns="http://www.w3.org/2000/svg">
<style type="text/css">
	.st0{fill:#FFFFFF;stroke:#000000;stroke-width:2;}
</style>


	<path class="st0" d="m423.8 163.2h-330.8c-14 0-25.3-11.3-25.3-25.3s11.3-25.4 25.3-25.4h330.9c14 0 25.3 11.3 25.3 25.3s-11.4 25.4-25.4 25.4z"/>


	<path class="st0" d="m421.5 281.2h-330.9c-14 0-25.3-11.3-25.3-25.3s11.3-25.3 25.3-25.3h330.9c14 0 25.3 11.3 25.3 25.3s-11.3 25.3-25.3 25.3z"/>


	<path class="st0" d="m421.5 399.7h-330.9c-14 0-25.3-11.3-25.3-25.3s11.3-25.4 25.3-25.4h330.9c14 0 25.3 11.3 25.3 25.3s-11.3 25.4-25.3 25.4z"/>
<g transform="rotate(90 174.26 266.91)"><g transform="translate(-93.896 -70.924)" fill="#fff" stroke="#000" stroke-width="2">
	<path class="st0" d="m423.8 163.2h-330.8c-14 0-25.3-11.3-25.3-25.3s11.3-25.4 25.3-25.4h330.9c14 0 25.3 11.3 25.3 25.3s-11.4 25.4-25.4 25.4z"/>

	<path class="st0" d="m421.5 281.2h-330.9c-14 0-25.3-11.3-25.3-25.3s11.3-25.3 25.3-25.3h330.9c14 0 25.3 11.3 25.3 25.3s-11.3 25.3-25.3 25.3z"/>

	<path class="st0" d="m421.5 399.7h-330.9c-14 0-25.3-11.3-25.3-25.3s11.3-25.4 25.3-25.4h330.9c14 0 25.3 11.3 25.3 25.3s-11.3 25.4-25.3 25.4z"/>
</g></g>
</svg>
