<?xml version="1.0" encoding="UTF-8"?>
<svg width="800px" height="800px" fill="#000000" version="1.1" viewBox="0 0 466.34 466.34" xml:space="preserve" xmlns="http://www.w3.org/2000/svg">
<g fill="#fff">
	<path d="m233.17 0c-128.56 0-233.17 104.6-233.17 233.17 0 128.56 104.6 233.17 233.17 233.17 128.56 0 233.17-104.6 233.17-233.17 0-128.56-104.6-233.17-233.17-233.17zm-9.184 441.87c-22.321 0-46.405-41.384-59.045-107.82h118.07c-12.635 66.431-36.69 107.82-59.022 107.82zm-62.87-131.73c-2.738-19.991-4.437-41.781-4.881-65.018h135.51c-0.443 23.237-2.148 45.027-4.869 65.018h-125.76zm-136.59-65.018h107.7c0.443 21.883 2.09 43.859 4.887 65.018h-98.344c-8.075-20.318-12.95-42.178-14.247-65.018zm199.46-220.66c21.982 0 45.687 40.14 58.484 104.88h-116.97c12.788-64.737 36.498-104.88 58.486-104.88zm62.479 128.78c2.978 20.785 4.811 43.596 5.277 67.966h-135.52c0.467-24.37 2.295-47.169 5.272-67.966h124.97zm-154.24 67.966h-107.7c1.354-23.926 6.568-46.836 15.332-67.966h97.656c-3.047 22.075-4.828 45.067-5.283 67.966zm183.52 23.915h126.06c-1.296 22.84-6.188 44.7-14.246 65.018h-116.71c2.791-21.159 4.45-43.135 4.894-65.018zm0-23.915c-0.468-22.898-2.254-45.891-5.29-67.966h116.02c8.77 21.13 13.978 44.04 15.332 67.966h-126.06zm98.847-91.881h-107.98c-7.894-42.067-20.727-78.844-38.195-102.22 62.53 10.691 115.64 49.097 146.17 102.22zm-238.52-97.294c-15.7 23.459-27.348 58.1-34.699 97.305h-89.633c26.916-46.836 71.323-82.241 124.33-97.305zm-126.11 302.02h90.895c7.311 40.403 19.133 76.205 35.219 100.26-54.13-15.414-99.402-51.94-126.11-100.26zm218.45 105.16c17.865-23.938 30.874-61.889 38.697-105.16h109.27c-30.231 54.685-84.261 94.281-147.97 105.16z" fill="#fff"/>
</g>
</svg>
