<?xml version="1.0" encoding="UTF-8"?>
<svg width="512" height="512" version="1.1" viewBox="0 0 512 512" xmlns="http://www.w3.org/2000/svg">
 <g transform="rotate(90 256 256)" fill="#fff" stroke-linecap="round">
  <path d="m71.93 13.518c-32.023 0-58.412 18.485-58.412 40.916v136.38c0 22.431 26.389 40.916 58.412 40.916h194.7c32.023 0 58.412-18.485 58.412-40.916v-136.38c0-22.431-26.389-40.916-58.412-40.916zm0 27.277h194.7c11.123 0 19.471 5.8472 19.471 13.639v136.38c0 7.7915-8.3475 13.639-19.471 13.639h-194.7c-11.123 0-19.471-5.8472-19.471-13.639v-136.38c0-7.7915 8.3475-13.639 19.471-13.639z" color="#000000" stroke-width="1.1948" style="-inkscape-stroke:none"/>
  <g transform="matrix(.63796 0 0 1 4.8875 0)">
   <path d="m62 304.5h121.25c13.434 0 24.25 10.816 24.25 24.25v121.25c0 13.434-10.816 24.25-24.25 24.25h-121.25c-13.434 0-24.25-10.816-24.25-24.25v-121.25c0-13.434 10.815-24.25 24.25-24.25z" color="#000000" stroke-width="48.5"/>
   <path d="m62 280.25c-26.45 0-48.5 22.05-48.5 48.5v121.25c0 26.45 22.05 48.5 48.5 48.5h121.25c26.45 0 48.5-22.05 48.5-48.5v-121.25c0-26.45-22.05-48.5-48.5-48.5zm0 48.5h121.25v121.25h-121.25z" color="#000000"/>
  </g>
  <g transform="matrix(.63796 0 0 1 180.48 0)">
   <path d="m328.75 37.75h121.25c13.434 0 24.25 10.815 24.25 24.25v121.25c0 13.434-10.816 24.25-24.25 24.25h-121.25c-13.434 0-24.25-10.816-24.25-24.25v-121.25c0-13.434 10.816-24.25 24.25-24.25z" color="#000000" stroke-width="48.5"/>
   <path d="m328.75 13.5c-26.45 0-48.5 22.05-48.5 48.5v121.25c0 26.45 22.05 48.5 48.5 48.5h121.25c26.45 0 48.5-22.05 48.5-48.5v-121.25c0-26.45-22.05-48.5-48.5-48.5zm0 48.5h121.25v121.25h-121.25z" color="#000000"/>
  </g>
  <path d="m242.15 280.25c-32.022 0-58.409 18.487-58.409 40.922v136.41c0 22.435 26.387 40.922 58.409 40.922h194.7c32.022 0 58.409-18.487 58.409-40.922v-136.41c0-22.435-26.387-40.922-58.409-40.922zm0 27.281h194.7c11.123 0 19.47 5.8478 19.47 13.641v136.41c0 7.7929-8.3468 13.641-19.47 13.641h-194.7c-11.123 0-19.47-5.8478-19.47-13.641v-136.41c0-7.7928 8.3468-13.641 19.47-13.641z" color="#000000" stroke-width="1.1947"/>
 </g>
</svg>
