<?xml version="1.0" encoding="UTF-8"?>
<svg width="512" height="512" fill="none" version="1.1" viewBox="0 0 512 512" xmlns="http://www.w3.org/2000/svg">
 <g fill="#fff">
  <path d="m280.48 384.71c0 11.395-10.964 20.632-24.49 20.632-13.526 0-24.49-9.2369-24.49-20.632zm-48.979-288.85c0-11.395 10.964-20.632 24.49-20.632 13.526 0 24.49 9.2371 24.49 20.632zm0 288.85v-288.85h48.979v288.85z" stroke-width="22.478"/>
  <path d="m260.97 496.33 95.339-133.47c9.2622-12.967-7e-3 -30.979-15.942-30.979h-168.75c-15.935 0-25.205 18.012-15.943 30.979l95.338 133.47c2.4416 3.4188 7.5208 3.4188 9.9624 0z" stroke-width="24.49"/>
  <path d="m251.32 15.666-95.62 133.27c-9.2896 12.948-0.0584 30.979 15.877 31.013l168.75 0.35609c15.935 0.0336 25.243-17.959 16.008-30.946l-95.056-133.67c-2.4344-3.4239-7.5135-3.4346-9.9624-0.021z" stroke-width="24.49"/>
 </g>
</svg>
