<?xml version="1.0" encoding="UTF-8"?>
<svg width="33" height="32" version="1.1" viewBox="0 0 33 32" xmlns="http://www.w3.org/2000/svg" xmlns:dc="http://purl.org/dc/elements/1.1/" xmlns:rdf="http://www.w3.org/1999/02/22-rdf-syntax-ns#">
 <path d="m13.416 16h10.997v-4c0-0.10733 0.02967-0.20867 0.089-0.304 0.036-0.08333 0.11933-0.15467 0.25-0.214 0.11933-0.036 0.22633-0.048 0.321-0.036 0.11933 0.024 0.22067 0.06567 0.304 0.125l6.857 6.304c0.07133 0.07133 0.113 0.131 0.125 0.179 0.036 0.07133 0.054 0.14867 0.054 0.232 0 0.08333-0.018 0.16067-0.054 0.232-0.012 0.05933-0.05367 0.12467-0.125 0.196l-6.857 6.268c-0.07133 0.07133-0.17267 0.119-0.304 0.143-0.09533 0.012-0.20233 0-0.321-0.036-0.10733-0.04733-0.19067-0.11267-0.25-0.196-0.05933-0.09533-0.089-0.20233-0.089-0.321v-4h-10.997c-0.17867-0.024-0.31567-0.08367-0.411-0.179-0.10733-0.09533-0.161-0.22633-0.161-0.393v-3.429c0-0.16667 0.05367-0.30367 0.161-0.411 0.10733-0.10733 0.24433-0.161 0.411-0.161zm-13.416-4v16c0 0.29733 0.077333 0.589 0.232 0.875 0.16667 0.25 0.375 0.45233 0.625 0.607 0.238 0.15467 0.52367 0.232 0.857 0.232h19.429c0.32133 0 0.613-0.07733 0.875-0.232 0.25-0.15467 0.45233-0.357 0.607-0.607 0.15467-0.262 0.232-0.55367 0.232-0.875v-5.714h-2.286v5.143h-18.286v-13.714h7.429c0.32133 0 0.613-0.07733 0.875-0.232 0.25-0.15467 0.45233-0.357 0.607-0.607 0.15467-0.262 0.232-0.55367 0.232-0.875v-7.429h9.143v9.714h2.286v-10.286c0-0.33333-0.07733-0.619-0.232-0.857-0.15467-0.25-0.357-0.45833-0.607-0.625-0.286-0.15467-0.57767-0.232-0.875-0.232h-11.429c-0.30933 0-0.65467 0.053667-1.036 0.161-0.32133 0.095333-0.67267 0.244-1.054 0.446-0.34533 0.19067-0.625 0.393-0.839 0.607l-5.571 5.571c-0.262 0.274-0.46433 0.55367-0.607 0.839-0.17867 0.33333-0.32167 0.68467-0.429 1.054-0.11933 0.35733-0.179 0.70267-0.179 1.036zm9.143-0.571h-6.714c0.047333-0.13067 0.11267-0.27367 0.196-0.429 0.071333-0.14267 0.13667-0.244 0.196-0.304l5.589-5.589c0.047333-0.047333 0.14867-0.11867 0.304-0.214 0.25-0.10733 0.393-0.167 0.429-0.179v6.714z" fill="#fff"/>
</svg>
