<?xml version="1.0" encoding="UTF-8"?>
<svg width="600" height="600" version="1.1" viewBox="0 0 600 600" xml:space="preserve" xmlns="http://www.w3.org/2000/svg"><g fill="#fff">
<g transform="translate(288,48) scale(4.12)"><rect width="6" height="6" fill="#fff"/></g>
<g transform="translate(312,48) scale(4.12)"><rect width="6" height="6" fill="#fff"/></g>
<g transform="translate(336,48) scale(4.12)"><rect width="6" height="6" fill="#fff"/></g>
<g transform="translate(240,72) scale(4.12)"><rect width="6" height="6" fill="#fff"/></g>
<g transform="translate(264,72) scale(4.12)"><rect width="6" height="6" fill="#fff"/></g>
<g transform="translate(288,72) scale(4.12)"><rect width="6" height="6" fill="#fff"/></g>
<g transform="translate(336,72) scale(4.12)"><rect width="6" height="6" fill="#fff"/></g>
<g transform="translate(288,96) scale(4.12)"><rect width="6" height="6" fill="#fff"/></g>
<g transform="translate(312,96) scale(4.12)"><rect width="6" height="6" fill="#fff"/></g>
<g transform="translate(336,96) scale(4.12)"><rect width="6" height="6" fill="#fff"/></g>
<g transform="translate(240,120) scale(4.12)"><rect width="6" height="6" fill="#fff"/></g>
<g transform="translate(264,120) scale(4.12)"><rect width="6" height="6" fill="#fff"/></g>
<g transform="translate(336,120) scale(4.12)"><rect width="6" height="6" fill="#fff"/></g>
<g transform="translate(264,144) scale(4.12)"><rect width="6" height="6" fill="#fff"/></g>
<g transform="translate(336,144) scale(4.12)"><rect width="6" height="6" fill="#fff"/></g>
<g transform="translate(240,168) scale(4.12)"><rect width="6" height="6" fill="#fff"/></g>
<g transform="translate(312,168) scale(4.12)"><rect width="6" height="6" fill="#fff"/></g>
<g transform="translate(240,192) scale(4.12)"><rect width="6" height="6" fill="#fff"/></g>
<g transform="translate(288,192) scale(4.12)"><rect width="6" height="6" fill="#fff"/></g>
<g transform="translate(336,192) scale(4.12)"><rect width="6" height="6" fill="#fff"/></g>
<g transform="translate(264,216) scale(4.12)"><rect width="6" height="6" fill="#fff"/></g>
<g transform="translate(48,240) scale(4.12)"><rect width="6" height="6" fill="#fff"/></g>
<g transform="translate(72,240) scale(4.12)"><rect width="6" height="6" fill="#fff"/></g>
<g transform="translate(96,240) scale(4.12)"><rect width="6" height="6" fill="#fff"/></g>
<g transform="translate(120,240) scale(4.12)"><rect width="6" height="6" fill="#fff"/></g>
<g transform="translate(144,240) scale(4.12)"><rect width="6" height="6" fill="#fff"/></g>
<g transform="translate(192,240) scale(4.12)"><rect width="6" height="6" fill="#fff"/></g>
<g transform="translate(216,240) scale(4.12)"><rect width="6" height="6" fill="#fff"/></g>
<g transform="translate(240,240) scale(4.12)"><rect width="6" height="6" fill="#fff"/></g>
<g transform="translate(312,240) scale(4.12)"><rect width="6" height="6" fill="#fff"/></g>
<g transform="translate(360,240) scale(4.12)"><rect width="6" height="6" fill="#fff"/></g>
<g transform="translate(408,240) scale(4.12)"><rect width="6" height="6" fill="#fff"/></g>
<g transform="translate(456,240) scale(4.12)"><rect width="6" height="6" fill="#fff"/></g>
<g transform="translate(504,240) scale(4.12)"><rect width="6" height="6" fill="#fff"/></g>
<g transform="translate(72,264) scale(4.12)"><rect width="6" height="6" fill="#fff"/></g>
<g transform="translate(96,264) scale(4.12)"><rect width="6" height="6" fill="#fff"/></g>
<g transform="translate(120,264) scale(4.12)"><rect width="6" height="6" fill="#fff"/></g>
<g transform="translate(168,264) scale(4.12)"><rect width="6" height="6" fill="#fff"/></g>
<g transform="translate(264,264) scale(4.12)"><rect width="6" height="6" fill="#fff"/></g>
<g transform="translate(312,264) scale(4.12)"><rect width="6" height="6" fill="#fff"/></g>
<g transform="translate(336,264) scale(4.12)"><rect width="6" height="6" fill="#fff"/></g>
<g transform="translate(360,264) scale(4.12)"><rect width="6" height="6" fill="#fff"/></g>
<g transform="translate(384,264) scale(4.12)"><rect width="6" height="6" fill="#fff"/></g>
<g transform="translate(408,264) scale(4.12)"><rect width="6" height="6" fill="#fff"/></g>
<g transform="translate(528,264) scale(4.12)"><rect width="6" height="6" fill="#fff"/></g>
<g transform="translate(72,288) scale(4.12)"><rect width="6" height="6" fill="#fff"/></g>
<g transform="translate(96,288) scale(4.12)"><rect width="6" height="6" fill="#fff"/></g>
<g transform="translate(120,288) scale(4.12)"><rect width="6" height="6" fill="#fff"/></g>
<g transform="translate(168,288) scale(4.12)"><rect width="6" height="6" fill="#fff"/></g>
<g transform="translate(192,288) scale(4.12)"><rect width="6" height="6" fill="#fff"/></g>
<g transform="translate(216,288) scale(4.12)"><rect width="6" height="6" fill="#fff"/></g>
<g transform="translate(264,288) scale(4.12)"><rect width="6" height="6" fill="#fff"/></g>
<g transform="translate(336,288) scale(4.12)"><rect width="6" height="6" fill="#fff"/></g>
<g transform="translate(384,288) scale(4.12)"><rect width="6" height="6" fill="#fff"/></g>
<g transform="translate(408,288) scale(4.12)"><rect width="6" height="6" fill="#fff"/></g>
<g transform="translate(480,288) scale(4.12)"><rect width="6" height="6" fill="#fff"/></g>
<g transform="translate(504,288) scale(4.12)"><rect width="6" height="6" fill="#fff"/></g>
<g transform="translate(72,312) scale(4.12)"><rect width="6" height="6" fill="#fff"/></g>
<g transform="translate(96,312) scale(4.12)"><rect width="6" height="6" fill="#fff"/></g>
<g transform="translate(216,312) scale(4.12)"><rect width="6" height="6" fill="#fff"/></g>
<g transform="translate(240,312) scale(4.12)"><rect width="6" height="6" fill="#fff"/></g>
<g transform="translate(312,312) scale(4.12)"><rect width="6" height="6" fill="#fff"/></g>
<g transform="translate(336,312) scale(4.12)"><rect width="6" height="6" fill="#fff"/></g>
<g transform="translate(360,312) scale(4.12)"><rect width="6" height="6" fill="#fff"/></g>
<g transform="translate(384,312) scale(4.12)"><rect width="6" height="6" fill="#fff"/></g>
<g transform="translate(408,312) scale(4.12)"><rect width="6" height="6" fill="#fff"/></g>
<g transform="translate(456,312) scale(4.12)"><rect width="6" height="6" fill="#fff"/></g>
<g transform="translate(480,312) scale(4.12)"><rect width="6" height="6" fill="#fff"/></g>
<g transform="translate(72,336) scale(4.12)"><rect width="6" height="6" fill="#fff"/></g>
<g transform="translate(96,336) scale(4.12)"><rect width="6" height="6" fill="#fff"/></g>
<g transform="translate(120,336) scale(4.12)"><rect width="6" height="6" fill="#fff"/></g>
<g transform="translate(144,336) scale(4.12)"><rect width="6" height="6" fill="#fff"/></g>
<g transform="translate(168,336) scale(4.12)"><rect width="6" height="6" fill="#fff"/></g>
<g transform="translate(192,336) scale(4.12)"><rect width="6" height="6" fill="#fff"/></g>
<g transform="translate(336,336) scale(4.12)"><rect width="6" height="6" fill="#fff"/></g>
<g transform="translate(240,360) scale(4.12)"><rect width="6" height="6" fill="#fff"/></g>
<g transform="translate(264,360) scale(4.12)"><rect width="6" height="6" fill="#fff"/></g>
<g transform="translate(336,360) scale(4.12)"><rect width="6" height="6" fill="#fff"/></g>
<g transform="translate(432,360) scale(4.12)"><rect width="6" height="6" fill="#fff"/></g>
<g transform="translate(456,360) scale(4.12)"><rect width="6" height="6" fill="#fff"/></g>
<g transform="translate(504,360) scale(4.12)"><rect width="6" height="6" fill="#fff"/></g>
<g transform="translate(240,384) scale(4.12)"><rect width="6" height="6" fill="#fff"/></g>
<g transform="translate(288,384) scale(4.12)"><rect width="6" height="6" fill="#fff"/></g>
<g transform="translate(312,384) scale(4.12)"><rect width="6" height="6" fill="#fff"/></g>
<g transform="translate(360,384) scale(4.12)"><rect width="6" height="6" fill="#fff"/></g>
<g transform="translate(456,384) scale(4.12)"><rect width="6" height="6" fill="#fff"/></g>
<g transform="translate(504,384) scale(4.12)"><rect width="6" height="6" fill="#fff"/></g>
<g transform="translate(264,408) scale(4.12)"><rect width="6" height="6" fill="#fff"/></g>
<g transform="translate(288,408) scale(4.12)"><rect width="6" height="6" fill="#fff"/></g>
<g transform="translate(456,408) scale(4.12)"><rect width="6" height="6" fill="#fff"/></g>
<g transform="translate(480,408) scale(4.12)"><rect width="6" height="6" fill="#fff"/></g>
<g transform="translate(504,408) scale(4.12)"><rect width="6" height="6" fill="#fff"/></g>
<g transform="translate(528,408) scale(4.12)"><rect width="6" height="6" fill="#fff"/></g>
<g transform="translate(240,432) scale(4.12)"><rect width="6" height="6" fill="#fff"/></g>
<g transform="translate(264,432) scale(4.12)"><rect width="6" height="6" fill="#fff"/></g>
<g transform="translate(312,432) scale(4.12)"><rect width="6" height="6" fill="#fff"/></g>
<g transform="translate(360,432) scale(4.12)"><rect width="6" height="6" fill="#fff"/></g>
<g transform="translate(408,432) scale(4.12)"><rect width="6" height="6" fill="#fff"/></g>
<g transform="translate(456,432) scale(4.12)"><rect width="6" height="6" fill="#fff"/></g>
<g transform="translate(504,432) scale(4.12)"><rect width="6" height="6" fill="#fff"/></g>
<g transform="translate(240,456) scale(4.12)"><rect width="6" height="6" fill="#fff"/></g>
<g transform="translate(312,456) scale(4.12)"><rect width="6" height="6" fill="#fff"/></g>
<g transform="translate(336,456) scale(4.12)"><rect width="6" height="6" fill="#fff"/></g>
<g transform="translate(360,456) scale(4.12)"><rect width="6" height="6" fill="#fff"/></g>
<g transform="translate(384,456) scale(4.12)"><rect width="6" height="6" fill="#fff"/></g>
<g transform="translate(456,456) scale(4.12)"><rect width="6" height="6" fill="#fff"/></g>
<g transform="translate(480,456) scale(4.12)"><rect width="6" height="6" fill="#fff"/></g>
<g transform="translate(240,480) scale(4.12)"><rect width="6" height="6" fill="#fff"/></g>
<g transform="translate(288,480) scale(4.12)"><rect width="6" height="6" fill="#fff"/></g>
<g transform="translate(336,480) scale(4.12)"><rect width="6" height="6" fill="#fff"/></g>
<g transform="translate(384,480) scale(4.12)"><rect width="6" height="6" fill="#fff"/></g>
<g transform="translate(480,480) scale(4.12)"><rect width="6" height="6" fill="#fff"/></g>
<g transform="translate(240,504) scale(4.12)"><rect width="6" height="6" fill="#fff"/></g>
<g transform="translate(264,504) scale(4.12)"><rect width="6" height="6" fill="#fff"/></g>
<g transform="translate(288,504) scale(4.12)"><rect width="6" height="6" fill="#fff"/></g>
<g transform="translate(312,504) scale(4.12)"><rect width="6" height="6" fill="#fff"/></g>
<g transform="translate(336,504) scale(4.12)"><rect width="6" height="6" fill="#fff"/></g>
<g transform="translate(360,504) scale(4.12)"><rect width="6" height="6" fill="#fff"/></g>
<g transform="translate(384,504) scale(4.12)"><rect width="6" height="6" fill="#fff"/></g>
<g transform="translate(432,504) scale(4.12)"><rect width="6" height="6" fill="#fff"/></g>
<g transform="translate(456,504) scale(4.12)"><rect width="6" height="6" fill="#fff"/></g>
<g transform="translate(480,504) scale(4.12)"><rect width="6" height="6" fill="#fff"/></g>
<g transform="translate(240,528) scale(4.12)"><rect width="6" height="6" fill="#fff"/></g>
<g transform="translate(288,528) scale(4.12)"><rect width="6" height="6" fill="#fff"/></g>
<g transform="translate(336,528) scale(4.12)"><rect width="6" height="6" fill="#fff"/></g>
<g transform="translate(432,528) scale(4.12)"><rect width="6" height="6" fill="#fff"/></g>
<g transform="translate(504,528) scale(4.12)"><rect width="6" height="6" fill="#fff"/></g>
<g transform="translate(48,48)"><g transform="scale(12)" fill="#fff"><path d="M0,0v14h14V0H0z M12,12H2V2h10V12z" fill="#fff"/></g></g>
<g transform="translate(384,48)"><g transform="scale(12)" fill="#fff"><path d="M0,0v14h14V0H0z M12,12H2V2h10V12z" fill="#fff"/></g></g>
<g transform="translate(48,384)"><g transform="scale(12)" fill="#fff"><path d="M0,0v14h14V0H0z M12,12H2V2h10V12z" fill="#fff"/></g></g>
<g transform="translate(96,96)"><g transform="scale(12)" fill="#fff"><rect width="6" height="6" fill="#fff"/></g></g>
<g transform="translate(432,96)"><g transform="scale(12)" fill="#fff"><rect width="6" height="6" fill="#fff"/></g></g>
<g transform="translate(96,432)"><g transform="scale(12)" fill="#fff"><rect width="6" height="6" fill="#fff"/></g></g>
</g></svg>
