<?xml version="1.0" encoding="UTF-8"?>
<!-- Uploaded to: SVG Repo, www.svgrepo.com, Generator: SVG Repo Mixer Tools -->
<svg width="800px" height="800px" version="1.1" viewBox="0 0 330 330" xml:space="preserve" xmlns="http://www.w3.org/2000/svg">
<path id="XMLID_225_" d="m265.09 158.42c-3.6463-3.6485-9.5598-3.6491-13.206 6.4e-4l-86.781 86.829-86.781-86.829c-3.6463-3.6485-9.5598-3.6491-13.206 6.1e-4 -3.647 3.6491-3.647 9.5646 0 13.214l93.381 93.437c1.7513 1.7522 4.1263 2.7364 6.6029 2.7364 2.4766 0 4.8523-0.9848 6.6029-2.7371l93.381-93.437c3.6476-3.6485 3.6476-9.5646 6.1e-4 -13.214z" fill="#fff" stroke="#000" stroke-width=".62274"/><path d="m264.9 171.58c-3.6463 3.6485-9.5598 3.6491-13.206-6.1e-4l-86.781-86.829-86.79 86.829c-3.6463 3.6485-9.5598 3.6491-13.206-6.2e-4 -3.647-3.6491-3.647-9.5646 0-13.214l93.381-93.437c1.7513-1.7522 4.1264-2.7365 6.6029-2.7365 2.4765 0 4.8522 0.98488 6.6029 2.7371l93.381 93.437c3.6476 3.6485 3.6476 9.5646 6.2e-4 13.214z" fill="#fff" stroke="#000" stroke-width=".62274"/>
</svg>
