<?xml version="1.0" encoding="UTF-8"?>
<svg width="512" height="512" version="1.1" viewBox="0 0 24.381 24.381" xmlns="http://www.w3.org/2000/svg">
 <path d="m7.6934 17.274 0.8833 0.4688-0.4688 0.8833-0.8833-0.4688zm3.5352-4.5279-2.6519 4.9967-1.7666-0.9376 2.6519-4.9967zm-4.004 5.4112-4.9967-2.6519 0.93759-1.7666 4.9967 2.6519z" fill="#fff"/>
 <path d="m14.561 5.3457c-1.7529-0.16732-3.5132 0.24934-5.0059 1.1836-1.4927 0.9343-2.6345 2.3346-3.25 3.9844-0.61536 1.6498-0.67042 3.4571-0.1543 5.1406a1 1 0 0 0 1.25 0.66406 1 1 0 0 0 0.66211-1.25c-0.38715-1.2629-0.34639-2.6178 0.11523-3.8555 0.46172-1.2377 1.3197-2.2875 2.4395-2.9883 1.1197-0.70082 2.4389-1.0122 3.7539-0.88672 1.315 0.12561 2.5508 0.68186 3.5176 1.582 0.96678 0.90017 1.6091 2.0938 1.8281 3.3965 0.21901 1.3027 0.0021 2.6398-0.61719 3.8066a1 1 0 0 0 0.41406 1.3516 1 1 0 0 0 1.3516-0.41406c0.82552-1.5554 1.1162-3.3396 0.82422-5.0762-0.29196-1.7366-1.1487-3.3293-2.4375-4.5293-1.2888-1.2-2.9384-1.9419-4.6914-2.1094z" color="#000000" fill="#fff" stroke-linecap="round" style="-inkscape-stroke:none"/>
</svg>
