<?xml version="1.0" encoding="UTF-8" standalone="no"?>
<!-- Created with Inkscape (http://www.inkscape.org/) -->

<svg
   width="3000"
   height="4000"
   viewBox="0 0 793.75 1058.3333"
   version="1.1"
   id="svg5"
   inkscape:version="1.2.2 (b0a8486541, 2022-12-01)"
   sodipodi:docname="folder.svg"
   xml:space="preserve"
   xmlns:inkscape="http://www.inkscape.org/namespaces/inkscape"
   xmlns:sodipodi="http://sodipodi.sourceforge.net/DTD/sodipodi-0.dtd"
   xmlns="http://www.w3.org/2000/svg"
   xmlns:svg="http://www.w3.org/2000/svg"><sodipodi:namedview
     id="namedview7"
     pagecolor="#000000"
     bordercolor="#666666"
     borderopacity="1.0"
     inkscape:showpageshadow="2"
     inkscape:pageopacity="0.0"
     inkscape:pagecheckerboard="0"
     inkscape:deskcolor="#d1d1d1"
     inkscape:document-units="mm"
     showgrid="false"
     inkscape:zoom="0.15480994"
     inkscape:cx="1178.8649"
     inkscape:cy="1763.4527"
     inkscape:window-width="1920"
     inkscape:window-height="1051"
     inkscape:window-x="0"
     inkscape:window-y="0"
     inkscape:window-maximized="1"
     inkscape:current-layer="layer1" /><defs
     id="defs2" /><g
     inkscape:label="Ebene 1"
     inkscape:groupmode="layer"
     id="layer1"><rect
       style="fill:#a7c8c8;fill-opacity:1;stroke:#a7c8c8;stroke-width:92.8229;stroke-linecap:round;stroke-linejoin:round;stroke-miterlimit:0;stroke-dasharray:none;stroke-opacity:1;paint-order:stroke fill markers"
       id="rect790"
       width="700.92712"
       height="965.51038"
       x="46.411449"
       y="46.411449"
       rx="91.823669"
       ry="101.97951" /><g
       id="g358"
       transform="matrix(0.61890628,0,0,0.62106135,238.43445,245.0199)"><g
         stroke="#000000"
         id="g342"><!--! Font Awesome Pro 6.4.0 by @fontawesome - https://fontawesome.com License - https://fontawesome.com/license (Commercial License) Copyright 2023 Fonticons, Inc. --><path
           d="M 0,96 C 0,60.7 28.7,32 64,32 h 132.1 c 19.1,0 37.4,7.6 50.9,21.1 L 289.9,96 H 448 c 35.3,0 64,28.7 64,64 v 256 c 0,35.3 -28.7,64 -64,64 H 64 C 28.7,480 0,451.3 0,416 Z M 64,80 c -8.8,0 -16,7.2 -16,16 v 320 c 0,8.8 7.2,16 16,16 h 384 c 8.8,0 16,-7.2 16,-16 V 160 c 0,-8.8 -7.2,-16 -16,-16 H 286.6 c -10.6,0 -20.8,-4.2 -28.3,-11.7 L 213.1,87 c -4.5,-4.5 -10.6,-7 -17,-7 z"
           fill="#ffffff"
           stroke="#ffffff"
           id="path340" /></g><rect
         x="32.917999"
         y="91.700996"
         width="220.44"
         height="345.06"
         fill="#ffffff"
         stroke="#ffffff"
         stroke-width="30"
         id="rect344" /><rect
         x="225.73"
         y="134.03"
         width="245.13"
         height="302.73001"
         fill="#ffffff"
         stroke="#ffffff"
         stroke-width="30"
         id="rect346" /></g></g></svg>
