<?xml version="1.0" encoding="UTF-8" standalone="no"?>
<!-- Created with Inkscape (http://www.inkscape.org/) -->

<svg
   width="4e3"
   height="4e3"
   version="1.1"
   viewBox="0 0 1058.3 1058.3"
   xml:space="preserve"
   id="svg3"
   sodipodi:docname="folder_network.svg"
   inkscape:version="1.4 (e7c3feb100, 2024-10-09)"
   xmlns:inkscape="http://www.inkscape.org/namespaces/inkscape"
   xmlns:sodipodi="http://sodipodi.sourceforge.net/DTD/sodipodi-0.dtd"
   xmlns="http://www.w3.org/2000/svg"
   xmlns:svg="http://www.w3.org/2000/svg"><defs
     id="defs3" /><sodipodi:namedview
     id="namedview3"
     pagecolor="#ffffff"
     bordercolor="#000000"
     borderopacity="0.25"
     inkscape:showpageshadow="2"
     inkscape:pageopacity="0.0"
     inkscape:pagecheckerboard="0"
     inkscape:deskcolor="#d1d1d1"
     inkscape:zoom="0.21925"
     inkscape:cx="2000"
     inkscape:cy="2000"
     inkscape:window-width="1920"
     inkscape:window-height="1128"
     inkscape:window-x="0"
     inkscape:window-y="0"
     inkscape:window-maximized="1"
     inkscape:current-layer="svg3" /><rect
     width="1058.3"
     height="1058.3"
     rx="0"
     ry="0"
     fill="#a7c8c8"
     stroke="#a7c8c8"
     stroke-linecap="round"
     stroke-linejoin="round"
     stroke-miterlimit="0"
     stroke-width="119.41"
     style="paint-order:stroke fill markers"
     id="rect1" /><g
     id="g2"
     transform="matrix(0.38090346,0,0,0.38090346,327.54439,193.6686)"><path
       d="M 203.10998,258.90799 A 632.78613,632.78613 0 0 0 317.84565,309.6009 629.81855,629.81855 0 0 0 285.03916,483.47257 H 114.04805 A 397.38208,397.38208 0 0 1 203.10998,258.90799 Z M 418.60264,124.03294 a 636.49409,636.49409 0 0 0 -79.8466,132.36468 577.18647,577.18647 0 0 1 -94.39648,-40.22239 398.03664,398.03664 0 0 1 174.24308,-92.14229 z M 779.61125,216.174 A 575.10389,575.10389 0 0 1 685.216,256.39762 636.49409,636.49409 0 0 0 605.3694,124.03294 c 66.03954,15.86145 125.51876,48.03912 174.24308,92.14106 z m 41.25081,42.73399 a 397.38208,397.38208 0 0 1 89.0889,224.56458 H 739.01746 A 628.79135,628.79135 0 0 0 706.15459,309.6009 632.78613,632.78613 0 0 0 820.89025,258.90799 Z m 0,506.1838 A 632.78613,632.78613 0 0 0 706.12639,714.39888 628.39298,628.39298 0 0 0 738.98926,540.52722 h 170.9335 a 397.29628,397.29628 0 0 1 -89.0607,224.56457 z M 685.216,767.57275 c 32.86287,10.6409 64.41417,24.16236 94.42467,40.22361 A 397.89445,397.89445 0 0 1 605.3694,899.93742 635.7525,635.7525 0 0 0 685.24419,767.57275 Z M 483.47279,740.98582 v 147.48453 a 575.33189,575.33189 0 0 1 -88.6611,-135.70244 573.10834,573.10834 0 0 1 88.6611,-11.78209 z m 0,-200.4586 V 684.0182 A 627.73597,627.73597 0 0 0 373.0739,699.13683 568.20036,568.20036 0 0 1 342.06439,540.52722 Z m -88.6611,-269.32354 a 575.75968,575.75968 0 0 1 88.6611,-135.70244 v 147.48453 a 562.89401,562.89401 0 0 1 -88.6611,-11.78209 z m 88.6611,68.74971 v 143.51918 h -141.3802 c 2.85359,-55.34225 13.43688,-108.54431 30.95312,-158.60962 35.74342,8.2151 72.62927,13.35108 110.42708,15.11864 z m 57.05465,-56.96762 V 135.50124 a 574.7619,574.7619 0 0 1 88.63291,135.70244 c -28.8117,6.16194 -58.39564,10.21311 -88.63291,11.78209 z m 0,200.4868 V 339.98159 a 625.11159,625.11159 0 0 0 110.39889,-15.14683 569.25575,569.25575 0 0 1 30.98009,158.60961 h -141.3802 z m 88.63291,269.29534 A 574.33411,574.33411 0 0 1 540.52744,888.49855 V 741.01401 c 30.2385,1.5984 59.82121,5.62015 88.63291,11.7539 z M 540.52744,684.0182 V 540.52722 H 681.90765 A 569.25575,569.25575 0 0 1 650.92633,699.13683 627.76538,627.76538 0 0 0 540.52744,684.0182 Z M 244.35956,807.82455 a 574.73371,574.73371 0 0 1 94.42467,-40.2518 634.6395,634.6395 0 0 0 79.87602,132.3659 397.98026,397.98026 0 0 1 -174.30069,-92.14229 z M 203.10998,765.09179 A 397.29628,397.29628 0 0 1 114.04805,540.52722 H 285.0122 c 2.85236,60.59099 14.09266,118.92902 32.83467,173.87166 a 632.78613,632.78613 0 0 0 -114.73566,50.69291 z m 666.1626,30.46649 A 454.23571,454.23571 0 0 0 968.4324,511.99989 c 0,-128.11493 -52.9471,-243.70618 -137.92844,-326.63437 A 454.71988,454.71988 0 0 0 512.00012,55.568834 454.71988,454.71988 0 0 0 193.49628,185.36552 c -13.83526,13.52269 -26.73035,27.92793 -38.7956,43.07598 A 454.1499,454.1499 0 0 0 55.566608,511.99989 c 0,252.06471 204.339382,456.43228 456.432282,456.43228 A 454.71988,454.71988 0 0 0 830.47454,838.60484 h 0.0282 a 458.42906,458.42906 0 0 0 38.79559,-43.07475 z"
       fill="#21A3DD"
       id="path1-5"
       style="overflow:hidden;fill:#ffffff;stroke-width:1.22577" /></g></svg>
