<?xml version="1.0" encoding="UTF-8" standalone="no"?>
<!-- Created with Inkscape (http://www.inkscape.org/) -->

<svg
   width="3000"
   height="4000"
   viewBox="0 0 793.75 1058.3333"
   version="1.1"
   id="svg5"
   inkscape:version="1.2.1 (9c6d41e410, 2022-07-14)"
   sodipodi:docname="img.svg"
   xmlns:inkscape="http://www.inkscape.org/namespaces/inkscape"
   xmlns:sodipodi="http://sodipodi.sourceforge.net/DTD/sodipodi-0.dtd"
   xmlns="http://www.w3.org/2000/svg"
   xmlns:svg="http://www.w3.org/2000/svg">
  <sodipodi:namedview
     id="namedview7"
     pagecolor="#000000"
     bordercolor="#666666"
     borderopacity="1.0"
     inkscape:showpageshadow="2"
     inkscape:pageopacity="0.0"
     inkscape:pagecheckerboard="0"
     inkscape:deskcolor="#d1d1d1"
     inkscape:document-units="mm"
     showgrid="false"
     inkscape:zoom="0.15480994"
     inkscape:cx="-364.96365"
     inkscape:cy="981.8491"
     inkscape:window-width="1920"
     inkscape:window-height="1051"
     inkscape:window-x="0"
     inkscape:window-y="0"
     inkscape:window-maximized="1"
     inkscape:current-layer="layer1" />
  <defs
     id="defs2" />
  <g
     inkscape:label="Ebene 1"
     inkscape:groupmode="layer"
     id="layer1">
    <rect
       style="fill:#ff0000;fill-opacity:1;stroke:#ff0000;stroke-width:92.8229;stroke-linecap:round;stroke-linejoin:round;stroke-miterlimit:0;stroke-dasharray:none;stroke-opacity:1;paint-order:stroke fill markers"
       id="rect790"
       width="700.92712"
       height="965.51038"
       x="46.411449"
       y="46.411449"
       rx="91.823669"
       ry="101.97951" />
    <text
       xml:space="preserve"
       style="font-style:normal;font-weight:normal;font-size:167.569px;line-height:1.25;font-family:sans-serif;fill:#000000;fill-opacity:1;stroke:none;stroke-width:0.264583"
       x="246.16951"
       y="827.80219"
       id="text1657"><tspan
         sodipodi:role="line"
         id="tspan1655"
         style="font-style:normal;font-variant:normal;font-weight:bold;font-stretch:normal;font-size:167.569px;font-family:'DejaVu Sans Mono';-inkscape-font-specification:'DejaVu Sans Mono Bold';fill:#ffffff;fill-opacity:1;stroke-width:0.264583"
         x="246.16951"
         y="827.80219">ZZZ</tspan></text>
    <g
       id="g29997"
       transform="matrix(0.96012136,0,0,0.96012136,52.789577,-320.76526)"
       style="opacity:1;fill:#ffffff;fill-opacity:1">
      <ellipse
         cx="498.7981"
         cy="628.3515"
         fill="#222222"
         id="circle28737"
         style="fill:#ffffff;fill-opacity:1;stroke-width:21.3413"
         rx="42.508995"
         ry="42.857071" />
      <path
         fill-rule="evenodd"
         clip-rule="evenodd"
         d="M 369.14884,874.7803 H 194.56339 c -20.1312,0 -32.32558,-22.40174 -21.52093,-39.52054 l 102.31882,-162.1026 c 10.02543,-15.87884 33.01643,-15.87884 43.03382,0 l 68.73202,108.88259 38.1336,-51.25917 c 10.20215,-13.71482 30.60647,-13.71482 40.80863,0 l 76.51619,102.85693 c 12.60407,16.95197 0.80331,41.14279 -20.40432,41.14279 H 399.20101 Z"
         fill="#2a4157"
         fill-opacity="0.24"
         id="path28739"
         style="fill:#ffffff;fill-opacity:1;stroke-width:21.3413" />
      <path
         d="m 173.04246,835.25976 8.96505,5.75025 z m 102.31882,-162.1026 8.96504,5.75029 v 0 z m 43.03382,0 8.97308,-5.75025 v 0 z m 68.73202,108.88259 -8.96503,5.7503 c 1.84762,2.96423 5.06092,4.81889 8.55536,4.95658 3.45428,0.16187 6.82821,-1.4659 8.90879,-4.27625 z m 38.1336,-51.25917 -8.50717,-6.43062 v 0 z m 40.80863,0 8.49911,-6.43062 z m 76.51619,102.85693 8.49911,-6.43057 v 0 z M 194.56339,885.49445 H 369.14884 V 864.06618 H 194.56339 Z m -30.48596,-55.98659 c -15.30323,24.25075 2.00828,55.98659 30.48596,55.98659 v -21.42827 c -11.74453,0 -18.85393,-13.06768 -12.55588,-23.05292 z m 102.31879,-162.1026 -102.31879,162.1026 17.93008,11.5054 102.31881,-162.1042 z m 60.97196,0 c -14.20268,-22.49487 -46.76927,-22.49487 -60.97196,0 l 17.9301,11.5038 c 5.86424,-9.26198 19.26361,-9.26198 25.10374,0 z m 68.72398,108.881 -68.72398,-108.881 -17.93812,11.5038 68.73203,108.88179 z m 20.66139,-51.93466 -38.13358,51.25922 17.00627,12.85711 38.13359,-51.25923 z m 57.81491,0 c -14.45173,-19.42864 -43.3632,-19.42864 -57.81491,0 l 17.00628,12.8571 c 5.94457,-8.00177 17.84975,-8.00177 23.80236,0 z m 76.51619,102.85698 -76.51619,-102.85698 -17.00627,12.8571 76.51619,102.85698 z m -28.90343,58.28587 c 29.77104,0 46.76927,-34.27082 28.90343,-58.28587 l -17.00627,12.8571 c 7.39053,9.88966 0,24.0005 -11.89716,24.0005 z m -122.98021,0 H 522.18122 V 864.06618 H 399.20101 Z m -30.05217,0 h 30.05217 v -21.42827 h -30.05217 z"
         fill="#222222"
         id="path28741"
         style="fill:#ffffff;fill-opacity:1;stroke-width:21.3413" />
    </g>
  </g>
</svg>
