<?xml version="1.0" encoding="UTF-8"?>
<!-- Created with Inkscape (http://www.inkscape.org/) -->
<svg width="3e3" height="4e3" version="1.1" viewBox="0 0 793.75 1058.3" xmlns="http://www.w3.org/2000/svg">
 <g>
  <rect x="46.411" y="46.411" width="700.93" height="965.51" rx="91.824" ry="101.98" fill="#f00" stroke="#f00" stroke-linecap="round" stroke-linejoin="round" stroke-miterlimit="0" stroke-width="92.823" style="paint-order:stroke fill markers"/>
  <path d="m413.09 579.71v-32.438h32.438v-32.437h-32.438v-32.438h32.438v-32.438h-32.438v-32.437h32.438v-32.438h-32.438v-32.438h32.438v-32.437h-32.438v-32.438h-32.437v32.438h-32.438v32.437h32.438v32.438h-32.438v32.438h32.438v32.437h-32.438v32.438h32.438v32.438h-32.438v32.437h32.438v32.438h-64.875v81.094c0 44.715 36.379 81.093 81.094 81.093 44.715 0 81.094-36.379 81.094-81.093v-81.094zm32.438 81.094c0 26.826-21.83 48.656-48.656 48.656-26.826 0-48.656-21.83-48.656-48.656v-48.656h97.312z" fill="#fff" stroke-width="16.219"/>
 </g>
</svg>
