<?xml version="1.0" encoding="UTF-8"?>
<!-- Created with Inkscape (http://www.inkscape.org/) -->
<svg width="3e3" height="4e3" version="1.1" viewBox="0 0 793.75 1058.3" xmlns="http://www.w3.org/2000/svg">
 <g>
  <rect x="46.411" y="46.411" width="700.93" height="965.51" rx="91.824" ry="101.98" fill="#f00" stroke="#f00" stroke-linecap="round" stroke-linejoin="round" stroke-miterlimit="0" stroke-width="92.823" style="paint-order:stroke fill markers"/>
  <path class="cls-1" d="m353.01 357.21h85.382c6.3201 0 11.444 5.1237 11.444 11.444v28.361h134.94c2.2717-6.5646 6.0156-12.522 10.946-17.415 18.053-18.152 47.427-18.152 65.479 0 18.152 18.053 18.152 47.427 0 65.479-18.053 18.152-47.427 18.152-65.479 0-5.0236-5.1302-8.7727-11.368-10.946-18.211h-69.659c22.499 13.002 42.842 29.418 60.305 48.662 34.841 38.487 57.851 86.2 66.275 137.43h18.708c7.6851-0.15046 13.99 6.0464 13.932 13.733v62.593c0.0382 7.5681-6.0648 13.733-13.633 13.733h-62.195c-7.5842 0-13.733-6.1483-13.733-13.733v-62.593c0-7.5846 6.1484-13.733 13.733-13.733h14.33c-8.2037-43.969-28.461-84.794-58.513-117.92-28.014-30.942-64.254-53.273-104.49-64.385v24.381c0.11317 6.398-5.0452 11.644-11.444 11.643h-85.382c-6.3431 0.0376-11.5-5.1008-11.444-11.444v-24.58c-41.292 11.455-78.314 34.776-106.48 67.072-28.659 32.726-48.068 72.506-56.224 115.24h14.031c7.5843 0 13.733 6.1483 13.733 13.733v62.593c0 7.5843-6.1483 13.733-13.733 13.733h-61.897c-7.6621 0.11291-13.933-6.07-13.932-13.733v-62.593c-7.7e-4 -7.6629 6.2698-13.844 13.932-13.733h19.007c8.4952-49.728 30.61-96.127 63.887-134.04 17.822-20.633 38.898-38.214 62.394-52.045h-80.506c-2.2717 6.5353-6.0174 12.46-10.946 17.315-8.6573 8.7306-20.445 13.639-32.74 13.633-12.315-0.0376-24.114-4.9428-32.839-13.633-18.152-18.053-18.152-47.427 0-65.479 18.053-18.152 47.427-18.152 65.479 0 5.085 5.1388 8.8717 11.416 11.046 18.31h145.79v-28.361c-0.0376-6.3435 5.1008-11.5 11.444-11.444z" fill="#fff" fill-rule="evenodd" stroke-width="9.9512"/>
 </g>
</svg>
