<?xml version="1.0" encoding="UTF-8"?>
<svg width="512" height="512" version="1.1" viewBox="0 0 512 512" xmlns="http://www.w3.org/2000/svg">
 <path d="m54.434 13.518c-22.431 0-40.916 18.485-40.916 40.916v136.38c0 22.431 18.485 40.916 40.916 40.916h136.38c22.431 0 40.916-18.485 40.916-40.916v-136.38c0-22.431-18.485-40.916-40.916-40.916zm0 27.277h136.38c7.7915 0 13.639 5.8472 13.639 13.639v136.38c0 7.7915-5.8472 13.639-13.639 13.639h-136.38c-7.7915 0-13.639-5.8472-13.639-13.639v-136.38c0-7.7915 5.8472-13.639 13.639-13.639z" color="#000000" fill="#fff" stroke-linecap="round" style="-inkscape-stroke:none"/>
 <g fill="#fff" stroke-linecap="round">
  <path d="m62 304.5h121.25c13.434 0 24.25 10.816 24.25 24.25v121.25c0 13.434-10.816 24.25-24.25 24.25h-121.25c-13.434 0-24.25-10.816-24.25-24.25v-121.25c0-13.434 10.815-24.25 24.25-24.25z" color="#000000" stroke-width="48.5"/>
  <path d="m62 280.25c-26.45 0-48.5 22.05-48.5 48.5v121.25c0 26.45 22.05 48.5 48.5 48.5h121.25c26.45 0 48.5-22.05 48.5-48.5v-121.25c0-26.45-22.05-48.5-48.5-48.5zm0 48.5h121.25v121.25h-121.25z" color="#000000"/>
 </g>
 <g fill="#fff" stroke-linecap="round">
  <path d="m328.75 37.75h121.25c13.434 0 24.25 10.815 24.25 24.25v121.25c0 13.434-10.816 24.25-24.25 24.25h-121.25c-13.434 0-24.25-10.816-24.25-24.25v-121.25c0-13.434 10.816-24.25 24.25-24.25z" color="#000000" stroke-width="48.5"/>
  <path d="m328.75 13.5c-26.45 0-48.5 22.05-48.5 48.5v121.25c0 26.45 22.05 48.5 48.5 48.5h121.25c26.45 0 48.5-22.05 48.5-48.5v-121.25c0-26.45-22.05-48.5-48.5-48.5zm0 48.5h121.25v121.25h-121.25z" color="#000000"/>
 </g>
 <path d="m321.17 280.25c-22.435 0-40.922 18.487-40.922 40.922v136.41c0 22.435 18.487 40.922 40.922 40.922h136.41c22.435 0 40.922-18.487 40.922-40.922v-136.41c0-22.435-18.487-40.922-40.922-40.922zm0 27.281h136.41c7.7929 0 13.641 5.8478 13.641 13.641v136.41c0 7.7929-5.8478 13.641-13.641 13.641h-136.41c-7.7928 0-13.641-5.8478-13.641-13.641v-136.41c0-7.7928 5.8478-13.641 13.641-13.641z" color="#000000" fill="#fff" stroke-linecap="round"/>
</svg>
