<?xml version="1.0" encoding="UTF-8"?>
<svg width="4e3" height="4e3" version="1.1" viewBox="0 0 1058.3 1058.3" xml:space="preserve" xmlns="http://www.w3.org/2000/svg"><rect width="1058.3" height="1058.3" rx="0" ry="0" fill="#a7c8c8" stroke="#a7c8c8" stroke-linecap="round" stroke-linejoin="round" stroke-miterlimit="0" stroke-width="119.41" style="paint-order:stroke fill markers"/><g transform="matrix(1.2346 0 0 1.3247 213.1 190.03)"><g stroke="#000">
<path d="m0 96c0-35.3 28.7-64 64-64h132.1c19.1 0 37.4 7.6 50.9 21.1l42.9 42.9h158.1c35.3 0 64 28.7 64 64v256c0 35.3-28.7 64-64 64h-384c-35.3 0-64-28.7-64-64zm64-16c-8.8 0-16 7.2-16 16v320c0 8.8 7.2 16 16 16h384c8.8 0 16-7.2 16-16v-256c0-8.8-7.2-16-16-16h-161.4c-10.6 0-20.8-4.2-28.3-11.7l-45.2-45.3c-4.5-4.5-10.6-7-17-7z" fill="#fff" stroke="#fff"/></g><rect x="32.918" y="91.701" width="220.44" height="345.06" fill="#fff" stroke="#fff" stroke-width="30"/><rect x="225.73" y="134.03" width="245.13" height="302.73" fill="#fff" stroke="#fff" stroke-width="30"/></g></svg>
