<?xml version="1.0" encoding="UTF-8"?>
<svg width="4e3" height="4e3" version="1.1" viewBox="0 0 1058.3 1058.3" xml:space="preserve" xmlns="http://www.w3.org/2000/svg"><rect width="1058.3" height="1058.3" rx="0" ry="0" fill="#a7c8c8" stroke="#a7c8c8" stroke-linecap="round" stroke-linejoin="round" stroke-miterlimit="0" stroke-width="119.41" style="paint-order:stroke fill markers"/><path d="m379.39 406.6a306.28 306.28 0 0 0 55.534 24.536 304.84 304.84 0 0 0-15.879 84.156h-82.762a192.34 192.34 0 0 1 43.107-108.69zm104.3-65.281a308.07 308.07 0 0 0-38.647 64.066 279.37 279.37 0 0 1-45.689-19.468 192.65 192.65 0 0 1 84.336-44.598zm174.73 44.597a278.36 278.36 0 0 1-45.689 19.469 308.07 308.07 0 0 0-38.647-64.066c31.964 7.6771 60.753 23.252 84.336 44.597zm19.966 20.684a192.34 192.34 0 0 1 43.12 108.69h-82.734a304.34 304.34 0 0 0-15.906-84.156 306.28 306.28 0 0 0 55.534-24.536zm0 245a306.28 306.28 0 0 0-55.534-24.536 304.15 304.15 0 0 0 15.906-84.156h82.734a192.3 192.3 0 0 1-43.106 108.69zm-65.654 1.2008c15.906 5.1503 31.177 11.695 45.703 19.469a192.59 192.59 0 0 1-84.35 44.597 307.71 307.71 0 0 0 38.66-64.066zm-97.646-12.868v71.384a278.47 278.47 0 0 1-42.913-65.682 277.39 277.39 0 0 1 42.913-5.7027zm0-97.025v69.451a303.83 303.83 0 0 0-53.434 7.3176 275.02 275.02 0 0 1-15.009-76.769zm-42.913-130.36a278.68 278.68 0 0 1 42.913-65.682v71.384a272.45 272.45 0 0 1-42.913-5.7027zm42.913 33.276v69.465h-68.43c1.3812-26.786 6.5036-52.537 14.982-76.769 17.3 3.9762 35.154 6.4621 53.448 7.3176zm27.615-27.573v-71.384a278.19 278.19 0 0 1 42.899 65.682c-13.945 2.9825-28.264 4.9433-42.899 5.7027zm0 97.038v-69.451a302.56 302.56 0 0 0 53.434-7.3313 275.53 275.53 0 0 1 14.995 76.769h-68.43zm42.899 130.34a277.99 277.99 0 0 1-42.899 65.695v-71.384c14.636 0.77365 28.954 2.7202 42.899 5.689zm-42.899-33.276v-69.451h68.43a275.53 275.53 0 0 1-14.995 76.769 303.85 303.85 0 0 0-53.434-7.3176zm-143.35 59.924a278.18 278.18 0 0 1 45.703-19.482 307.17 307.17 0 0 0 38.661 64.067 192.63 192.63 0 0 1-84.364-44.598zm-19.965-20.683a192.3 192.3 0 0 1-43.107-108.69h82.749c1.3806 29.327 6.821 57.563 15.892 84.156a306.28 306.28 0 0 0-55.534 24.536zm322.43 14.746a219.86 219.86 0 0 0 47.995-137.25c0-62.009-25.627-117.96-66.759-158.1a220.09 220.09 0 0 0-154.16-62.823 220.09 220.09 0 0 0-154.16 62.823c-6.6964 6.5452-12.938 13.517-18.778 20.849a219.81 219.81 0 0 0-47.982 137.25c0 122 98.903 220.92 220.92 220.92a220.09 220.09 0 0 0 154.15-62.838h0.0128a221.89 221.89 0 0 0 18.778-20.849z" fill="#fff" stroke-width=".59329"/></svg>
