<?xml version="1.0" encoding="UTF-8"?>
<!-- Created with Inkscape (http://www.inkscape.org/) -->
<svg width="4e3" height="4e3" version="1.1" viewBox="0 0 1058.3 1058.3" xml:space="preserve" xmlns="http://www.w3.org/2000/svg"><rect width="1058.3" height="1058.3" rx="0" ry="0" fill="#a7c8c8" stroke="#a7c8c8" stroke-linecap="round" stroke-linejoin="round" stroke-miterlimit="0" stroke-width="119.41" style="paint-order:stroke fill markers"/><path d="m433.16 311.9a196.5 196.5 0 0 0 35.629 15.742 195.58 195.58 0 0 0-10.187 53.992h-53.098a123.4 123.4 0 0 1 27.656-69.734zm66.917-41.883a197.65 197.65 0 0 0-24.795 41.103 179.23 179.23 0 0 1-29.313-12.49 123.6 123.6 0 0 1 54.107-28.613zm112.1 28.612a178.59 178.59 0 0 1-29.312 12.491 197.65 197.65 0 0 0-24.795-41.103c20.507 4.9254 38.977 14.918 54.107 28.612zm12.81 13.27a123.4 123.4 0 0 1 27.665 69.734h-53.08a195.26 195.26 0 0 0-10.205-53.992 196.5 196.5 0 0 0 35.629-15.742zm0 157.18a196.5 196.5 0 0 0-35.629-15.742 195.13 195.13 0 0 0 10.205-53.992h53.08a123.37 123.37 0 0 1-27.656 69.734zm-42.122 0.77041c10.205 3.3043 20.002 7.5031 29.322 12.491a123.56 123.56 0 0 1-54.116 28.612 197.42 197.42 0 0 0 24.803-41.103zm-62.647-8.256v45.798a178.66 178.66 0 0 1-27.532-42.14 177.97 177.97 0 0 1 27.532-3.6587zm0-62.248v44.558a194.93 194.93 0 0 0-34.282 4.6948 176.44 176.44 0 0 1-9.6293-49.253zm-27.532-83.633a178.79 178.79 0 0 1 27.532-42.14v45.798a174.79 174.79 0 0 1-27.532-3.6587zm27.532 21.349v44.567h-43.903c0.88612-17.185 4.1725-33.706 9.6118-49.253 11.099 2.551 22.553 4.1459 34.291 4.6948zm17.717-17.69v-45.798a178.48 178.48 0 0 1 27.523 42.14c-8.9469 1.9135-18.134 3.1715-27.523 3.6587zm0 62.257v-44.558a194.12 194.12 0 0 0 34.282-4.7035 176.77 176.77 0 0 1 9.6202 49.253h-43.903zm27.523 83.624a178.35 178.35 0 0 1-27.523 42.148v-45.798c9.3899 0.49635 18.576 1.7452 27.523 3.6499zm-27.523-21.349v-44.558h43.903a176.77 176.77 0 0 1-9.6206 49.253 194.94 194.94 0 0 0-34.282-4.6948zm-91.969 38.445a178.47 178.47 0 0 1 29.322-12.499 197.07 197.07 0 0 0 24.804 41.103 123.58 123.58 0 0 1-54.125-28.613zm-12.809-13.27a123.37 123.37 0 0 1-27.656-69.734h53.089c0.88575 18.815 4.3762 36.931 10.196 53.992a196.5 196.5 0 0 0-35.629 15.742zm206.86 9.4607a141.05 141.05 0 0 0 30.792-88.053c0-39.783-16.442-75.678-42.831-101.43a141.2 141.2 0 0 0-98.905-40.306 141.2 141.2 0 0 0-98.905 40.306c-4.2962 4.1992-8.3005 8.6724-12.047 13.376a141.03 141.03 0 0 0-30.784 88.053c0 78.273 63.453 141.74 141.74 141.74a141.2 141.2 0 0 0 98.896-40.315h8e-3a142.36 142.36 0 0 0 12.047-13.376z" fill="#fff" stroke-width=".38064"/></svg>
