<?xml version="1.0" encoding="UTF-8"?>
<svg width="4e3" height="4e3" version="1.1" viewBox="0 0 1058.3 1058.3" xml:space="preserve" xmlns="http://www.w3.org/2000/svg"><rect width="1058.3" height="1058.3" rx="0" ry="0" fill="#a7c8c8" stroke="#a7c8c8" stroke-linecap="round" stroke-linejoin="round" stroke-miterlimit="0" stroke-width="119.41" style="paint-order:stroke fill markers"/><path d="m434.59 452.65a192.75 192.75 0 0 0 34.949 15.441 191.84 191.84 0 0 0-9.9929 52.962h-52.084a121.04 121.04 0 0 1 27.128-68.403zm65.639-41.083a193.88 193.88 0 0 0-24.321 40.318 175.81 175.81 0 0 1-28.753-12.252 121.24 121.24 0 0 1 53.075-28.067zm109.96 28.066a175.18 175.18 0 0 1-28.753 12.252 193.88 193.88 0 0 0-24.321-40.318c20.116 4.8314 38.233 14.633 53.075 28.066zm12.565 13.017a121.04 121.04 0 0 1 27.137 68.403h-52.067a191.53 191.53 0 0 0-10.01-52.962 192.75 192.75 0 0 0 34.949-15.441zm0 154.18a192.75 192.75 0 0 0-34.949-15.441 191.41 191.41 0 0 0 10.01-52.962h52.067a121.02 121.02 0 0 1-27.128 68.403zm-41.318 0.7557c10.01 3.2412 19.621 7.3599 28.762 12.252a121.2 121.2 0 0 1-53.083 28.066 193.65 193.65 0 0 0 24.33-40.318zm-61.451-8.0984v44.924a175.25 175.25 0 0 1-27.006-41.335 174.57 174.57 0 0 1 27.006-3.5888zm0-61.06v43.708a191.21 191.21 0 0 0-33.628 4.6052 173.07 173.07 0 0 1-9.4455-48.313zm-27.006-82.036a175.38 175.38 0 0 1 27.006-41.335v44.924a171.46 171.46 0 0 1-27.006-3.5888zm27.006 20.941v43.716h-43.065c0.86921-16.857 4.0929-33.063 9.4284-48.313 10.887 2.5023 22.123 4.0668 33.636 4.6052zm17.379-17.352v-44.924a175.07 175.07 0 0 1 26.998 41.335c-8.7761 1.8769-17.787 3.1109-26.998 3.5888zm0 61.069v-43.708a190.41 190.41 0 0 0 33.628-4.6137 173.4 173.4 0 0 1 9.4366 48.313h-43.065zm26.998 82.028a174.94 174.94 0 0 1-26.998 41.344v-44.924c9.2107 0.48687 18.222 1.7119 26.998 3.5802zm-26.998-20.941v-43.708h43.065a173.4 173.4 0 0 1-9.437 48.313 191.22 191.22 0 0 0-33.628-4.6052zm-90.213 37.712a175.06 175.06 0 0 1 28.762-12.261 193.31 193.31 0 0 0 24.33 40.319 121.23 121.23 0 0 1-53.092-28.067zm-12.565-13.016a121.02 121.02 0 0 1-27.128-68.403h52.076c0.86884 18.456 4.2926 36.226 10.001 52.962a192.75 192.75 0 0 0-34.949 15.441zm202.91 9.2801a138.36 138.36 0 0 0 30.204-86.372c0-39.024-16.128-74.233-42.013-99.493a138.51 138.51 0 0 0-97.017-39.536 138.51 138.51 0 0 0-97.017 39.536c-4.2142 4.119-8.1421 8.5069-11.817 13.121a138.33 138.33 0 0 0-30.196 86.372c0 76.779 62.242 139.03 139.03 139.03a138.51 138.51 0 0 0 97.008-39.546h8e-3a139.64 139.64 0 0 0 11.817-13.121z" fill="#fff" stroke-width=".37337"/></svg>
