<?xml version="1.0" encoding="UTF-8"?>
<!-- Created with Inkscape (http://www.inkscape.org/) -->
<svg width="4e3" height="4e3" version="1.1" viewBox="0 0 1058.3 1058.3" xmlns="http://www.w3.org/2000/svg">
 <rect x=".55581" y=".55581" width="1057.2" height="1057.2" rx="0" ry="0" fill="#8e7d51" stroke="#8e7d51" stroke-linecap="round" stroke-linejoin="round" stroke-miterlimit="0" stroke-width="1.1116" style="paint-order:stroke fill markers"/>
 <text x="378.4613" y="827.80219" fill="#000000" font-family="sans-serif" font-size="167.57px" stroke-width=".26458" style="line-height:1.25" xml:space="preserve"><tspan x="378.4613" y="827.80219" fill="#ffffff" font-family="'DejaVu Sans Mono'" font-size="167.57px" font-weight="bold" stroke-width=".26458">SAI</tspan></text>
 <path d="m428.64 308.14a205.9 205.9 0 0 0 37.333 16.495 204.93 204.93 0 0 0-10.675 56.575h-55.638a129.3 129.3 0 0 1 28.979-73.07zm70.118-43.886a207.1 207.1 0 0 0-25.981 43.069 187.81 187.81 0 0 1-30.715-13.088 129.51 129.51 0 0 1 56.696-29.982zm117.47 29.981a187.13 187.13 0 0 1-30.715 13.088 207.1 207.1 0 0 0-25.981-43.069c21.488 5.161 40.842 15.631 56.696 29.981zm13.422 13.905a129.3 129.3 0 0 1 28.988 73.07h-55.619a204.6 204.6 0 0 0-10.693-56.575 205.9 205.9 0 0 0 37.333-16.495zm0 164.7a205.9 205.9 0 0 0-37.333-16.495 204.47 204.47 0 0 0 10.693-56.575h55.619a129.27 129.27 0 0 1-28.979 73.07zm-44.137 0.80726c10.693 3.4624 20.959 7.862 30.724 13.088a129.47 129.47 0 0 1-56.705 29.981 206.86 206.86 0 0 0 25.99-43.069zm-65.644-8.6509v47.989a187.2 187.2 0 0 1-28.849-44.155 186.48 186.48 0 0 1 28.849-3.8337zm0-65.226v46.69a204.25 204.25 0 0 0-35.922 4.9193 184.88 184.88 0 0 1-10.09-51.609zm-28.849-87.633a187.34 187.34 0 0 1 28.849-44.155v47.989a183.16 183.16 0 0 1-28.849-3.8337zm28.849 22.37v46.699h-46.003c0.92851-18.007 4.3721-35.318 10.072-51.609 11.63 2.6731 23.632 4.3442 35.931 4.9194zm18.565-18.536v-47.989a187.02 187.02 0 0 1 28.84 44.155c-9.3748 2.005-19.001 3.3232-28.84 3.8337zm0 65.235v-46.69a203.4 203.4 0 0 0 35.922-4.9285 185.23 185.23 0 0 1 10.08 51.609h-46.003zm28.84 87.624a186.88 186.88 0 0 1-28.84 44.164v-47.989c9.8391 0.52009 19.465 1.8287 28.84 3.8245zm-28.84-22.37v-46.69h46.003a185.23 185.23 0 0 1-10.081 51.609 204.26 204.26 0 0 0-35.922-4.9193zm-96.368 40.284a187.01 187.01 0 0 1 30.724-13.097 206.5 206.5 0 0 0 25.99 43.07 129.5 129.5 0 0 1-56.714-29.982zm-13.422-13.905a129.27 129.27 0 0 1-28.979-73.07h55.629c0.92812 19.715 4.5855 38.697 10.684 56.575a205.9 205.9 0 0 0-37.333 16.495zm216.76 9.9133a147.8 147.8 0 0 0 32.265-92.265c0-41.686-17.228-79.298-44.88-106.28a147.96 147.96 0 0 0-103.64-42.234 147.96 147.96 0 0 0-103.64 42.234c-4.5018 4.4001-8.6976 9.0873-12.623 14.016a147.77 147.77 0 0 0-32.257 92.265c0 82.018 66.489 148.52 148.52 148.52a147.96 147.96 0 0 0 103.63-42.244h9e-3a149.17 149.17 0 0 0 12.623-14.016z" fill="#fff" stroke-width=".39884"/>
</svg>
