<?xml version="1.0" encoding="UTF-8"?>
<svg width="4e3" height="4e3" version="1.1" viewBox="0 0 1058.3 1058.3" xml:space="preserve" xmlns="http://www.w3.org/2000/svg"><rect width="1058.3" height="1058.3" rx="0" ry="0" fill="#a7c8c8" stroke="#a7c8c8" stroke-linecap="round" stroke-linejoin="round" stroke-miterlimit="0" stroke-width="119.41" style="paint-order:stroke fill markers"/><path d="m328.05 364.57a411.67 411.67 0 0 0 74.644 32.979 409.74 409.74 0 0 0-21.343 113.12h-111.24a258.53 258.53 0 0 1 57.941-146.1zm140.19-87.746a414.09 414.09 0 0 0-51.946 86.113 375.5 375.5 0 0 1-61.412-26.168 258.95 258.95 0 0 1 113.36-59.945zm234.86 59.945a374.15 374.15 0 0 1-61.411 26.168 414.09 414.09 0 0 0-51.946-86.113c42.964 10.319 81.659 31.253 113.36 59.945zm26.837 27.802a258.53 258.53 0 0 1 57.959 146.1h-111.21a409.08 409.08 0 0 0-21.379-113.12 411.67 411.67 0 0 0 74.644-32.979zm0 329.31a411.67 411.67 0 0 0-74.644-32.979 408.82 408.82 0 0 0 21.38-113.12h111.2a258.47 258.47 0 0 1-57.94 146.1zm-88.248 1.614c21.38 6.9227 41.906 15.719 61.43 26.168a258.86 258.86 0 0 1-113.38 59.945 413.6 413.6 0 0 0 51.965-86.113zm-131.25-17.297v95.95a374.3 374.3 0 0 1-57.681-88.285 372.85 372.85 0 0 1 57.681-7.6651zm0-130.41v93.351a408.39 408.39 0 0 0-71.823 9.8358 369.66 369.66 0 0 1-20.174-103.19zm-57.681-175.21a374.57 374.57 0 0 1 57.681-88.284v95.95a366.2 366.2 0 0 1-57.681-7.6651zm57.681 44.727v93.37h-91.978c1.8565-36.004 8.7417-70.616 20.137-103.19 23.254 5.3446 47.251 8.6859 71.841 9.8358zm37.118-37.062v-95.95a373.93 373.93 0 0 1 57.662 88.284c-18.744 4.0088-37.991 6.6444-57.662 7.6651zm0 130.43v-93.351a406.68 406.68 0 0 0 71.823-9.8541 370.34 370.34 0 0 1 20.155 103.19h-91.978zm57.662 175.2a373.65 373.65 0 0 1-57.662 88.303v-95.95c19.672 1.0399 38.918 3.6563 57.662 7.6468zm-57.662-44.727v-93.351h91.978a370.34 370.34 0 0 1-20.156 103.19 408.41 408.41 0 0 0-71.823-9.8358zm-192.68 80.545a373.91 373.91 0 0 1 61.43-26.187 412.88 412.88 0 0 0 51.965 86.114 258.92 258.92 0 0 1-113.4-59.945zm-26.836-27.801a258.47 258.47 0 0 1-57.941-146.1h111.22c1.8557 39.419 9.1683 77.372 21.361 113.12a411.67 411.67 0 0 0-74.644 32.979zm433.39 19.821a295.51 295.51 0 0 0 64.511-184.48c0-83.348-34.446-158.55-89.733-212.5a295.83 295.83 0 0 0-207.21-84.442 295.83 295.83 0 0 0-207.21 84.442c-9.0009 8.7975-17.39 18.169-25.239 28.024a295.46 295.46 0 0 0-64.494 184.48c0 163.99 132.94 296.94 296.94 296.94a295.83 295.83 0 0 0 207.19-84.462h0.0246a298.24 298.24 0 0 0 25.239-28.023z" fill="#fff" stroke-width=".79745"/></svg>
