<?xml version="1.0" encoding="UTF-8" standalone="no"?>
<svg
   width="512"
   height="512"
   viewBox="0 0 512 512"
   version="1.1"
   id="svg604"
   sodipodi:docname="chromecastactive.svg"
   inkscape:version="1.2.1 (9c6d41e410, 2022-07-14)"
   xmlns:inkscape="http://www.inkscape.org/namespaces/inkscape"
   xmlns:sodipodi="http://sodipodi.sourceforge.net/DTD/sodipodi-0.dtd"
   xmlns="http://www.w3.org/2000/svg"
   xmlns:svg="http://www.w3.org/2000/svg"
   xmlns:rdf="http://www.w3.org/1999/02/22-rdf-syntax-ns#"
   xmlns:cc="http://creativecommons.org/ns#"
   xmlns:dc="http://purl.org/dc/elements/1.1/"
   xmlns:sketch="http://www.bohemiancoding.com/sketch/ns">
  <sodipodi:namedview
     id="namedview606"
     pagecolor="#ffffff"
     bordercolor="#666666"
     borderopacity="1.0"
     inkscape:showpageshadow="2"
     inkscape:pageopacity="0.0"
     inkscape:pagecheckerboard="true"
     inkscape:deskcolor="#d1d1d1"
     showgrid="false"
     inkscape:zoom="1.1341146"
     inkscape:cx="316.10563"
     inkscape:cy="161.35936"
     inkscape:window-width="1920"
     inkscape:window-height="1051"
     inkscape:window-x="0"
     inkscape:window-y="0"
     inkscape:window-maximized="1"
     inkscape:current-layer="svg604" />
  <!-- Generator: Sketch 3.2.2 (9983) - http://www.bohemiancoding.com/sketch -->
  <title
     id="title591">ic_cast_black_24dp</title>
  <desc
     id="desc593">Created with Sketch.</desc>
  <rect
     style="fill:#000000;stroke:#000000;stroke-width:79.3127;stroke-linecap:square;stroke-miterlimit:0;stroke-opacity:0;paint-order:fill markers stroke;fill-opacity:1"
     id="rect41103"
     width="450.11511"
     height="366.98642"
     x="21.585419"
     y="80.709808"
     rx="22.051338" />
  <defs
     id="defs595" />
  <g
     id="g734"
     transform="scale(21.333333)">
    <g
       id="Page-1"
       stroke="none"
       stroke-width="1"
       fill="none"
       fill-rule="evenodd"
       sketch:type="MSPage">
      <g
         id="ic_cast_black_24dp"
         sketch:type="MSArtboardGroup">
        <g
           id="ic_remove_circle_white_24dp"
           sketch:type="MSLayerGroup">
          <path
             d="m 1,18 v 3 H 4 C 4,19.34 2.66,18 1,18 Z m 0,-4 v 2 c 2.76,0 5,2.24 5,5 H 8 C 8,17.13 4.87,14 1,14 Z m 0,-4 v 2 c 4.97,0 9,4.03 9,9 h 2 C 12,14.92 7.07,10 1,10 Z M 21,3 H 3 C 1.9,3 1,3.9 1,5 V 8 H 3 V 5 h 18 v 14 h -7 v 2 h 7 c 1.1,0 2,-0.9 2,-2 V 5 C 23,3.9 22.1,3 21,3 Z"
             id="cast"
             fill="#005aff"
             sketch:type="MSShapeGroup" />
          <rect
             id="bounds"
             sketch:type="MSShapeGroup"
             x="0"
             y="0"
             width="24"
             height="24" />
        </g>
      </g>
      <g
         id="assets"
         sketch:type="MSLayerGroup"
         transform="translate(-208,-106)">
        <g
           id="64px"
           transform="translate(0,114)" />
      </g>
    </g>
  </g>
  <metadata
     id="metadata725">
    <rdf:RDF>
      <cc:Work
         rdf:about="">
        <dc:title>ic_cast_black_24dp</dc:title>
      </cc:Work>
    </rdf:RDF>
  </metadata>
</svg>
