<?xml version="1.0" encoding="UTF-8"?>
<svg width="512" height="512" fill="none" version="1.1" viewBox="0 0 512 512" xmlns="http://www.w3.org/2000/svg">
 <path d="m397.98 321.99-16.907 18.161 18.108 16.969 16.907-18.161zm-119.34-77.832 102.44 95.993 33.815-36.322-102.44-95.993zm137.45 94.801 95.644-102.73-36.217-33.938-95.644 102.73z" fill="#fff" stroke-width="24.815"/>
 <path d="m394.27 278.52c4.9402-30.537-0.30086-61.856-14.911-89.1-14.61-27.244-37.772-48.89-65.893-61.581-28.122-12.691-59.632-15.718-89.643-8.6108-30.012 7.1071-56.846 23.95-76.344 47.918-19.497 23.968-30.567 53.72-31.492 84.643-0.92304 30.923 8.3469 61.287 26.376 86.384 18.029 25.099 43.811 43.525 73.343 52.426 29.532 8.8987 61.166 7.7738 89.995-3.2021" stroke="#fff" stroke-linecap="round" stroke-width="73.409"/>
</svg>
