<?xml version="1.0" encoding="UTF-8" standalone="no"?>
<svg
   width="512"
   height="512"
   viewBox="0 0 512 512"
   fill="none"
   version="1.1"
   id="svg6"
   sodipodi:docname="quit.svg"
   inkscape:version="1.2.1 (9c6d41e410, 2022-07-14)"
   xmlns:inkscape="http://www.inkscape.org/namespaces/inkscape"
   xmlns:sodipodi="http://sodipodi.sourceforge.net/DTD/sodipodi-0.dtd"
   xmlns="http://www.w3.org/2000/svg"
   xmlns:svg="http://www.w3.org/2000/svg">
  <defs
     id="defs10" />
  <sodipodi:namedview
     id="namedview8"
     pagecolor="#ffffff"
     bordercolor="#666666"
     borderopacity="1.0"
     inkscape:showpageshadow="2"
     inkscape:pageopacity="0.0"
     inkscape:pagecheckerboard="0"
     inkscape:deskcolor="#d1d1d1"
     showgrid="false"
     inkscape:zoom="1.1341146"
     inkscape:cx="298.02985"
     inkscape:cy="273.34099"
     inkscape:window-width="1920"
     inkscape:window-height="1051"
     inkscape:window-x="0"
     inkscape:window-y="0"
     inkscape:window-maximized="1"
     inkscape:current-layer="svg6" />
  <g
     id="g976"
     transform="matrix(22.847549,0,0,22.847549,-29.542647,-18.157274)">
    <path
       d="M 7,7.13193 V 6.61204 C 7,4.46614 7,3.3932 7.6896,2.79511 8.37919,2.19703 9.44136,2.34877 11.5657,2.65224 l 4.2828,0.61184 c 2.4562,0.35087 3.6842,0.52631 4.4179,1.3722 C 21,5.48217 21,6.72271 21,9.20377 v 5.59243 c 0,2.4811 0,3.7216 -0.7336,4.5675 -0.7337,0.8459 -1.9617,1.0213 -4.4179,1.3722 l -4.2828,0.6119 C 9.44136,21.6512 8.37919,21.803 7.6896,21.2049 7,20.6068 7,19.5339 7,17.388 v -0.322"
       stroke="#ffffff"
       stroke-width="2"
       id="path2" />
    <path
       d="M 16,12 16.7809,11.3753 17.2806,12 16.7809,12.6247 Z M 4,13 C 3.44771,13 3,12.5523 3,12 3,11.4477 3.44771,11 4,11 Z m 8.7809,-6.6247 4,5 -1.5618,1.2494 -4,-5 z m 4,6.2494 -4,5 -1.5618,-1.2494 4,-5 z M 16,13 H 4 v -2 h 12 z"
       fill="#ffffff"
       id="path4" />
  </g>
</svg>
