<?xml version="1.0" encoding="UTF-8"?>
<svg width="800px" height="800px" fill="#000000" version="1.1" viewBox="0 0 956.82 956.82" xml:space="preserve" xmlns="http://www.w3.org/2000/svg">
<g fill="#fff">
	<path d="m137.62 162.62h-117.62c-11.046 0-20 8.954-20 20v72.919c0 11.046 8.954 20 20 20h117.62l-1e-3 -112.92z"/>
	<path d="m774.19 956.82c11.046 0 20-8.954 20-20v-117.62h-112.92v117.62c0 11.046 8.954 20 20 20l72.919 1e-3z"/>
	<path d="m794.19 656.28v-473.65c0-11.046-8.954-20-20-20h-473.65v112.92h380.73v380.73h112.92z"/>
	<path d="m936.81 681.28h-661.27v-661.28c0-11.046-8.954-20-20-20h-72.918c-11.046 0-20 8.954-20 20v754.19c0 11.046 8.954 20 20 20h754.19c11.045 0 20-8.954 20-20v-72.918c-1e-3 -11.047-8.955-20.001-20.001-20.001z"/>
</g>
</svg>
