<?xml version="1.0" encoding="UTF-8"?>
<svg width="512" height="512" fill="none" version="1.1" viewBox="0 0 512 512" xmlns="http://www.w3.org/2000/svg">
 <g transform="matrix(22.848 0 0 22.848 -29.543 -18.157)">
  <path d="m7 7.1319v-0.51989c0-2.1459 0-3.2188 0.6896-3.8169 0.68959-0.59808 1.7518-0.44634 3.8761-0.14287l4.2828 0.61184c2.4562 0.35087 3.6842 0.52631 4.4179 1.3722 0.7336 0.84589 0.7336 2.0864 0.7336 4.5675v5.5924c0 2.4811 0 3.7216-0.7336 4.5675-0.7337 0.8459-1.9617 1.0213-4.4179 1.3722l-4.2828 0.6119c-2.1243 0.3034-3.1865 0.4552-3.8761-0.1429-0.6896-0.5981-0.6896-1.671-0.6896-3.8169v-0.322" stroke="#fff" stroke-width="2"/>
  <path d="m16 12 0.7809-0.6247 0.4997 0.6247-0.4997 0.6247zm-12 1c-0.55229 0-1-0.4477-1-1s0.44771-1 1-1zm8.7809-6.6247 4 5-1.5618 1.2494-4-5zm4 6.2494-4 5-1.5618-1.2494 4-5zm-0.7809 0.3753h-12v-2h12z" fill="#fff"/>
 </g>
</svg>
