<?xml version="1.0" encoding="UTF-8"?>
<svg enable-background="new 0 0 117.74 122.88" version="1.1" viewBox="0 0 117.74 122.88" xml:space="preserve" xmlns="http://www.w3.org/2000/svg"><style type="text/css">.st0{fill-rule:evenodd;clip-rule:evenodd;}</style><g fill="#fff"><path class="st0" d="m94.62 2c-1.46-1.36-3.14-2.09-5.02-1.99-1.88 0-3.56 0.73-4.92 2.2l-11.09 11.51 31.07 30.03 11.19-11.72c1.36-1.36 1.88-3.14 1.88-5.02s-0.73-3.66-2.09-4.92l-21.02-20.09zm-53.18 107.58c-4.08 1.36-8.26 2.62-12.35 3.98-4.08 1.36-8.16 2.72-12.35 4.08-9.73 3.14-15.07 4.92-16.22 5.23s-0.42-4.18 1.99-13.6l7.74-29.61 0.64-0.66 30.56 30.56-0.01 0.02zm-19.24-42.33 42.99-44.82 31.07 29.92-43.51 45.45-30.55-30.55z" fill="#fff"/></g></svg>
