<?xml version="1.0" encoding="UTF-8"?>
<svg version="1.1" viewBox="0 0 512 512" xmlns="http://www.w3.org/2000/svg">
 <path d="m259.8 415.9c-15.6 0-32.4-12.4-32.4-32.4v-43.4h-211.3v-183.5h211.3v-43.4c0-20 16.8-32.4 32.4-32.4 6.6 0 13.1 2.1 18.7 6.1l213.4 152.7c2.9 2.1 4.5 5.5 4.5 9-0.1 3.5-1.7 6.6-4.6 8.6l-213.3 152.6c-5.6 4-12 6.1-18.7 6.1z" fill="#fff"/>
 <path d="m259.8 81.8c6.1 0 12.4 1.8 18.1 5.9l213.4 152.7c5.4 4 5.4 12.1-0.1 15.9l-213.3 152.7c-5.7 4.1-12 5.9-18.1 5.9-16.2 0-31.4-12.9-31.4-31.4v-44.4h-211.3v-181.5h211.3v-44.4c0-18.5 15.2-31.4 31.4-31.4m0-2c-8.5 0-17 3.4-23.2 9.3-6.6 6.3-10.2 14.8-10.2 24.1v42.4h-211.3v185.5h211.3v42.4c0 9.3 3.6 17.8 10.2 24.1 6.2 5.9 14.7 9.3 23.2 9.3 6.9 0 13.5-2.2 19.3-6.3l213.3-152.7c3.1-2.1 4.9-5.5 5-9.3s-1.7-7.5-4.8-9.8l-213.5-152.7c-5.8-4.1-12.4-6.3-19.3-6.3z"/>
</svg>
