<?xml version="1.0" encoding="UTF-8"?>
<svg width="512" height="512" fill="none" version="1.1" viewBox="0 0 512 512" xmlns="http://www.w3.org/2000/svg">
 <path d="m425.62 256.03c-39.879 0-72.727 32.85-72.727 72.729 0 39.879 32.848 72.727 72.727 72.727s72.729-32.848 72.729-72.727-32.85-72.729-72.729-72.729zm0 48.486c13.676 0 24.244 10.566 24.244 24.242 0 13.676-10.568 24.242-24.244 24.242-13.676 0-24.242-10.566-24.242-24.242 0-13.676 10.566-24.242 24.242-24.242zm-169.7-193.94c-39.879 0-72.727 32.848-72.727 72.727 0 39.879 32.848 72.727 72.727 72.727 39.879 0 72.727-32.848 72.727-72.727 0-39.879-32.848-72.727-72.727-72.727zm0 48.484c13.676 0 24.242 10.566 24.242 24.242 0 13.676-10.566 24.242-24.242 24.242-13.676 0-24.242-10.566-24.242-24.242 0-13.676 10.566-24.242 24.242-24.242zm-169.7 72.727c-39.879 0-72.727 32.85-72.727 72.729 0 39.879 32.848 72.727 72.727 72.727s72.727-32.848 72.727-72.727c0-39.879-32.848-72.729-72.727-72.729zm0 48.486c13.676 0 24.242 10.566 24.242 24.242 0 13.676-10.566 24.242-24.242 24.242-13.676 0-24.242-10.566-24.242-24.242 0-13.676 10.566-24.242 24.242-24.242zm169.7-48.486a24.242 24.242 0 0 0-24.242 24.242v193.94a24.242 24.242 0 0 0 24.242 24.242 24.242 24.242 0 0 0 24.242-24.242v-193.94a24.242 24.242 0 0 0-24.242-24.242zm0-193.94a24.242 24.242 0 0 0-24.242 24.242v72.727a24.242 24.242 0 0 0 24.242 24.242 24.242 24.242 0 0 0 24.242-24.242v-72.727a24.242 24.242 0 0 0-24.242-24.242zm169.7 0a24.242 24.242 0 0 0-24.244 24.242v193.94a24.242 24.242 0 0 0 24.244 24.242 24.242 24.242 0 0 0 24.242-24.242v-193.94a24.242 24.242 0 0 0-24.242-24.242zm-339.39 290.91a24.242 24.242 0 0 0-24.242 24.242v96.969a24.242 24.242 0 0 0 24.242 24.242 24.242 24.242 0 0 0 24.242-24.242v-96.969a24.242 24.242 0 0 0-24.242-24.242zm339.39 48.484a24.242 24.242 0 0 0-24.244 24.242v48.484a24.242 24.242 0 0 0 24.244 24.242 24.242 24.242 0 0 0 24.242-24.242v-48.484a24.242 24.242 0 0 0-24.242-24.242zm-339.39-339.39a24.242 24.242 0 0 0-24.242 24.242v193.94a24.242 24.242 0 0 0 24.242 24.242 24.242 24.242 0 0 0 24.242-24.242v-193.94a24.242 24.242 0 0 0-24.242-24.242z" color="#000000" fill="#fff" stroke-linecap="round"/>
</svg>
