<?xml version="1.0" encoding="UTF-8"?>
<svg width="800px" height="800px" fill="#000000" version="1.1" viewBox="0 0 489.49 489.49" xml:space="preserve" xmlns="http://www.w3.org/2000/svg">
<path d="m395.11 165.33c7.6275-7.6504-2.0462-29.742-21.647-49.342-19.369-19.373-41.1-29.004-49.001-21.843l-0.15375-0.14753-108.57 97.534c-20.073-17.499-50.427-16.902-69.549 2.2092-3.2181 3.2238-5.0319 7.5929-5.0319 12.151 0 4.5585 1.8131 8.9288 5.0319 12.147l49.255 49.261-101.22 114.28c-3.2175 3.6252-3.2887 9.1614 0.0094 12.878 3.5556 4.0027 9.6856 4.371 13.697 0.80893l114.11-101.36 4.9 4.8942 25.376 25.382 18.96 18.96c3.2188 3.2176 7.5869 5.0254 12.14 5.0254 4.5488 0 8.92-1.8116 12.137-5.0361 19.101-19.112 19.702-49.484 2.2119-69.559l97.002-108.04c0.0975-0.0863 0.25375-0.10565 0.34438-0.20316z" fill="#fff" stroke="#000" stroke-width="1.2237"/>
</svg>
