<?xml version="1.0" encoding="UTF-8"?>
<!-- Svg Vector Icons : http://www.onlinewebfonts.com/icon -->
<svg width="512" height="512" enable-background="new 0 0 1000 1000" version="1.1" viewBox="0 0 1e3 1e3" xml:space="preserve" xmlns="http://www.w3.org/2000/svg">
<metadata> Svg Vector Icons : http://www.onlinewebfonts.com/icon </metadata>
<g transform="matrix(-1 0 0 1 1e3 0)" fill="#fff" stroke="#fff"><path d="m348.29 25.885v114.45h-115.03v114.45h-112.04v719.39h530.99v-115.03h112.04v-111.46h114.45v-721.81zm0.9668 0.96484h528.48v719.88h-114.46v111.46h-112.04v115.03h-529.06v-717.46h112.04v-114.45h115.03zm35.766 35.768v78.59h378.26v569.76h78.59v-648.35zm0.9668 0.9668h454.92v646.41h-76.658v-569.76h-378.26zm-115.9 113.49v78.59h381.16v569.08h76.271v-647.67zm0.96679 0.9668h455.49v645.74h-74.338v-569.08h-381.16zm-113 111.07v648.25h457.43v-648.25zm0.96679 0.9668h455.49v646.31h-455.49zm74.82 77.236v38.861h304.5v-38.861h-0.48243zm0.96679 0.96679h302.57v36.928h-302.57zm-1.5469 114.07v35.379h304.5v-35.379h-0.48242zm0.9668 0.9668h302.57v33.445h-302.57zm-0.9668 112.81v37.701h304.5v-37.701h-0.48242zm0.9668 0.9668h302.57v35.768h-302.57zm-0.9668 111.65v37.701h304.5v-37.701h-0.48242zm0.9668 0.9668h302.57v35.768h-302.57zm-0.9668 113.49v37.699h304.5v-37.699h-0.48242zm0.9668 0.96484h302.57v35.768h-302.57zm303.05-341.33h-303.53v34.413h303.53zm0 113.78h-303.53v36.733h303.53zm-188.5-570.24v114.45h-115.03v114.45h-112.04v718.43h530.02v-115.03h112.04v-111.46h114.45v-720.85zm266.22 910.51h-456.46v-647.28h456.46zm112.04-112.62h-75.304v-569.08h-381.16v-77.624h456.46zm114.36-113.78h-77.624v-569.75h-378.26v-77.624h455.88zm-304.11 113.2h-303.53v36.733h303.53zm0-114.45h-303.53v36.733h303.53zm0.58-341.43h-303.53v37.893h303.53z" color="#000000" stroke="none" style="-inkscape-stroke:none"/></g>
<g stroke-linecap="round"><path d="m118.05 876.13 758.08-758.08" color="#000000" stroke-width="97.656" style="-inkscape-stroke:none"/><path d="m876.13 69.223a48.828 48.828 0 0 0-34.525 14.301l-758.08 758.08a48.828 48.828 0 0 0 0 69.053 48.828 48.828 0 0 0 69.055 0l758.08-758.08a48.828 48.828 0 0 0 0-69.055 48.828 48.828 0 0 0-34.527-14.301z" color="#000000" fill="#f00" style="-inkscape-stroke:none"/></g><g stroke-linecap="round"><path d="m876.13 876.13-758.08-758.08" color="#000000" stroke-width="97.656"/><path d="m118.05 69.223a48.828 48.828 0 0 0-34.527 14.301 48.828 48.828 0 0 0 0 69.055l758.08 758.08a48.828 48.828 0 0 0 69.053 0 48.828 48.828 0 0 0 0-69.053l-758.08-758.08a48.828 48.828 0 0 0-34.527-14.301z" color="#000000" fill="#f00"/></g></svg>
