<?xml version="1.0" encoding="UTF-8"?>
<svg width="512" height="512" version="1.1" viewBox="0 0 135.47 135.47" xmlns="http://www.w3.org/2000/svg">
 <g stroke-linecap="square">
  <path d="m124.05 67.733a56.312 56.312 0 0 1-56.312 56.312 56.312 56.312 0 0 1-56.312-56.312 56.312 56.312 0 0 1 56.312-56.312 56.312 56.312 0 0 1 56.312 56.312z" color="#000000" fill-opacity="0" stroke-width="12.31" style="-inkscape-stroke:none"/>
  <path d="m67.732 5.2676c-34.426 0-62.465 28.038-62.465 62.465 0 34.426 28.038 62.467 62.465 62.467 34.426 0 62.467-28.04 62.467-62.467 0-34.426-28.04-62.465-62.467-62.465zm0 12.309c27.774 0 50.158 22.383 50.158 50.156s-22.385 50.158-50.158 50.158c-27.774 0-50.156-22.385-50.156-50.158s22.383-50.156 50.156-50.156z" color="#000000" style="-inkscape-stroke:none"/>
 </g>
 <g fill="#fff">
  <path d="m58.471 28.042h18.53v14.898h-18.53z" color="#000000" stroke-width="0"/>
  <path d="m58.471 28.042h18.53v14.898h-18.53z" color="#000000" fill="#000" stroke-linecap="square"/>
  <path d="m58.572 55.326h18.323c0.05487 0 0.09905 0.04418 0.09905 0.09905v51.895c0 0.0549-0.04418 0.099-0.09905 0.099h-18.323c-0.05487 0-0.09905-0.0442-0.09905-0.099v-51.895c0-0.05487 0.04418-0.09905 0.09905-0.09905z" color="#000000" stroke-width="0"/>
  <path d="m58.572 55.326h18.323c0.05487 0 0.09905 0.04418 0.09905 0.09905v51.895c0 0.0549-0.04418 0.099-0.09905 0.099h-18.323c-0.05487 0-0.09905-0.0442-0.09905-0.099v-51.895c0-0.05487 0.04418-0.09905 0.09905-0.09905z" color="#000000" fill="#000" stroke-linecap="square"/>
 </g>
</svg>
