<?xml version="1.0" encoding="UTF-8"?>
<svg width="32" height="32" enable-background="new 0 0 32 32" version="1.1" viewBox="0 0 32 32" xmlns="http://www.w3.org/2000/svg">
 <g>
  <path d="m30 2h-28c-1.105 0-2 .895-2 2v19c0 1.105.895 2 2 2h11v4h-3.533c-.258 0-.467.224-.467.5s.209.5.467.5h13.067c.257 0 .466-.224.466-.5s-.209-.5-.467-.5h-3.533v-4h11c1.105 0 2-.895 2-2v-19c0-1.105-.895-2-2-2zm-12 27h-4v-4h4zm13-7c0 1.105-.895 2-2 2h-26c-1.105 0-2-.895-2-2v-17c0-1.105.895-2 2-2h26c1.105 0 2 .895 2 2z"/>
  <path d="m28 4h-24c-1.105 0-2 .895-2 2v15c0 1.105.895 2 2 2h24c1.105 0 2-.895 2-2v-15c0-1.105-.895-2-2-2zm1 16c0 1.105-.895 2-2 2h-22c-1.105 0-2-.895-2-2v-13c0-1.105.895-2 2-2h22c1.105 0 2 .895 2 2z"/>
 </g>
</svg>
