<?xml version="1.0" encoding="UTF-8"?>
<svg enable-background="new 0 0 512 512" version="1.1" viewBox="0 0 512 512" xml:space="preserve" xmlns="http://www.w3.org/2000/svg"><g stroke="#fff">

	<path class="st0" d="m423.8 163.2h-330.8c-14 0-25.3-11.3-25.3-25.3s11.3-25.4 25.3-25.4h330.9c14 0 25.3 11.3 25.3 25.3s-11.4 25.4-25.4 25.4z"/>


	<path class="st0" d="m421.5 281.2h-330.9c-14 0-25.3-11.3-25.3-25.3s11.3-25.3 25.3-25.3h330.9c14 0 25.3 11.3 25.3 25.3s-11.3 25.3-25.3 25.3z"/>


	<path class="st0" d="m421.5 399.7h-330.9c-14 0-25.3-11.3-25.3-25.3s11.3-25.4 25.3-25.4h330.9c14 0 25.3 11.3 25.3 25.3s-11.3 25.4-25.3 25.4z"/></g><g transform="rotate(90 149.53 218.79)" stroke="#fff"><path class="st0" d="m353.3 19.423h-330.8c-14 0-25.3-11.3-25.3-25.3s11.3-25.4 25.3-25.4h330.9c14 0 25.3 11.3 25.3 25.3s-11.4 25.4-25.4 25.4z"/><path class="st0" d="m351 137.42h-330.9c-14 0-25.3-11.3-25.3-25.3s11.3-25.3 25.3-25.3h330.9c14 0 25.3 11.3 25.3 25.3s-11.3 25.3-25.3 25.3z"/><path class="st0" d="m351 255.92h-330.9c-14 0-25.3-11.3-25.3-25.3s11.3-25.4 25.3-25.4h330.9c14 0 25.3 11.3 25.3 25.3s-11.3 25.4-25.3 25.4z"/></g>

</svg>
