<?xml version="1.0" encoding="UTF-8"?>
<svg width="512" height="512" fill="none" version="1.1" viewBox="0 0 512 512" xmlns="http://www.w3.org/2000/svg">
 <g transform="matrix(22.046 0 0 22.044 -8.5455 -8.5436)" fill="#000" stroke-linecap="round">
  <path d="m12 1c-6.0633 0-11 4.9367-11 11s4.9367 11 11 11 11-4.9367 11-11-4.9367-11-11-11zm0 2c4.9824 0 9 4.0176 9 9s-4.0176 9-9 9-9-4.0176-9-9 4.0176-9 9-9z" color="#000000" style="-inkscape-stroke:none"/>
  <path d="m8.5352 15a1 1 0 0 0-1.4102 0.10156 1 1 0 0 0 0.10156 1.4102c0.64109 0.55525 1.417 0.91118 2.2188 1.1426 0.81052 0.23395 1.6815 0.3457 2.5547 0.3457s1.7441-0.11176 2.5547-0.3457c0.80171-0.2314 1.5776-0.58734 2.2187-1.1426a1 1 0 0 0 0.10156-1.4102 1 1 0 0 0-1.4102-0.10156c-0.34428 0.29816-0.86755 0.56002-1.4648 0.73242-0.60445 0.17446-1.3016 0.26758-2 0.26758s-1.3956-0.093129-2-0.26758c-0.59734-0.1724-1.1206-0.43427-1.4648-0.73242z" color="#000000" style="-inkscape-stroke:none"/>
  <path d="M 10.25,10 A 1.25,1.25 0 0 1 9,11.25 1.25,1.25 0 0 1 7.75,10 1.25,1.25 0 0 1 9,8.75 1.25,1.25 0 0 1 10.25,10 Z" color="#000000" stroke-width=".5" style="-inkscape-stroke:none"/>
  <path d="m9 8.5c-0.82547 0-1.5 0.67453-1.5 1.5 0 0.82546 0.67453 1.5 1.5 1.5s1.5-0.67454 1.5-1.5c0-0.82547-0.67453-1.5-1.5-1.5zm0 0.5c0.55525 0 1 0.44475 1 1 0 0.55524-0.44475 1-1 1s-1-0.44476-1-1c0-0.55525 0.44475-1 1-1z" color="#000000" style="-inkscape-stroke:none"/>
  <path d="M 16.25,10 A 1.25,1.25 0 0 1 15,11.25 1.25,1.25 0 0 1 13.75,10 1.25,1.25 0 0 1 15,8.75 1.25,1.25 0 0 1 16.25,10 Z" color="#000000" stroke-width=".5" style="-inkscape-stroke:none"/>
  <path d="m15 8.5c-0.82546 0-1.5 0.67453-1.5 1.5 0 0.82546 0.67454 1.5 1.5 1.5s1.5-0.67454 1.5-1.5c0-0.82547-0.67454-1.5-1.5-1.5zm0 0.5c0.55524 0 1 0.44475 1 1 0 0.55524-0.44476 1-1 1s-1-0.44476-1-1c0-0.55525 0.44476-1 1-1z" color="#000000" style="-inkscape-stroke:none"/>
 </g>
</svg>
