<?xml version="1.0" encoding="UTF-8"?>
<svg width="512" height="512" fill="none" version="1.1" viewBox="0 0 512 512" xmlns="http://www.w3.org/2000/svg">
 <path d="m192.9 468.32 8.5204 25.572zm134.72-44.923 8.5198 25.572v-3e-3zm136.04-291.68 19.052 19.06zm-118.94 118.99-19.052-19.06zm-277.34-180.79h377.22v-53.91h-377.22zm0 42.745v-42.745h-53.889v42.745zm118.94 118.99-118.94-118.99-38.105 38.12 118.94 118.98zm-38.105 38.12v185.78h53.889v-185.78zm0 185.78c0 27.597 27.027 47.085 53.197 38.357l-17.041-51.142c8.7238-2.9112 17.732 3.585 17.732 12.785zm53.197 38.357 134.72-44.923-17.04-51.144-134.72 44.926zm134.72-44.926c16.503-5.5015 27.637-20.952 27.637-38.357h-53.889c0-5.8007 3.7102-10.952 9.2123-12.785zm27.637-38.357v-140.85h-53.889v140.85zm80.833-297.96-118.94 118.99 38.105 38.12 118.94-118.98zm0-42.745v42.745h53.889v-42.745zm38.105 80.865c10.107-10.11 15.784-23.822 15.784-38.12h-53.889zm-118.94 118.98-38.105-38.12c-10.107 10.111-15.784 23.823-15.784 38.12zm-215.56 0h53.889c0-14.297-5.6775-28.009-15.784-38.12zm-134.72-157.1c0 14.298 5.6775 28.01 15.784 38.12l38.105-38.12zm431.11-42.745h53.889c0-29.774-24.126-53.91-53.889-53.91zm-377.22-53.91c-29.762 0-53.889 24.136-53.889 53.91h53.889z" fill="#000" stroke-width="26.95"/>
</svg>
