<?xml version="1.0" encoding="UTF-8"?>
<svg width="800px" height="800px" fill="#000000" version="1.1" viewBox="0 0 45.008 45.009" xml:space="preserve" xmlns="http://www.w3.org/2000/svg">
<g transform="matrix(-1 0 0 1 45.008 0)" fill="#000">
	<path d="m43.462 35.997-11.401-11.37c1.197-2.352 1.845-4.962 1.845-7.676 0-4.528-1.765-8.785-4.966-11.986-3.201-3.202-7.459-4.965-11.987-4.965-4.527 0-8.786 1.763-11.987 4.965s-4.966 7.459-4.966 11.987 1.764 8.785 4.966 11.986c3.201 3.202 7.459 4.965 11.986 4.965 2.714 0 5.325-0.646 7.675-1.842l11.371 11.402c1.029 1.029 2.382 1.546 3.732 1.546s2.701-0.517 3.731-1.546c2.063-2.063 2.063-5.404 1e-3 -7.466zm-34.018-11.538c-2.005-2.006-3.109-4.671-3.109-7.507s1.104-5.502 3.11-7.508c2.005-2.005 4.671-3.11 7.507-3.11s5.502 1.104 7.508 3.11c2.005 2.005 3.11 4.671 3.11 7.507s-1.105 5.502-3.11 7.508c-2.006 2.005-4.673 3.109-7.508 3.109s-5.501-1.103-7.508-3.109z" fill="#000"/>
</g>
</svg>
