<?xml version="1.0" encoding="UTF-8"?>
<!-- Generator: Adobe Illustrator 23.1.0, SVG Export Plug-In . SVG Version: 6.00 Build 0)  -->
<svg enable-background="new 0 0 512 512" version="1.1" viewBox="0 0 512 512" xml:space="preserve" xmlns="http://www.w3.org/2000/svg">
<g>
	<path class="st0" d="m292.2 424v-39.2h65.1l-59.4-59.4c-7.6-7.6-7.6-20 0-27.6 3.7-3.7 8.6-5.7 13.8-5.7s10.1 2 13.8 5.7l59.4 59.4v-65.1h39.1v131.9h-131.8z"/>
	<path d="m311.7 293.1c4.8 0 9.5 1.8 13.1 5.4l61.1 61.1v-66.5h37.1v129.9h-129.8v-37.2h66.5l-61.1-61.1c-7.2-7.2-7.2-19 0-26.2 3.6-3.6 8.3-5.4 13.1-5.4m0-2c-5.5 0-10.7 2.1-14.5 6-3.9 3.9-6 9-6 14.5s2.1 10.7 6 14.5l57.7 57.7h-63.7v41.2h133.8v-133.9h-41.1v63.7l-57.7-57.7c-3.8-3.9-9-6-14.5-6z"/>


	<path class="st0" d="M88,424V292.2h39.2v65.1l59.4-59.4c3.7-3.7,8.6-5.7,13.8-5.7s10.1,2,13.8,5.7c7.6,7.6,7.6,20,0,27.6   l-59.4,59.4h65.1V424H88z"/>
	<path d="m200.4 293.2c4.8 0 9.5 1.8 13.1 5.4 7.2 7.2 7.2 19 0 26.2l-61.1 61.1h66.5v37.1h-129.9v-129.8h37.2v66.5l61.1-61.1c3.6-3.6 8.4-5.4 13.1-5.4m0-2c-5.5 0-10.7 2.1-14.5 6l-57.7 57.7v-63.7h-41.2v133.8h133.9v-41.1h-63.7l57.7-57.7c8-8 8-21 0-29-3.8-3.9-9-6-14.5-6z"/>


	<path class="st0" d="m311.6 219.8c-5.2 0-10.1-2-13.8-5.7s-5.7-8.6-5.7-13.8 2-10.1 5.7-13.8l59.4-59.4h-65.1v-39.1h131.8v131.8h-39.1v-65.1l-59.4 59.4c-3.7 3.7-8.6 5.7-13.8 5.7z" stroke="#000"/>
	<path d="m422.9 89v129.8h-37.1v-66.5l-61.1 61.1c-3.6 3.6-8.4 5.4-13.1 5.4s-9.5-1.8-13.1-5.4c-7.2-7.2-7.2-19 0-26.2l61.1-61.1h-66.5v-37.1h129.8m2-2h-133.8v41.1h63.7l-57.7 57.7c-3.9 3.9-6 9-6 14.5s2.1 10.7 6 14.5c3.9 3.9 9 6 14.5 6s10.7-2.1 14.5-6l57.7-57.7v63.7h41.1v-133.8z"/>


	<path class="st0" d="m200.3 219.9c-5.2 0-10.1-2-13.8-5.7l-59.4-59.4v65.1h-39.1v-131.9h130.9v1h0.9v38.2h-65.1l59.4 59.4c7.6 7.6 7.6 20 0 27.6-3.7 3.7-8.6 5.7-13.8 5.7z"/>
	<path d="m218.9 89h-0.1 0.1m-0.1 0v37.2h-66.5l61.1 61.1c7.2 7.2 7.2 19 0 26.2-3.6 3.6-8.3 5.4-13.1 5.4s-9.5-1.8-13.1-5.4l-61.1-61.1v66.5h-37.1v-129.9h129.8m2-2h-133.8v133.9h41.1v-63.7l57.7 57.7c3.9 3.9 9 6 14.5 6s10.7-2.1 14.5-6c8-8 8-21 0-29l-57.7-57.7h63.7v-41.2z"/>
</g>
</svg>
