<?xml version="1.0" encoding="UTF-8"?>
<!-- Generator: Adobe Illustrator 23.1.0, SVG Export Plug-In . SVG Version: 6.00 Build 0)  -->
<svg enable-background="new 0 0 512 512" version="1.1" viewBox="0 0 512 512" xml:space="preserve" xmlns="http://www.w3.org/2000/svg">

<g>
	<path class="st0" d="m411.8 430.2c-4.9 0-9.5-1.9-13-5.4l-72.6-72.6v43.4h-36.6v-105.9h105.9v36.6h-43.4l72.6 72.6c7.1 7.1 7.1 18.7 0 25.9-3.4 3.5-8 5.4-12.9 5.4z"/>
	<path d="m394.6 290.7v34.6h-44.8l74.3 74.3c6.7 6.7 6.7 17.7 0 24.5-3.4 3.4-7.8 5.1-12.3 5.1-4.4 0-8.9-1.7-12.3-5.1l-74.3-74.3v44.8h-34.6v-103.9h104m2-2h-107.9v107.9h38.6v-42l70.9 70.9c3.7 3.7 8.5 5.7 13.7 5.7s10-2 13.7-5.7c7.5-7.6 7.5-19.8 0-27.3l-70.9-70.9h42v-38.6h-0.1z"/>


	<path class="st0" d="m289.7 222.3v-105.9h36.6v43.4l72.6-72.6c3.5-3.5 8.1-5.4 13-5.4s9.5 1.9 13 5.4c7.1 7.2 7.1 18.8 0 25.9l-72.6 72.6h43.4v36.6h-106z"/>
	<path d="m411.9 82.8c4.4 0 8.9 1.7 12.3 5.1 6.7 6.8 6.7 17.8 0 24.5l-74.3 74.3h44.8v34.6h-104v-103.9h34.6v44.8l74.3-74.3c3.4-3.4 7.8-5.1 12.3-5.1m0-2c-5.1 0-10 2-13.7 5.7l-70.9 70.9v-42h-38.6v107.9h107.9v-38.6h-42l70.9-70.9c7.5-7.5 7.5-19.7 0-27.3-3.7-3.7-8.5-5.7-13.6-5.7z"/>


	<path class="st0" d="m100.3 430.1c-4.9 0-9.5-1.9-13-5.4s-5.4-8.1-5.4-13 1.9-9.5 5.4-13l72.6-72.6h-43.4v-36.6h105.9v105.9h-36.6v-43.4l-72.6 72.6c-3.5 3.6-8.1 5.5-12.9 5.5z"/>
	<path d="m221.4 290.6v103.9h-34.6v-44.8l-74.3 74.3c-3.4 3.4-7.8 5.1-12.3 5.1s-8.8-1.7-12.2-5.1c-6.8-6.8-6.8-17.7 0-24.5l74.3-74.3h-44.8v-34.6h103.9m2-2h-107.9v38.6h42l-70.9 70.9c-3.7 3.7-5.7 8.5-5.7 13.7s2 10 5.7 13.7 8.5 5.7 13.7 5.7 10-2 13.7-5.7l70.9-70.9v42h38.6v-108h-0.1z"/>


	<path class="st0" d="m116.5 222.4v-36.6h43.4l-72.6-72.6c-3.5-3.5-5.4-8.1-5.4-13s1.9-9.5 5.4-13 8.1-5.4 13-5.4 9.5 1.9 13 5.4l72.6 72.6v-43.4h36.6v105.9h-106z"/>
	<path d="m100.3 82.9c4.4 0 8.9 1.7 12.3 5.1l74.3 74.3v-44.8h34.6v103.9h-103.9v-34.6h44.8l-74.4-74.3c-6.8-6.8-6.8-17.7 0-24.5 3.4-3.4 7.8-5.1 12.3-5.1m0-2c-5.1 0-10 2-13.7 5.7s-5.7 8.5-5.7 13.7 2 10 5.7 13.7l70.9 70.9h-42v38.6h107.9v-107.9h-38.6v42l-70.9-70.9c-3.7-3.8-8.5-5.8-13.6-5.8z"/>
</g>
</svg>
