<?xml version="1.0" encoding="UTF-8"?>
<svg enable-background="new 0 0 512 512" version="1.1" viewBox="0 0 512 512" xml:space="preserve" xmlns="http://www.w3.org/2000/svg">
  <g fill="#dedede">
    <path class="st0" d="M423.8 163.2H93c-14 0-25.3-11.3-25.3-25.3S79 112.5 93 112.5h330.9c14 0 25.3 11.3 25.3 25.3s-11.4 25.4-25.4 25.4z"/>
  
  
    <path class="st0" d="M421.5 281.2H90.6c-14 0-25.3-11.3-25.3-25.3s11.3-25.3 25.3-25.3h330.9c14 0 25.3 11.3 25.3 25.3s-11.3 25.3-25.3 25.3z"/>
  
  
    <path class="st0" d="M421.5 399.7H90.6c-14 0-25.3-11.3-25.3-25.3S76.6 349 90.6 349h330.9c14 0 25.3 11.3 25.3 25.3s-11.3 25.4-25.3 25.4z"/>
  </g>
</svg>
