<?xml version="1.0" encoding="UTF-8"?>
<svg width="512" height="512" fill="none" version="1.1" viewBox="0 0 512 512" xmlns="http://www.w3.org/2000/svg">
 <g transform="matrix(24.251 0 0 24.251 -35.001 -35.001)" fill="#fff">
  <path d="m12 2c-5.511 0-10 4.489-10 10s4.489 10 10 10 10-4.489 10-10-4.489-10-10-10zm0 2c4.4301 0 8 3.5699 8 8s-3.5699 8-8 8-8-3.5699-8-8 3.5699-8 8-8z" color="#000000" fill="#000" style="-inkscape-stroke:none"/>
  <path d="m12.5 18a0.5 0.5 0 0 1-0.5 0.5 0.5 0.5 0 0 1-0.5-0.5 0.5 0.5 0 0 1 0.5-0.5 0.5 0.5 0 0 1 0.5 0.5z" color="#000000" style="-inkscape-stroke:none"/>
  <path d="m12 17c-0.54636 0-1 0.45364-1 1s0.45364 1 1 1 1-0.45364 1-1-0.45364-1-1-1z" color="#000000" fill="#000" style="-inkscape-stroke:none"/>
  <path d="m12 6c-2.1973 0-4 1.8027-4 4h2c0-1.1164 0.88353-2 2-2h0.09375c1.0644 0 1.9062 0.84191 1.9062 1.9062v0.51172c0 0.5176-0.32531 0.96911-0.81641 1.1328-1.3005 0.4335-2.1836 1.6604-2.1836 3.0312v1.418h2v-1.418c0-0.5176 0.32531-0.96911 0.81641-1.1328 1.3005-0.4335 2.1836-1.6604 2.1836-3.0312v-0.51172c0-2.1452-1.761-3.9062-3.9062-3.9062z" color="#000000" fill="#000" style="-inkscape-stroke:none"/>
 </g>
</svg>
