<?xml version="1.0" encoding="UTF-8"?>
<svg width="512" height="512" fill="none" version="1.1" viewBox="0 0 512 512" xmlns="http://www.w3.org/2000/svg">
 <g transform="matrix(24.25 0 0 24.25 -34.999 -34.749)" fill="#000">
  <g stroke-linecap="round" stroke-linejoin="round">
   <path d="m8 9a1 1 0 0 0-1 1v6a1 1 0 0 0 1 1 1 1 0 0 0 1-1v-6a1 1 0 0 0-1-1z" color="#000000" style="-inkscape-stroke:none"/>
   <path d="m12 11a1 1 0 0 0-1 1v4a1 1 0 0 0 1 1 1 1 0 0 0 1-1v-4a1 1 0 0 0-1-1z" color="#000000" style="-inkscape-stroke:none"/>
   <path d="m16 7a1 1 0 0 0-1 1v8a1 1 0 0 0 1 1 1 1 0 0 0 1-1v-8a1 1 0 0 0-1-1z" color="#000000" style="-inkscape-stroke:none"/>
  </g>
  <path d="m5 3c-1.6447 0-3 1.3553-3 3v12c0 1.6447 1.3553 3 3 3h14c1.6447 0 3-1.3553 3-3v-12c0-1.6447-1.3553-3-3-3zm0 2h14c0.5713 0 1 0.4287 1 1v12c0 0.5713-0.4287 1-1 1h-14c-0.5713 0-1-0.4287-1-1v-12c0-0.5713 0.4287-1 1-1z" color="#000000" style="-inkscape-stroke:none"/>
 </g>
</svg>
