<?xml version="1.0" encoding="UTF-8"?>
<svg width="512" height="512" fill="none" version="1.1" viewBox="0 0 512 512" xmlns="http://www.w3.org/2000/svg">
 <g fill="#000">
  <path d="m384.7 231.51c11.395 0 20.632 10.964 20.632 24.49s-9.2369 24.49-20.632 24.49zm-288.85 48.979c-11.395 0-20.632-10.964-20.632-24.49s9.2371-24.49 20.632-24.49zm288.85 0h-288.85v-48.979h288.85z" stroke-width="22.478"/>
  <path d="m496.32 251.02-133.47-95.339c-12.967-9.2622-30.979 7e-3 -30.979 15.942v168.75c0 15.935 18.012 25.205 30.979 15.943l133.47-95.338c3.4188-2.4416 3.4188-7.5208 0-9.9624z" stroke-width="24.49"/>
  <path d="m15.654 260.68 133.27 95.62c12.948 9.2896 30.979 0.0584 31.013-15.877l0.35609-168.75c0.0336-15.935-17.959-25.243-30.946-16.008l-133.67 95.056c-3.4239 2.4344-3.4346 7.5135-0.021 9.9624z" stroke-width="24.49"/>
 </g>
</svg>
