<?xml version="1.0" encoding="UTF-8"?>
<svg width="512" height="512" version="1.1" viewBox="0 0 512 512" xmlns="http://www.w3.org/2000/svg">
 <path d="m54.434 13.518c-22.431 0-40.916 18.485-40.916 40.916v136.38c0 22.431 18.485 40.916 40.916 40.916h136.38c22.431 0 40.916-18.485 40.916-40.916v-136.38c0-22.431-18.485-40.916-40.916-40.916zm0 27.277h136.38c7.7915 0 13.639 5.8472 13.639 13.639v136.38c0 7.7915-5.8472 13.639-13.639 13.639h-136.38c-7.7915 0-13.639-5.8472-13.639-13.639v-136.38c0-7.7915 5.8472-13.639 13.639-13.639z" color="#000000" stroke-linecap="round" style="-inkscape-stroke:none"/>
 <g stroke-linecap="round">
  <path d="m62 304.5h121.25c13.434 0 24.25 10.816 24.25 24.25v121.25c0 13.434-10.816 24.25-24.25 24.25h-121.25c-13.434 0-24.25-10.816-24.25-24.25v-121.25c0-13.434 10.815-24.25 24.25-24.25z" color="#000000" stroke-width="48.5"/>
  <path d="m62 280.25c-26.45 0-48.5 22.05-48.5 48.5v121.25c0 26.45 22.05 48.5 48.5 48.5h121.25c26.45 0 48.5-22.05 48.5-48.5v-121.25c0-26.45-22.05-48.5-48.5-48.5zm0 48.5h121.25v121.25h-121.25z" color="#000000"/>
  <path d="m283.16 79.201h191.31" color="#000000" stroke-width="47.827"/>
  <path d="m283.16 55.287a23.913 23.913 0 0 0-23.912 23.914 23.913 23.913 0 0 0 23.912 23.912h191.31a23.913 23.913 0 0 0 23.914-23.912 23.913 23.913 0 0 0-23.914-23.914z" color="#000000"/>
  <path d="m283.16 174.82h191.31" color="#000000" stroke-width="47.827"/>
  <path d="m283.16 150.91a23.913 23.913 0 0 0-23.912 23.912 23.913 23.913 0 0 0 23.912 23.914h191.31a23.913 23.913 0 0 0 23.914-23.914 23.913 23.913 0 0 0-23.914-23.912z" color="#000000"/>
  <path d="m279.16 338.87h132.67" color="#000000" stroke-width="39.829"/>
  <path d="m279.16 318.96a19.914 19.914 0 0 0-19.916 19.914 19.914 19.914 0 0 0 19.916 19.914h132.67a19.914 19.914 0 0 0 19.914-19.914 19.914 19.914 0 0 0-19.914-19.914z" color="#000000"/>
  <path d="m279.43 434.53h136.32" color="#000000" stroke-width="40.372"/>
  <path d="m279.43 414.34a20.186 20.186 0 0 0-20.188 20.186 20.186 20.186 0 0 0 20.188 20.188h136.32a20.186 20.186 0 0 0 20.186-20.188 20.186 20.186 0 0 0-20.186-20.186z" color="#000000"/>
 </g>
</svg>
