<?xml version="1.0" encoding="UTF-8"?>
<svg width="512" height="512" version="1.1" viewBox="0 0 512 512" xmlns="http://www.w3.org/2000/svg">
 <g transform="rotate(90 256 256)" stroke-linecap="round">
  <path transform="rotate(-90)" d="m-440.47 183.74c-31.89 0-58.033 26.143-58.033 58.033v195.45c0 31.89 26.143 58.033 58.033 58.033h102.19c31.89 0 58.033-26.143 58.033-58.033v-195.45c0-31.89-26.143-58.033-58.033-58.033zm0 30h102.19c15.789 0 28.033 12.244 28.033 28.033v195.45c0 15.789-12.244 28.033-28.033 28.033h-102.19c-15.789 0-28.033-12.244-28.033-28.033v-195.45c0-15.789 12.244-28.033 28.033-28.033z"/>
  <path transform="rotate(-90)" d="m-173.72 13.5c-31.89 0-58.033 26.143-58.033 58.033v195.45c0 31.89 26.143 58.031 58.033 58.031h102.19c31.89 0 58.033-26.141 58.033-58.031v-195.45c0-31.89-26.143-58.033-58.033-58.033zm0 30h102.19c15.789 0 28.033 12.244 28.033 28.033v195.45c0 15.789-12.244 28.031-28.033 28.031h-102.19c-15.789 0-28.033-12.242-28.033-28.031v-195.45c0-15.789 12.244-28.033 28.033-28.033z"/>
  <path transform="scale(1,-1)" d="m55.591-498.5h55.052c23.84 0 43.032 19.192 43.032 43.032v132.19c0 23.84-19.192 43.032-43.032 43.032h-55.052c-23.84 0-43.032-19.192-43.032-43.032v-132.19c0-23.84 19.192-43.032 43.032-43.032z" stroke-width="30"/>
  <path transform="scale(1,-1)" d="m401.36-231.75h55.052c23.84 0 43.032 19.192 43.032 43.032v132.19c0 23.84-19.192 43.032-43.032 43.032h-55.052c-23.84 0-43.032-19.192-43.032-43.032v-132.19c0-23.84 19.192-43.032 43.032-43.032z" stroke-width="30"/>
 </g>
</svg>
