<?xml version="1.0" encoding="UTF-8"?>
<!-- Generator: Adobe Illustrator 23.1.0, SVG Export Plug-In . SVG Version: 6.00 Build 0)  -->
<svg enable-background="new 0 0 512 512" version="1.1" viewBox="0 0 512 512" xml:space="preserve" xmlns="http://www.w3.org/2000/svg">

	<path class="st0" d="m423.8 163.2h-330.8c-14 0-25.3-11.3-25.3-25.3s11.3-25.4 25.3-25.4h330.9c14 0 25.3 11.3 25.3 25.3s-11.4 25.4-25.4 25.4z" stroke="#fff"/>


	<path class="st0" d="m421.5 281.2h-330.9c-14 0-25.3-11.3-25.3-25.3s11.3-25.3 25.3-25.3h330.9c14 0 25.3 11.3 25.3 25.3s-11.3 25.3-25.3 25.3z" stroke="#fff"/>


	<path class="st0" d="m421.5 399.7h-330.9c-14 0-25.3-11.3-25.3-25.3s11.3-25.4 25.3-25.4h330.9c14 0 25.3 11.3 25.3 25.3s-11.3 25.4-25.3 25.4z" stroke="#fff"/>

</svg>
