<?xml version="1.0" encoding="UTF-8"?>
<svg class="svg-icon" fill="currentColor" overflow="hidden" style="height:1em;vertical-align:middle;width:1em" version="1.1" viewBox="0 0 1024 1024" xmlns="http://www.w3.org/2000/svg">
 <path d="m203.11 258.91a632.79 632.79 0 0 0 114.74 50.693 629.82 629.82 0 0 0-32.806 173.87h-170.99a397.38 397.38 0 0 1 89.062-224.56zm215.49-134.88a636.49 636.49 0 0 0-79.847 132.36 577.19 577.19 0 0 1-94.396-40.222 398.04 398.04 0 0 1 174.24-92.142zm361.01 92.141a575.1 575.1 0 0 1-94.395 40.224 636.49 636.49 0 0 0-79.847-132.36c66.04 15.861 125.52 48.039 174.24 92.141zm41.251 42.734a397.38 397.38 0 0 1 89.089 224.56h-170.93a628.79 628.79 0 0 0-32.863-173.87 632.79 632.79 0 0 0 114.74-50.693zm0 506.18a632.79 632.79 0 0 0-114.74-50.693 628.39 628.39 0 0 0 32.863-173.87h170.93a397.3 397.3 0 0 1-89.061 224.56zm-135.65 2.481c32.863 10.641 64.414 24.162 94.425 40.224a397.89 397.89 0 0 1-174.27 92.141 635.75 635.75 0 0 0 79.875-132.36zm-201.74-26.587v147.48a575.33 575.33 0 0 1-88.661-135.7 573.11 573.11 0 0 1 88.661-11.782zm0-200.46v143.49a627.74 627.74 0 0 0-110.4 15.119 568.2 568.2 0 0 1-31.01-158.61zm-88.661-269.32a575.76 575.76 0 0 1 88.661-135.7v147.48a562.89 562.89 0 0 1-88.661-11.782zm88.661 68.75v143.52h-141.38c2.8536-55.342 13.437-108.54 30.953-158.61 35.743 8.2151 72.629 13.351 110.43 15.119zm57.055-56.968v-147.48a574.76 574.76 0 0 1 88.633 135.7c-28.812 6.1619-58.396 10.213-88.633 11.782zm0 200.49v-143.49a625.11 625.11 0 0 0 110.4-15.147 569.26 569.26 0 0 1 30.98 158.61h-141.38zm88.633 269.3a574.33 574.33 0 0 1-88.633 135.73v-147.48c30.238 1.5984 59.821 5.6202 88.633 11.754zm-88.633-68.75v-143.49h141.38a569.26 569.26 0 0 1-30.981 158.61 627.77 627.77 0 0 0-110.4-15.119zm-296.17 123.81a574.73 574.73 0 0 1 94.425-40.252 634.64 634.64 0 0 0 79.876 132.37 397.98 397.98 0 0 1-174.3-92.142zm-41.25-42.733a397.3 397.3 0 0 1-89.062-224.56h170.96c2.8524 60.591 14.093 118.93 32.835 173.87a632.79 632.79 0 0 0-114.74 50.693zm666.16 30.466a454.24 454.24 0 0 0 99.16-283.56c0-128.11-52.947-243.71-137.93-326.63a454.72 454.72 0 0 0-318.5-129.8 454.72 454.72 0 0 0-318.5 129.8c-13.835 13.523-26.73 27.928-38.796 43.076a454.15 454.15 0 0 0-99.134 283.56c0 252.06 204.34 456.43 456.43 456.43a454.72 454.72 0 0 0 318.48-129.83h0.0282a458.43 458.43 0 0 0 38.796-43.075z" fill="#1a1a1a" stroke-width="1.2258"/>
</svg>
