<?xml version="1.0" encoding="UTF-8"?>
<svg width="800px" height="800px" fill="#000000" version="1.1" viewBox="0 0 465.06 465.06" xml:space="preserve" xmlns="http://www.w3.org/2000/svg">
<g fill="#000">
	<path d="m156.77 143h37.377v25.939h-13.97c-4.142 0-7.5 3.357-7.5 7.5s3.358 7.5 7.5 7.5h104.71c4.143 0 7.5-3.357 7.5-7.5s-3.357-7.5-7.5-7.5h-13.97v-25.939h37.377c14.728 0 26.709-11.981 26.709-26.709v-89.556c0-14.728-11.981-26.709-26.709-26.709h-151.52c-14.728 0-26.709 11.981-26.709 26.709v89.556c0 14.728 11.982 26.709 26.709 26.709zm99.147 25.939h-46.77v-25.939h46.77v25.939zm-110.86-142.2c0-6.456 5.252-11.709 11.709-11.709h151.52c6.456 0 11.709 5.253 11.709 11.709v89.556c0 6.456-5.253 11.709-11.709 11.709h-151.52c-6.457 0-11.709-5.253-11.709-11.709v-89.556z"/>
	<path d="m178.23 281.12h-151.52c-14.728 0-26.709 11.982-26.709 26.709v89.556c0 14.728 11.981 26.709 26.709 26.709h37.377v25.939h-13.97c-4.142 0-7.5 3.357-7.5 7.5s3.358 7.5 7.5 7.5h104.71c4.142 0 7.5-3.357 7.5-7.5s-3.358-7.5-7.5-7.5h-13.969v-25.939h37.377c14.728 0 26.709-11.981 26.709-26.709v-89.556c1e-3 -14.727-11.981-26.709-26.708-26.709zm-52.377 168.91h-46.77v-25.939h46.77v25.939zm64.086-52.648c0 6.456-5.252 11.709-11.709 11.709h-151.52c-6.457 0-11.709-5.253-11.709-11.709v-89.556c0-6.456 5.252-11.709 11.709-11.709h151.52c6.457 0 11.709 5.253 11.709 11.709v89.556z"/>
	<path d="m438.35 281.12h-151.52c-14.728 0-26.709 11.981-26.709 26.709v89.556c0 14.728 11.981 26.709 26.709 26.709h37.377v25.939h-13.969c-4.143 0-7.5 3.357-7.5 7.5s3.357 7.5 7.5 7.5h104.71c4.143 0 7.5-3.357 7.5-7.5s-3.357-7.5-7.5-7.5h-13.969v-25.939h37.377c14.728 0 26.709-11.981 26.709-26.709v-89.556c1e-3 -14.727-11.981-26.709-26.708-26.709zm-52.377 168.91h-46.771v-25.939h46.771v25.939zm64.086-52.648c0 6.456-5.253 11.709-11.709 11.709h-151.52c-6.456 0-11.709-5.253-11.709-11.709v-89.556c0-6.456 5.253-11.709 11.709-11.709h151.52c6.456 0 11.709 5.253 11.709 11.709v89.556z"/>
	<path d="m355.09 258.62c0 4.143 3.357 7.5 7.5 7.5s7.5-3.357 7.5-7.5v-26.087c0-4.143-3.357-7.5-7.5-7.5h-122.56v-18.587c0-4.143-3.357-7.5-7.5-7.5-4.142 0-7.5 3.357-7.5 7.5v18.587h-122.56c-4.142 0-7.5 3.357-7.5 7.5v26.087c0 4.143 3.358 7.5 7.5 7.5s7.5-3.357 7.5-7.5v-18.587h245.12v18.587z"/>
</g>
</svg>
