<?xml version="1.0" encoding="UTF-8"?>
<svg width="512" height="512" version="1.1" viewBox="0 0 512 512" xmlns="http://www.w3.org/2000/svg">
 <path d="m380.51 231.44c13.513 0 24.467 10.954 24.467 24.467 0 13.513-10.954 24.467-24.467 24.467zm-342.54 48.935c-13.513 0-24.467-10.954-24.467-24.467 0-13.513 10.954-24.467 24.467-24.467zm342.54 0h-342.54v-48.935h342.54z" fill="#000" stroke-width="24.467"/>
 <path d="m495.88 250.93-133.35-95.253c-12.956-9.2538-30.951 7e-3 -30.951 15.928v168.6c0 15.921 17.996 25.182 30.951 15.928l133.35-95.252c3.4156-2.4394 3.4156-7.514 0-9.9534z" fill="#000" stroke-width="24.467"/>
</svg>
