<?xml version="1.0" encoding="UTF-8"?>
<svg width="32px" height="32px" version="1.1" viewBox="0 0 32 32" xmlns="http://www.w3.org/2000/svg">
 <g fill="#000" fill-rule="evenodd">
  <g id="icon-114-lock" fill="#000">
   <path id="lock" d="m16 21.915v2.5943c0 0.27117 0.23193 0.49101 0.5 0.49101 0.27614 0 0.5-0.22788 0.5-0.49101v-2.5943c0.5826-0.20592 1-0.76154 1-1.4146 0-0.82843-0.67157-1.5-1.5-1.5s-1.5 0.67157-1.5 1.5c0 0.65311 0.4174 1.2087 1 1.4146zm-7-7.9146v-3.5008c0-4.1425 3.3579-7.4992 7.5-7.4992 4.1337 0 7.5 3.3575 7.5 7.4992v3.5008c1.6591 0.0047363 3 1.3503 3 3.0095v9.981c0 1.6728-1.3471 3.0095-3.0088 3.0095h-14.982c-1.6632 0-3.0088-1.3474-3.0088-3.0095v-9.981c0-1.6699 1.3423-3.0048 3-3.0095zm3-1.25e-5v-3.4991c0-2.4916 2.0147-4.5009 4.5-4.5009 2.4802 0 4.5 2.0151 4.5 4.5009v3.4991h-9z" fill="#000"/>
  </g>
 </g>
</svg>
