<?xml version="1.0" encoding="UTF-8"?>
<svg width="800px" height="800px" version="1.1" viewBox="0 0 108.78 108.78" xmlns="http://www.w3.org/2000/svg">
 <g transform="translate(-37.109 -210.36)" fill="none" stroke="#000" stroke-linecap="round" stroke-linejoin="round" stroke-width="3">
  <path d="m144.39 264.75c0 13.468-23.68 24.386-52.891 24.386s-52.891-10.918-52.891-24.386c0-7.3 6.949-13.843 17.962-18.312"/>
  <path d="m103.54 312.32c-3.635 3.408-7.719 5.321-12.035 5.321-15.187 0-27.5-23.68-27.5-52.891s12.312-52.891 27.5-52.891c7.372 0 14.066 5.579 19 14.662"/>
  <path d="m73.344 256.07h8.681v8.681h-8.681"/>
  <path d="m73.344 264.75h8.681v8.681h-8.681"/>
  <path d="m95.841 264.75h-8.682v-8.681h8.681"/>
  <rect transform="translate(87.159 264.75)" width="8.681" height="8.681"/>
  <path d="m109.66 264.75v8.681h-8.681v-17.362h8.681z"/>
  <circle transform="translate(115.25 256.07)" cx="2.858" cy="2.858" r="2.858"/>
  <path d="m49.662 244.04 6.909 2.4-2.4 6.909"/>
  <path d="m112.04 219.4-1.662 7.121-7.121-1.662"/>
 </g>
</svg>
