<?xml version="1.0" encoding="UTF-8"?>
<svg width="512" height="512" fill="none" version="1.1" viewBox="0 0 512 512" xmlns="http://www.w3.org/2000/svg">
 <g transform="matrix(24.467 0 0 24.467 -39.842 -37.699)" fill="#000">
  <path d="m7 11c-0.55228 0-1 0.4477-1 1s0.44772 1 1 1zm14 2c0.5523 0 1-0.4477 1-1s-0.4477-1-1-1zm-14 0h14v-2h-14z"/>
  <path d="m2.2848 11.797 5.4502-3.893c0.52949-0.37821 1.265 2.9e-4 1.265 0.65099v6.8908c0 0.6507-0.7355 1.0292-1.265 0.651l-5.4502-3.893c-0.13959-0.0997-0.13959-0.3071 0-0.4068z"/>
 </g>
</svg>
