<?xml version="1.0" encoding="UTF-8"?>
<svg width="512" height="512" fill="none" version="1.1" viewBox="0 0 512 512" xmlns="http://www.w3.org/2000/svg">
 <path d="m183.25 13.527c-34.293 0-60.498-0.15383-83.055 2.8789-22.557 3.0327-43.028 10.278-58.281 25.531s-22.497 35.722-25.529 58.279c-3.0327 22.557-2.8789 48.761-2.8789 83.055v145.49c0 34.293-0.15383 60.498 2.8789 83.055s10.276 43.026 25.529 58.279 35.722 22.498 58.279 25.531c22.557 3.0328 48.763 2.8789 83.057 2.8789h145.49c34.293 0 60.498 0.15391 83.055-2.8789s43.026-10.278 58.279-25.531 22.498-35.722 25.531-58.279c3.0328-22.557 2.8789-48.762 2.8789-83.055v-173.9c0-9.9118 0.58748-18.273-3.6894-28.602-4.2803-10.336-10.611-15.831-17.617-22.838l-68.588-68.588c-7.0089-7.0097-12.508-13.335-22.832-17.613l-2e-3 -2e-3h-2e-3c-10.329-4.2776-18.693-3.6914-28.604-3.6914zm0 48.498h173.9c6.3578 0 9.0464 0.21798 9.9473 0.23633 0.65312 0.62622 2.7094 2.375 7.1992 6.8652l68.586 68.588c4.4933 4.4939 6.2424 6.5509 6.8672 7.2012 0.0187 0.90368 0.23633 3.5925 0.23633 9.9453v173.9c0 34.293-0.15316 59.529-2.4473 76.592s-5.7033 24.395-11.758 30.449-13.386 9.4637-30.449 11.758-42.299 2.4473-76.592 2.4473h-145.49c-34.293 0-59.531-0.15315-76.594-2.4473-17.063-2.2941-24.393-5.7035-30.447-11.758-6.0543-6.0544-9.4637-13.386-11.758-30.449s-2.4473-42.299-2.4473-76.592v-145.49c0-34.293 0.1532-59.531 2.4473-76.594s5.7037-24.393 11.758-30.447 13.384-9.4637 30.447-11.758c17.063-2.2941 42.3-2.4473 76.594-2.4473zm-48.5 72.748a24.249 24.249 0 0 0-24.248 24.248 24.249 24.249 0 0 0 24.248 24.25h121.25a24.249 24.249 0 0 0 24.25-24.25 24.249 24.249 0 0 0-24.25-24.248zm96.998 169.74c-22.862 0-40.493-0.15281-56.447 1.9922-15.954 2.145-31.79 7.6122-43.492 19.314-11.702 11.702-17.17 27.538-19.314 43.492-2.145 15.954-1.9922 33.585-1.9922 56.447v48.498h48.498v-48.498c0-22.862 0.15233-39.525 1.5586-49.984s3.0418-13.159 5.5449-15.662c2.5028-2.5029 5.2005-4.1367 15.66-5.543 10.46-1.4063 27.122-1.5586 49.984-1.5586h24.248c22.862 0 39.525 0.15231 49.984 1.5586 10.46 1.4063 13.157 3.0398 15.66 5.543 2.5032 2.5032 4.1386 5.2026 5.5449 15.662 1.4063 10.46 1.5586 27.122 1.5586 49.984v48.498h48.498v-48.498c0-22.862 0.15281-40.493-1.9922-56.447-2.145-15.954-7.6125-31.79-19.314-43.492-11.702-11.702-27.538-17.169-43.492-19.314s-33.585-1.9922-56.447-1.9922z" color="#000000" fill="#000"/>
</svg>
