<?xml version="1.0" encoding="UTF-8"?>
<svg width="512" height="512" version="1.1" viewBox="0 0 24.381 24.381" xmlns="http://www.w3.org/2000/svg">
 <path d="m16.334 17.274-0.8833 0.4688 0.4688 0.8833 0.8833-0.4688zm-3.5352-4.5279 2.6519 4.9967 1.7666-0.9376-2.6519-4.9967zm4.004 5.4112 4.9967-2.6519-0.93759-1.7666-4.9967 2.6519z"/>
 <path d="m9.4668 5.3457c-1.753 0.16745-3.4026 0.90941-4.6914 2.1094-1.2888 1.2-2.1455 2.7927-2.4375 4.5293-0.29195 1.7365-0.0013 3.5207 0.82422 5.0762a1 1 0 0 0 1.3516 0.41406 1 1 0 0 0 0.41406-1.3516c-0.61927-1.1668-0.8362-2.504-0.61719-3.8066 0.21902-1.3027 0.86134-2.4963 1.8281-3.3965 0.96678-0.90017 2.2046-1.4564 3.5195-1.582 1.315-0.12553 2.6342 0.1859 3.7539 0.88672 1.1197 0.70083 1.9758 1.7506 2.4375 2.9883 0.46162 1.2376 0.50239 2.5926 0.11524 3.8555a1 1 0 0 0 0.66211 1.25 1 1 0 0 0 1.25-0.66406c0.51612-1.6836 0.46106-3.4908-0.1543-5.1406-0.61545-1.6498-1.7573-3.0501-3.25-3.9844-1.4926-0.93425-3.253-1.3509-5.0059-1.1836z" color="#000000" stroke-linecap="round" style="-inkscape-stroke:none"/>
</svg>
