<?xml version="1.0" encoding="UTF-8"?>
<svg width="512" height="512" fill="none" version="1.1" viewBox="0 0 512 512" xmlns="http://www.w3.org/2000/svg">
 <path d="m452.8 21.396-296.58 296.58 38.129 38.131 296.58-296.58zm-115.75-7.8965v53.924h107.85v107.85h53.924v-161.77zm-242.66 296.58c-12.71 0-22.781-0.17126-33.178 1.2266-10.397 1.3978-22.851 5.5038-31.914 14.566v2e-3c-9.0623 9.0626-13.169 21.518-14.566 31.914s-1.2285 20.468-1.2285 33.178v26.961c0 12.71-0.16925 22.781 1.2285 33.178 1.3978 10.397 5.5041 22.851 14.566 31.914 9.0626 9.0626 21.517 13.171 31.914 14.568 10.397 1.3978 20.468 1.2266 33.178 1.2266h26.963c12.71 0 22.781 0.17126 33.178-1.2266 10.397-1.3978 22.851-5.5058 31.914-14.568 9.0624-9.0627 13.169-21.518 14.566-31.914 1.3978-10.396 1.2285-20.468 1.2285-33.178v-107.85h-26.963zm0 53.924h53.924v53.924c0 12.71-0.16963 21.704-0.7461 25.992-0.0231 0.17195-7.4e-4 0.0514-0.0215 0.20312-0.15055 0.0206-0.0307-1e-3 -0.20117 0.0215-4.2877 0.57648-13.282 0.74609-25.992 0.74609h-26.963c-12.71 0-21.705-0.16961-25.992-0.74609-0.17043-0.0229-0.05062-9.1e-4 -0.20117-0.0215-0.02074-0.15172 0.0016-0.0312-0.02148-0.20312-0.57647-4.2878-0.74609-13.282-0.74609-25.992v-26.961c0-12.71 0.16962-21.704 0.74609-25.992 0.02312-0.17196 7.45e-4 -0.0514 0.02148-0.20313 0.15055-0.0206 0.03074 1e-3 0.20117-0.0215 4.2877-0.57648 13.282-0.7461 25.992-0.7461z" color="#000000" fill="#000"/>
</svg>
