<?xml version="1.0" encoding="UTF-8"?>
<!-- Uploaded to: SVG Repo, www.svgrepo.com, Generator: SVG Repo Mixer Tools -->
<svg width="800px" height="800px" enable-background="new 0 0 40 40" version="1.1" viewBox="0 0 40 40" xml:space="preserve" xmlns="http://www.w3.org/2000/svg">
<g transform="matrix(2.0307 0 0 2.0307 -24.155 -22.684)">
			<g>
				<path d="m24 28.5h-8c-1.4 0-2.5-1.1-2.5-2.5v-12c0-1.4 1.1-2.5 2.5-2.5h3.6c0.4 0 0.8 0.2 1.1 0.4l5.4 5.4c0.3 0.3 0.4 0.7 0.4 1.1v7.6c0 1.4-1.1 2.5-2.5 2.5zm-8-16c-0.8 0-1.5 0.7-1.5 1.5v12c0 0.8 0.7 1.5 1.5 1.5h8c0.8 0 1.5-0.7 1.5-1.5v-7.6c0-0.1-0.1-0.3-0.1-0.4l-5.4-5.4c-0.1-0.1-0.2-0.1-0.4-0.1z"/>
			
			
				<path d="m26 18.5h-4c-1.4 0-2.5-1.1-2.5-2.5v-4c0-0.3 0.2-0.5 0.5-0.5s0.5 0.2 0.5 0.5v4c0 0.8 0.7 1.5 1.5 1.5h4c0.3 0 0.5 0.2 0.5 0.5s-0.2 0.5-0.5 0.5z"/>
			</g>
		</g>
<g transform="translate(1.0023 -.091116)"><g fill="#fff" stroke="#fff" stroke-width=".18895"><rect x="14.442" y="5.4214" width="8.9294" height="12.21"/><rect x="10.342" y="13.166" width="21.002" height="22.779"/><rect x="19.681" y="10.068" width="7.2893" height="7.6538"/><rect x="19.544" y="6.287" width="4.2825" height="4.0547"/><rect x="25.695" y="11.481" width="4.0091" height="5.2392"/><rect x="22.551" y="7.9727" width="3.4624" height="3.1435"/><rect x="23.007" y="7.3804" width="1.959" height=".95672"/></g><g transform="translate(1.8223 1.139)"><g transform="matrix(2.0307 0 0 2.0307 -20.615 -20.615)">
			<g>
				<path d="m24 28.5h-8c-1.4 0-2.5-1.1-2.5-2.5v-12c0-1.4 1.1-2.5 2.5-2.5h3.6c0.4 0 0.8 0.2 1.1 0.4l5.4 5.4c0.3 0.3 0.4 0.7 0.4 1.1v7.6c0 1.4-1.1 2.5-2.5 2.5zm-8-16c-0.8 0-1.5 0.7-1.5 1.5v12c0 0.8 0.7 1.5 1.5 1.5h8c0.8 0 1.5-0.7 1.5-1.5v-7.6c0-0.1-0.1-0.3-0.1-0.4l-5.4-5.4c-0.1-0.1-0.2-0.1-0.4-0.1z"/>
			
			
				<path d="m26 18.5h-4c-1.4 0-2.5-1.1-2.5-2.5v-4c0-0.3 0.2-0.5 0.5-0.5s0.5 0.2 0.5 0.5v4c0 0.8 0.7 1.5 1.5 1.5h4c0.3 0 0.5 0.2 0.5 0.5s-0.2 0.5-0.5 0.5z"/>
			</g>
		</g><g transform="matrix(2.0307 0 0 2.0307 -20.615 -20.615)">
			<path d="m19.2 24.8c-0.4 0-0.7-0.1-0.9-0.4l-1.1-1.1c-0.2-0.2-0.2-0.5 0-0.7s0.5-0.2 0.7 0l1.1 1.1c0.1 0.1 0.2 0.1 0.2 0.1 0.1 0 0.2 0 0.2-0.1l2.7-2.7c0.2-0.2 0.5-0.2 0.7 0s0.2 0.5 0 0.7l-2.7 2.7c-0.2 0.2-0.5 0.4-0.9 0.4z"/>
		</g></g></g></svg>
