<?xml version="1.0" encoding="UTF-8"?>
<svg width="512" height="512" fill="none" version="1.1" viewBox="0 0 512 512" xmlns="http://www.w3.org/2000/svg">
 <path d="m50.232 354.79a24.732 24.732 0 0 0-24.732 24.732 24.732 24.732 0 0 0 24.732 24.732h197.86a24.732 24.732 0 0 0 24.732-24.732 24.732 24.732 0 0 0-24.732-24.732zm0-123.66a24.732 24.732 0 0 0-24.732 24.73 24.732 24.732 0 0 0 24.732 24.732h197.86a24.732 24.732 0 0 0 24.732-24.732 24.732 24.732 0 0 0-24.732-24.73zm0-123.66a24.732 24.732 0 0 0-24.732 24.732 24.732 24.732 0 0 0 24.732 24.732h197.86a24.732 24.732 0 0 0 24.732-24.732 24.732 24.732 0 0 0-24.732-24.732zm369.51 388 73.278-109.92c8.7659-13.15-0.6601-30.762-16.463-30.762h-123.92c-15.803 0-25.229 17.612-16.463 30.762l73.278 109.92c2.4473 3.6703 7.8419 3.6703 10.289 0zm0-479.21 73.278 109.92c8.7659 13.149-0.6601 30.761-16.463 30.761h-123.92c-15.803 0-25.229-17.612-16.463-30.761l73.278-109.92c2.4473-3.671 7.8419-3.671 10.289 0zm-29.877 140.68v197.86h49.465v-197.86z" color="#000000" fill="#000" stroke-linecap="round"/>
</svg>
