<?xml version="1.0" encoding="UTF-8"?>
<svg width="512" height="512" fill="none" version="1.1" viewBox="0 0 512 512" xmlns="http://www.w3.org/2000/svg">
 <path d="m48.27 299.76c-16.161-26.934-16.161-60.583 0-87.517 4.9316-8.22 13.101-13.978 22.501-15.857l38.374-7.6748c2.2861-0.45717 4.3468-1.6832 5.8394-3.4744l46.897-56.277c26.803-32.164 40.205-48.246 52.164-43.916 11.961 4.3301 11.961 25.264 11.961 67.133v207.65c0 41.868 0 62.802-11.961 67.134-11.959 4.3292-25.361-11.752-52.164-43.917l-46.897-56.277c-1.4925-1.7906-3.5533-3.0168-5.8394-3.4746l-38.374-7.6746c-9.3993-1.879-17.569-7.6361-22.501-15.857z" stroke="#000" stroke-width="45.332"/>
 <path d="m283.48 175.87c21.145 21.144 33.076 49.788 33.194 79.689 0.11786 29.903-11.587 58.639-32.564 79.949" stroke="#000" stroke-linecap="round" stroke-width="45.332"/>
</svg>
