<?xml version="1.0" encoding="UTF-8"?>
<svg width="512" height="512" fill="none" version="1.1" viewBox="0 0 512 512" xmlns="http://www.w3.org/2000/svg">
 <g transform="matrix(22.666 0 0 22.666 -23.317 -15.987)" stroke="#000">
  <path d="m3.1584 13.931c-0.71301-1.1883-0.71301-2.6729 0-3.8612 0.21758-0.36266 0.57803-0.61668 0.99272-0.69962l1.693-0.33861c0.10086-0.02017 0.19178-0.07426 0.25763-0.15329l2.0691-2.4829c1.1826-1.4191 1.7738-2.1286 2.3014-1.9376 0.5277 0.19104 0.5277 1.1146 0.5277 2.9619v9.1614c0 1.8472 0 2.7708-0.5277 2.9619-0.52762 0.191-1.1189-0.5185-2.3014-1.9376l-2.0691-2.4829c-0.06585-0.079-0.15677-0.1331-0.25763-0.1533l-1.693-0.3386c-0.41469-0.0829-0.77514-0.3369-0.99272-0.6996z" stroke-width="2"/>
  <g stroke-linecap="round">
   <path d="m13.536 8.4645c0.9329 0.93285 1.4593 2.1966 1.4645 3.5158 0.0052 1.3193-0.5112 2.5871-1.4367 3.5273" stroke-width="2"/>
   <path d="m16.07 6.3431c1.4925 1.4926 2.3347 3.5146 2.343 5.6254 0.0084 2.1108-0.8179 4.1393-2.2987 5.6436" stroke-width="2"/>
   <path d="m19.539 4.9056c1.3896 1.8726 2.4075 4.4095 2.4152 7.0578 0.0078 2.6483-1.0343 5.2712-2.413 7.1586" stroke-width="2.1616"/>
  </g>
 </g>
</svg>
