<?xml version="1.0" encoding="UTF-8"?>
<svg class="svg-icon" fill="currentColor" overflow="hidden" style="height:1em;vertical-align:middle;width:1em" version="1.1" viewBox="0 0 1024 1024" xmlns="http://www.w3.org/2000/svg">
 <path d="m336.36 336.36v-68.182c0-37.636 30.573-68.182 68.182-68.182h327.27c37.636 0 68.182 30.573 68.182 68.182v327.27c0 37.636-30.573 68.182-68.182 68.182h-68.182v68.182c0 37.636-30.573 68.182-68.182 68.182h-327.27c-37.636 0-68.182-30.573-68.182-68.182v-327.27c0-37.636 30.573-68.182 68.182-68.182zm0 54.545h-68.182c-7.5 0-13.636 6.1364-13.636 13.636v327.27c0 7.5 6.1364 13.636 13.636 13.636h327.27c7.5 0 13.636-6.1364 13.636-13.636v-68.182h-204.55c-37.636 0-68.182-30.573-68.182-68.182zm54.545-122.73v327.27c0 7.5 6.1364 13.636 13.636 13.636h327.27c7.5 0 13.636-6.1364 13.636-13.636v-327.27c0-7.5-6.1364-13.636-13.636-13.636h-327.27c-7.5 0-13.636 6.1364-13.636 13.636z" fill="#000" stroke="#fff" stroke-width="2"/>
</svg>
