<?xml version="1.0" encoding="UTF-8" standalone="no"?>
<svg
   width="256"
   height="256"
   viewBox="0 0 128 128"
   fill="none"
   version="1.1"
   id="svg15"
   sodipodi:docname="folder.svg"
   inkscape:version="1.2.1 (9c6d41e410, 2022-07-14)"
   xmlns:inkscape="http://www.inkscape.org/namespaces/inkscape"
   xmlns:sodipodi="http://sodipodi.sourceforge.net/DTD/sodipodi-0.dtd"
   xmlns="http://www.w3.org/2000/svg"
   xmlns:svg="http://www.w3.org/2000/svg">
  <sodipodi:namedview
     id="namedview17"
     pagecolor="#ffffff"
     bordercolor="#666666"
     borderopacity="1.0"
     inkscape:showpageshadow="2"
     inkscape:pageopacity="0.0"
     inkscape:pagecheckerboard="0"
     inkscape:deskcolor="#d1d1d1"
     showgrid="false"
     inkscape:zoom="2"
     inkscape:cx="188"
     inkscape:cy="111.5"
     inkscape:window-width="1920"
     inkscape:window-height="1051"
     inkscape:window-x="0"
     inkscape:window-y="0"
     inkscape:window-maximized="1"
     inkscape:current-layer="svg15" />
  <g
     id="g249"
     transform="matrix(0.99212598,0,0,1,1,0)">
    <rect
       y="97"
       width="127"
       height="17"
       rx="4"
       fill="#e1a52c"
       id="rect2"
       x="0" />
    <path
       fill-rule="evenodd"
       clip-rule="evenodd"
       d="m 9,14 c -4.97056,0 -9,4.0294 -9,9 v 19 h 39 2 V 41.8917 C 46.9452,41.243 51.8774,37.7403 53.9494,33 H 114.174 C 114.06,33.4815 114,33.9837 114,34.5 c 0,3.5899 2.91,6.5 6.5,6.5 3.59,0 6.5,-2.9101 6.5,-6.5 0,-3.5899 -2.91,-6.5 -6.5,-6.5 -0.168,0 -0.335,0.0064 -0.5,0.0189 V 28 H 55 C 55,20.8607 48.8926,14.9695 41,14.1083 V 14 h -2 z"
       fill="#fbbc1a"
       id="path4" />
    <path
       fill-rule="evenodd"
       clip-rule="evenodd"
       d="M 40,37 H 4 c -2.20914,0 -4,1.7909 -4,4 v 66 c 0,2.209 1.79086,4 4,4 h 119 c 2.209,0 4,-1.791 4,-4 V 74 37 35 c 0,-2.2091 -1.791,-4 -4,-4 H 53.4166 C 50.1207,34.6825 45.331,37 40,37 Z"
       fill="url(#paint0_linear_130_233)"
       id="path6"
       style="fill:url(#paint0_linear_130_233)" />
  </g>
  <defs
     id="defs13">
    <linearGradient
       id="paint0_linear_130_233"
       x1="63.5"
       y1="31"
       x2="63.5"
       y2="111"
       gradientUnits="userSpaceOnUse">
      <stop
         stop-color="#FFDC7A"
         id="stop8" />
      <stop
         offset="1"
         stop-color="#FFCC41"
         id="stop10" />
    </linearGradient>
  </defs>
</svg>
