<?xml version="1.0" encoding="UTF-8" standalone="no"?>
<svg
   width="512"
   height="512"
   viewBox="0 0 512 512"
   fill="none"
   version="1.1"
   id="svg10"
   sodipodi:docname="fullscreen_on.svg"
   inkscape:version="1.2.1 (9c6d41e410, 2022-07-14)"
   xmlns:inkscape="http://www.inkscape.org/namespaces/inkscape"
   xmlns:sodipodi="http://sodipodi.sourceforge.net/DTD/sodipodi-0.dtd"
   xmlns="http://www.w3.org/2000/svg"
   xmlns:svg="http://www.w3.org/2000/svg">
  <defs
     id="defs14" />
  <sodipodi:namedview
     id="namedview12"
     pagecolor="#ffffff"
     bordercolor="#666666"
     borderopacity="1.0"
     inkscape:showpageshadow="2"
     inkscape:pageopacity="0.0"
     inkscape:pagecheckerboard="true"
     inkscape:deskcolor="#d1d1d1"
     showgrid="false"
     inkscape:zoom="1.1341146"
     inkscape:cx="199.27439"
     inkscape:cy="292.73938"
     inkscape:window-width="1920"
     inkscape:window-height="1051"
     inkscape:window-x="0"
     inkscape:window-y="0"
     inkscape:window-maximized="1"
     inkscape:current-layer="svg10"
     showguides="false" />
  <path
     d="m 404.42075,404.42075 v 18.55306 h 18.55306 v -18.55306 z m -79.64646,-105.8842 c -7.24496,-7.24497 -18.99277,-7.24497 -26.23774,0 -7.24497,7.24497 -7.24497,18.99278 0,26.23774 z m 61.09339,-5.43419 v 111.31839 h 37.10613 V 293.10236 Z m 18.55307,92.76532 H 293.10236 v 37.10613 h 111.31839 z m 13.11886,5.43419 -92.76532,-92.76532 -26.23774,26.23774 92.76532,92.76532 z"
     fill="#ffffff"
     id="path2"
     style="stroke:#000000;stroke-width:1.37716;stroke-dasharray:none;stroke-opacity:1;paint-order:stroke fill markers" />
  <path
     d="M 107.57172,404.42075 H 89.018658 v 18.55306 H 107.57172 Z M 213.4561,324.77429 c 7.24479,-7.24496 7.24479,-18.99277 0,-26.23774 -7.24553,-7.24497 -18.99258,-7.24497 -26.23812,0 z M 89.018658,293.10236 V 404.42075 H 126.12478 V 293.10236 Z M 107.57172,422.97381 H 218.89011 V 385.86768 H 107.57172 Z m 13.11906,-5.4342 92.76532,-92.76532 -26.23812,-26.23774 -92.765316,92.76532 z"
     fill="#ffffff"
     id="path4"
     style="stroke:#000000;stroke-width:1.37716;stroke-dasharray:none;stroke-opacity:1;paint-order:stroke fill markers" />
  <path
     d="m 404.42075,107.57172 h 18.55306 V 89.018658 h -18.55306 z m -105.8842,79.64626 c -7.24497,7.24554 -7.24497,18.99259 0,26.23812 7.24497,7.24479 18.99278,7.24479 26.23774,0 z m 124.43726,31.67213 V 107.57172 H 385.86768 V 218.89011 Z M 404.42075,89.018658 H 293.10236 v 37.106122 h 111.31839 z m -13.11888,5.434006 -92.76532,92.765316 26.23774,26.23812 92.76532,-92.76532 z"
     fill="#ffffff"
     id="path6"
     style="stroke:#000000;stroke-width:1.37716;stroke-dasharray:none;stroke-opacity:1;paint-order:stroke fill markers" />
  <path
     d="M 107.57172,107.57172 V 89.018658 H 89.018658 v 18.553062 z m 79.64626,105.88438 c 7.24554,7.24479 18.99259,7.24479 26.23812,0 7.24479,-7.24553 7.24479,-18.99258 0,-26.23812 z m -61.0932,5.43401 V 107.57172 H 89.018658 V 218.89011 Z M 107.57172,126.12478 H 218.89011 V 89.018658 H 107.57172 Z m -13.119056,-5.434 92.765316,92.76532 26.23812,-26.23812 -92.76532,-92.765316 z"
     fill="#ffffff"
     id="path8"
     style="stroke:#000000;stroke-width:1.37716;stroke-dasharray:none;stroke-opacity:1;paint-order:stroke fill markers" />
</svg>
