<?xml version="1.0" encoding="utf-8"?>
<!-- Generator: Adobe Illustrator 23.1.0, SVG Export Plug-In . SVG Version: 6.00 Build 0)  -->
<svg version="1.1"
	 id="svg10" xmlns:inkscape="http://www.inkscape.org/namespaces/inkscape" xmlns:sodipodi="http://sodipodi.sourceforge.net/DTD/sodipodi-0.dtd" xmlns:svg="http://www.w3.org/2000/svg"
	 xmlns="http://www.w3.org/2000/svg" xmlns:xlink="http://www.w3.org/1999/xlink" x="0px" y="0px" viewBox="0 0 512 512"
	 style="enable-background:new 0 0 512 512;" xml:space="preserve">
<style type="text/css">
	.st0{fill:#FFFFFF;}
</style>
<sodipodi:namedview  bordercolor="#666666" borderopacity="1.0" id="namedview12" inkscape:current-layer="svg10" inkscape:cx="199.27439" inkscape:cy="292.73938" inkscape:deskcolor="#d1d1d1" inkscape:pagecheckerboard="true" inkscape:pageopacity="0.0" inkscape:showpageshadow="2" inkscape:window-height="1051" inkscape:window-maximized="1" inkscape:window-width="1920" inkscape:window-x="0" inkscape:window-y="0" inkscape:zoom="1.1341146" pagecolor="#ffffff" showgrid="false" showguides="false">
	</sodipodi:namedview>
<g>
	<path class="st0" d="M292.2,424v-39.2h65.1l-59.4-59.4c-7.6-7.6-7.6-20,0-27.6c3.7-3.7,8.6-5.7,13.8-5.7c5.2,0,10.1,2,13.8,5.7
		l59.4,59.4v-65.1H424V424H292.2z"/>
	<path d="M311.7,293.1c4.8,0,9.5,1.8,13.1,5.4l61.1,61.1v-66.5H423v111.3V423h-18.5H293.2v-37.2h66.5l-61.1-61.1
		c-7.2-7.2-7.2-19,0-26.2C302.2,294.9,306.9,293.1,311.7,293.1 M311.7,291.1c-5.5,0-10.7,2.1-14.5,6c-3.9,3.9-6,9-6,14.5
		c0,5.5,2.1,10.7,6,14.5l57.7,57.7h-61.7h-2v2V423v2h2h111.3H423h2v-2v-18.6V293.1v-2h-2h-37.1h-2v2v61.7l-57.7-57.7
		C322.4,293.2,317.2,291.1,311.7,291.1L311.7,291.1z"/>
</g>
<g>
	<path class="st0" d="M88,424V292.2h39.2v65.1l59.4-59.4c3.7-3.7,8.6-5.7,13.8-5.7s10.1,2,13.8,5.7c7.6,7.6,7.6,20,0,27.6
		l-59.4,59.4h65.1V424H88z"/>
	<path d="M200.4,293.2c4.8,0,9.5,1.8,13.1,5.4c7.2,7.2,7.2,19,0,26.2l-61.1,61.1h66.5V423H107.6H89v-18.5V293.2h37.2v66.5l61.1-61.1
		C190.9,295,195.7,293.2,200.4,293.2 M200.4,291.2c-5.5,0-10.7,2.1-14.5,6l-57.7,57.7v-61.7v-2h-2H89h-2v2v111.3V423v2h2h18.6h111.3
		h2v-2v-37.1v-2h-2h-61.7l57.7-57.7c8-8,8-21,0-29C211.1,293.3,205.9,291.2,200.4,291.2L200.4,291.2z"/>
</g>
<g>
	<path class="st0" d="M311.6,219.8c-5.2,0-10.1-2-13.8-5.7c-3.7-3.7-5.7-8.6-5.7-13.8c0-5.2,2-10.1,5.7-13.8l59.4-59.4h-65.1V88
		h131.8v131.8h-39.1v-65.1l-59.4,59.4C321.7,217.8,316.8,219.8,311.6,219.8z"/>
	<path d="M422.9,89v18.6v111.2h-37.1v-66.5l-61.1,61.1c-3.6,3.6-8.4,5.4-13.1,5.4s-9.5-1.8-13.1-5.4c-7.2-7.2-7.2-19,0-26.2
		l61.1-61.1h-66.5V89h111.3H422.9 M424.9,87h-2h-18.5H293.1h-2v2v37.1v2h2h61.7l-57.7,57.7c-3.9,3.9-6,9-6,14.5
		c0,5.5,2.1,10.7,6,14.5c3.9,3.9,9,6,14.5,6s10.7-2.1,14.5-6l57.7-57.7v61.7v2h2h37.1h2v-2V107.6V89V87L424.9,87z"/>
</g>
<g>
	<path class="st0" d="M200.3,219.9c-5.2,0-10.1-2-13.8-5.7l-59.4-59.4v65.1H88V88h130.9v1h0.9v38.2h-65.1l59.4,59.4
		c7.6,7.6,7.6,20,0,27.6C210.4,217.9,205.5,219.9,200.3,219.9z"/>
	<path d="M218.9,89h-0.1H218.9 M218.8,89v37.2h-66.5l61.1,61.1c7.2,7.2,7.2,19,0,26.2c-3.6,3.6-8.3,5.4-13.1,5.4s-9.5-1.8-13.1-5.4
		l-61.1-61.1v66.5H89V107.6V89h18.6H218.8 M220.8,87h-2H107.6H89h-2v2v18.6v111.3v2h2h37.1h2v-2v-61.7l57.7,57.7c3.9,3.9,9,6,14.5,6
		c5.5,0,10.7-2.1,14.5-6c8-8,8-21,0-29l-57.7-57.7h61.7h2v-2V89V87L220.8,87z"/>
</g>
</svg>
