<?xml version="1.0" encoding="utf-8"?>
<!-- Generator: Adobe Illustrator 23.1.0, SVG Export Plug-In . SVG Version: 6.00 Build 0)  -->
<svg version="1.1"
	 id="svg6496" inkscape:version="1.2.1 (9c6d41e410, 2022-07-14)" sodipodi:docname="menu.svg" xmlns:inkscape="http://www.inkscape.org/namespaces/inkscape" xmlns:sodipodi="http://sodipodi.sourceforge.net/DTD/sodipodi-0.dtd" xmlns:svg="http://www.w3.org/2000/svg"
	 xmlns="http://www.w3.org/2000/svg" xmlns:xlink="http://www.w3.org/1999/xlink" x="0px" y="0px" viewBox="0 0 512 512"
	 style="enable-background:new 0 0 512 512;" xml:space="preserve">
<style type="text/css">
	.st0{fill:#FFFFFF;stroke:#000000;stroke-width:2;}
</style>
<sodipodi:namedview  bordercolor="#666666" borderopacity="1.0" id="namedview6498" inkscape:current-layer="svg6496" inkscape:cx="471.73363" inkscape:cy="280.39494" inkscape:deskcolor="#d1d1d1" inkscape:pagecheckerboard="true" inkscape:pageopacity="0.0" inkscape:showpageshadow="2" inkscape:window-height="1051" inkscape:window-maximized="1" inkscape:window-width="1920" inkscape:window-x="0" inkscape:window-y="0" inkscape:zoom="0.5670573" pagecolor="#ffffff" showgrid="false">
	</sodipodi:namedview>
<g id="path6490">
	<path class="st0" d="M423.8,163.2H93c-14,0-25.3-11.3-25.3-25.3S79,112.5,93,112.5h330.9c14,0,25.3,11.3,25.3,25.3
		S437.8,163.2,423.8,163.2z"/>
</g>
<g id="path6490-2">
	<path class="st0" d="M421.5,281.2H90.6c-14,0-25.3-11.3-25.3-25.3s11.3-25.3,25.3-25.3h330.9c14,0,25.3,11.3,25.3,25.3
		S435.5,281.2,421.5,281.2z"/>
</g>
<g id="path6490-2-9">
	<path class="st0" d="M421.5,399.7H90.6c-14,0-25.3-11.3-25.3-25.3S76.6,349,90.6,349h330.9c14,0,25.3,11.3,25.3,25.3
		S435.5,399.7,421.5,399.7z"/>
</g>
</svg>
