<?xml version="1.0" encoding="UTF-8"?>
<svg width="512" height="512" fill="none" version="1.1" viewBox="0 0 512 512" xmlns="http://www.w3.org/2000/svg">
 <path d="m253.47 99.262c-21.325 0.29651-42.505 4.9055-62.194 13.697-31.503 14.067-57.445 38.059-73.799 68.235-16.355 30.176-22.22 64.862-16.691 98.677a19.641 19.434 0 0 0 22.525 16.08 19.641 19.434 0 0 0 16.252-22.288c-4.153-25.401 0.25403-51.446 12.532-74.101 12.278-22.653 31.729-40.634 55.338-51.177 23.609-10.543 50.046-13.055 75.237-7.1523 25.192 5.9028 47.717 19.89 64.098 39.814s25.686 44.661 26.464 70.384c0.77569 25.723-7.0172 50.973-22.165 71.837h-2e-3c-15.148 20.866-36.792 36.168-61.584 43.561-24.79 7.3912-51.329 6.457-75.53-2.66a19.641 19.434 0 0 0-25.344 11.247 19.641 19.434 0 0 0 11.367 25.077c32.298 12.167 67.757 13.415 100.84 3.5502v-2e-3c33.086-9.8661 61.967-30.294 82.149-58.099 20.185-27.802 30.56-61.435 29.527-95.677v-2e-3c-1.035-34.24-13.425-67.195-35.255-93.75-21.83-26.553-51.895-45.228-85.521-53.108-12.609-2.9545-25.456-4.3292-38.251-4.1513zm-133.94 217.39-14.187 13.438 13.537 14.083 14.187-13.438zm-90.76-66.227 76.576 79.662 28.373-26.876-76.576-79.662zm104.3 80.312 80.249-76.017-27.074-28.165-80.249 76.016z" color="#000000" fill="#fff" stroke-linecap="round" stroke-width=".78731"/>
</svg>
