<?xml version="1.0" encoding="utf-8"?>
<!-- Generator: Adobe Illustrator 23.1.0, SVG Export Plug-In . SVG Version: 6.00 Build 0)  -->
<svg version="1.1"
	 id="svg6" xmlns:inkscape="http://www.inkscape.org/namespaces/inkscape" xmlns:sodipodi="http://sodipodi.sourceforge.net/DTD/sodipodi-0.dtd" xmlns:svg="http://www.w3.org/2000/svg"
	 xmlns="http://www.w3.org/2000/svg" xmlns:xlink="http://www.w3.org/1999/xlink" x="0px" y="0px" viewBox="0 0 512 512"
	 style="enable-background:new 0 0 512 512;" xml:space="preserve">
<style type="text/css">
	.st0{fill:#FFFFFF;}
</style>
<sodipodi:namedview  bordercolor="#666666" borderopacity="1.0" id="namedview8" inkscape:current-layer="svg6" inkscape:cx="315.01607" inkscape:cy="207.18229" inkscape:deskcolor="#d1d1d1" inkscape:pagecheckerboard="true" inkscape:pageopacity="0.0" inkscape:showpageshadow="2" inkscape:window-height="1051" inkscape:window-maximized="1" inkscape:window-width="1920" inkscape:window-x="0" inkscape:window-y="0" inkscape:zoom="1.4142136" pagecolor="#ffffff" showgrid="false">
	</sodipodi:namedview>
<g>
	<path class="st0" d="M259.8,415.9c-15.6,0-32.4-12.4-32.4-32.4v-43.4H16.1V156.6h211.3v-43.4c0-20,16.8-32.4,32.4-32.4
		c6.6,0,13.1,2.1,18.7,6.1l213.4,152.7c2.9,2.1,4.5,5.5,4.5,9c-0.1,3.5-1.7,6.6-4.6,8.6L278.5,409.8
		C272.9,413.8,266.5,415.9,259.8,415.9L259.8,415.9z"/>
	<path d="M259.8,81.8c6.1,0,12.4,1.8,18.1,5.9l213.4,152.7c5.4,4,5.4,12.1-0.1,15.9L277.9,409c-5.7,4.1-12,5.9-18.1,5.9
		c-16.2,0-31.4-12.9-31.4-31.4v-44.4H17.1V157.6h211.3v-44.4C228.4,94.7,243.6,81.8,259.8,81.8 M259.8,79.8c-8.5,0-17,3.4-23.2,9.3
		c-6.6,6.3-10.2,14.8-10.2,24.1v42.4H17.1h-2v2v181.5v2h2h209.3v42.4c0,9.3,3.6,17.8,10.2,24.1c6.2,5.9,14.7,9.3,23.2,9.3
		c6.9,0,13.5-2.2,19.3-6.3l213.3-152.7c3.1-2.1,4.9-5.5,5-9.3c0.1-3.8-1.7-7.5-4.8-9.8L279.1,86.1C273.3,82,266.7,79.8,259.8,79.8
		L259.8,79.8z"/>
</g>
</svg>
